SplineFontDB: 3.2
FontName: FogSans
FullName: Fog Sans
FamilyName: Fog Sans
Weight: Bold
Copyright: Font software Copyright (c) 2012 Intel Corporation. Licensed under the Apache License, Version 2.0.  http://www.apache.org/licenses/LICENSE-2.0
Version: 1.00
ItalicAngle: 0
UnderlinePosition: -166
UnderlineWidth: 54
Ascent: 899
Descent: 225
InvalidEm: 0
sfntRevision: 0x00010000
LayerCount: 2
Layer: 0 1 "Back" 1
Layer: 1 1 "Fore" 0
XUID: [1021 864 -1453851528 4324870]
StyleMap: 0x0000
FSType: 0
OS2Version: 3
OS2_WeightWidthSlopeOnly: 0
OS2_UseTypoMetrics: 0
CreationTime: 1346338579
ModificationTime: 1714659589
PfmFamily: 17
TTFWeight: 700
TTFWidth: 5
LineGap: 0
VLineGap: 0
Panose: 2 11 8 3 3 2 2 2 3 4
OS2TypoAscent: 850
OS2TypoAOffset: 0
OS2TypoDescent: -319
OS2TypoDOffset: 0
OS2TypoLinegap: 234
OS2WinAscent: 1259
OS2WinAOffset: 0
OS2WinDescent: 322
OS2WinDOffset: 0
HheadAscent: 1259
HheadAOffset: 0
HheadDescent: -322
HheadDOffset: 0
OS2SubXSize: 819
OS2SubYSize: 761
OS2SubXOff: 0
OS2SubYOff: 164
OS2SupXSize: 819
OS2SupYSize: 761
OS2SupXOff: 0
OS2SupYOff: 558
OS2StrikeYSize: 58
OS2StrikeYPos: 292
OS2CapHeight: 1620
OS2XHeight: 1227
OS2Vendor: 'MONO'
OS2CodePages: 2000019f.dfd70000
OS2UnicodeRanges: a00002ef.500078fb.00000008.00000000
Lookup: 1 0 0 "'rtla' Right to Left Alternates lookup 0" { "'rtla' Right to Left Alternates lookup 0 subtable"  } ['rtla' ('DFLT' <'dflt' > ) ]
Lookup: 4 0 1 "'liga' Standard Ligatures in Latin lookup 1" { "'liga' Standard Ligatures in Latin lookup 1 subtable"  } ['liga' ('latn' <'dflt' > ) ]
Lookup: 258 0 0 "'kern' Horizontal Kerning lookup 0" { "'kern' Horizontal Kerning lookup 0 subtable"  } ['kern' ('DFLT' <'dflt' > 'cyrl' <'dflt' > 'grek' <'dflt' > 'latn' <'dflt' > ) ]
Lookup: 258 0 0 "'kern' Horizontal Kerning lookup 1" { "'kern' Horizontal Kerning lookup 1 subtable"  } ['kern' ('DFLT' <'dflt' > 'cyrl' <'dflt' > 'grek' <'dflt' > 'latn' <'dflt' > ) ]
MarkAttachClasses: 1
DEI: 91125

StartChar: .notdef
Encoding: 65536 -1 0
Width: 407
GlyphClass: 1
Flags: W
LayerCount: 2
Fore
SplineSet
9 777 m 1,0,-1
 398 777 l 1,1,-1
 398 -2 l 1,2,-1
 9 -2 l 1,3,-1
 9 777 l 1,0,-1
204 440 m 1,4,-1
 336 723 l 1,5,-1
 74 723 l 1,6,-1
 204 440 l 1,4,-1
50 106 m 1,7,-1
 181 389 l 1,8,-1
 50 672 l 1,9,-1
 50 106 l 1,7,-1
228 389 m 1,10,-1
 360 104 l 1,11,12
 360 105 360 105 360 672 c 1,13,-1
 228 389 l 1,10,-1
204 338 m 1,14,-1
 74 56 l 1,15,-1
 336 56 l 1,16,-1
 204 338 l 1,14,-1
EndSplineSet
Validated: 1
EndChar

StartChar: exclam
Encoding: 33 33 5
Width: 231
GlyphClass: 1
Flags: W
LayerCount: 2
Fore
SplineSet
160 252 m 1,0,-1
 77 252 l 1,1,-1
 61 790 l 1,2,-1
 172 790 l 1,3,-1
 160 252 l 1,0,-1
115 167 m 0,4,5
 151 167 151 167 166 147.5 c 128,-1,6
 181 128 181 128 181 80 c 128,-1,7
 181 32 181 32 166 12 c 128,-1,8
 151 -8 151 -8 115.5 -8 c 128,-1,9
 80 -8 80 -8 66.5 11 c 128,-1,10
 53 30 53 30 53 79 c 128,-1,11
 53 128 53 128 66.5 147.5 c 128,-1,12
 80 167 80 167 115 167 c 0,4,5
EndSplineSet
Validated: 1
EndChar

StartChar: quotedbl
Encoding: 34 34 6
Width: 386
GlyphClass: 1
Flags: W
LayerCount: 2
Fore
SplineSet
318 441 m 1,0,-1
 245 441 l 1,1,-1
 226 790 l 1,2,-1
 335 790 l 1,3,-1
 318 441 l 1,0,-1
146 441 m 1,4,-1
 74 441 l 1,5,-1
 54 790 l 1,6,-1
 166 790 l 1,7,-1
 146 441 l 1,4,-1
EndSplineSet
Validated: 1
EndChar

StartChar: numbersign
Encoding: 35 35 7
Width: 559
GlyphClass: 1
Flags: W
LayerCount: 2
Fore
SplineSet
422 468 m 1,0,1
 422 469 422 469 393 322 c 1,2,-1
 485 322 l 1,3,-1
 485 218 l 1,4,-1
 375 218 l 2,5,6
 374 218 374 218 334 -2 c 1,7,-1
 256 -2 l 1,8,9
 257 -2 257 -2 299 218 c 1,10,-1
 199 218 l 1,11,-1
 158 -2 l 1,12,-1
 80 -2 l 1,13,-1
 123 218 l 1,14,-1
 30 218 l 1,15,-1
 30 322 l 1,16,-1
 140 322 l 1,17,-1
 169 468 l 1,18,-1
 77 468 l 1,19,-1
 77 573 l 1,20,-1
 189 573 l 1,21,-1
 229 791 l 1,22,23
 228 791 228 791 307 791 c 1,24,-1
 265 573 l 1,25,26
 266 573 266 573 366 573 c 1,27,-1
 405 791 l 1,28,-1
 484 791 l 1,29,-1
 440 573 l 1,30,-1
 532 573 l 1,31,-1
 532 468 l 1,32,-1
 422 468 l 1,0,1
246 468 m 1,33,34
 246 469 246 469 216 322 c 1,35,-1
 317 322 l 1,36,-1
 345 468 l 1,37,-1
 246 468 l 1,33,34
EndSplineSet
Validated: 33
EndChar

StartChar: dollar
Encoding: 36 36 8
Width: 509
GlyphClass: 1
Flags: W
LayerCount: 2
Fore
SplineSet
58 546 m 0,0,1
 58 640 58 640 103.5 687.5 c 128,-1,2
 149 735 149 735 225 746 c 1,3,-1
 225 806 l 1,4,-1
 297 806 l 1,5,-1
 297 746 l 1,6,7
 410 735 410 735 460 619 c 1,8,-1
 383 541 l 1,9,10
 367 571 367 571 344.5 592 c 128,-1,11
 322 613 322 613 297 619 c 1,12,-1
 297 458 l 1,13,14
 374 428 374 428 403 403 c 0,15,16
 467 350 467 350 469 244 c 0,17,18
 469 144 469 144 422 95 c 128,-1,19
 375 46 375 46 297 36 c 1,20,-1
 297 -75 l 1,21,-1
 225 -75 l 1,22,-1
 225 35 l 1,23,24
 102 53 102 53 50 165 c 1,25,-1
 132 244 l 1,26,27
 148 214 148 214 173 189.5 c 128,-1,28
 198 165 198 165 225 161 c 1,29,-1
 225 341 l 1,30,31
 161 364 161 364 125 390 c 0,32,33
 58 442 58 442 58 546 c 0,0,1
225 620 m 1,34,35
 199 617 199 617 182.5 601.5 c 128,-1,36
 166 586 166 586 166 555 c 0,37,38
 166 533 166 533 178 516 c 128,-1,39
 190 499 190 499 225 487 c 1,40,-1
 225 620 l 1,34,35
297 160 m 1,41,42
 324 165 324 165 342.5 182.5 c 128,-1,43
 361 200 361 200 361 233 c 0,44,45
 361 263 361 263 347.5 281 c 128,-1,46
 334 299 334 299 297 316 c 1,47,-1
 297 160 l 1,41,42
EndSplineSet
Validated: 1
EndChar

StartChar: percent
Encoding: 37 37 9
Width: 862
GlyphClass: 1
Flags: W
LayerCount: 2
Fore
SplineSet
830 237 m 0,0,1
 830 117 830 117 789 49 c 0,2,3
 752 -18 752 -18 673 -18 c 0,4,5
 596 -18 596 -18 556 50 c 128,-1,6
 516 118 516 118 516 237 c 0,7,8
 516 360 516 360 555 426.5 c 128,-1,9
 594 493 594 493 673 493 c 128,-1,10
 752 493 752 493 791 426.5 c 128,-1,11
 830 360 830 360 830 237 c 0,0,1
236 -29 m 1,12,-1
 533 818 l 1,13,-1
 628 818 l 1,14,15
 628 819 628 819 330 -29 c 1,16,-1
 236 -29 l 1,12,-1
348 549 m 0,17,18
 348 429 348 429 309 362.5 c 128,-1,19
 270 296 270 296 193 296 c 128,-1,20
 116 296 116 296 75.5 364 c 128,-1,21
 35 432 35 432 35 549 c 0,22,23
 35 672 35 672 74 739 c 128,-1,24
 113 806 113 806 192 806 c 128,-1,25
 271 806 271 806 309.5 739 c 128,-1,26
 348 672 348 672 348 549 c 0,17,18
673 390 m 0,27,28
 655 390 655 390 641.5 378.5 c 128,-1,29
 628 367 628 367 622.5 344.5 c 128,-1,30
 617 322 617 322 616 296.5 c 128,-1,31
 615 271 615 271 615 237 c 0,32,33
 615 149 615 149 628 118 c 0,34,35
 644 86 644 86 673 85 c 0,36,37
 708 85 708 85 719.5 124 c 128,-1,38
 731 163 731 163 731 237 c 0,39,40
 731 272 731 272 729.5 296 c 128,-1,41
 728 320 728 320 722 343.5 c 128,-1,42
 716 367 716 367 704.5 378.5 c 128,-1,43
 693 390 693 390 673 390 c 0,27,28
191.5 703 m 128,-1,45
 173 703 173 703 160 692 c 128,-1,46
 147 681 147 681 142 658 c 128,-1,47
 137 635 137 635 136 609 c 128,-1,48
 135 583 135 583 135 549 c 0,49,50
 135 461 135 461 148.5 430 c 128,-1,51
 162 399 162 399 193 399 c 0,52,53
 211 399 211 399 222.5 409.5 c 128,-1,54
 234 420 234 420 240.5 443 c 128,-1,55
 247 466 247 466 249 490 c 128,-1,56
 251 514 251 514 251 549 c 0,57,58
 251 585 251 585 249 609.5 c 128,-1,59
 247 634 247 634 241 657.5 c 128,-1,60
 235 681 235 681 222.5 692 c 128,-1,44
 210 703 210 703 191.5 703 c 128,-1,45
EndSplineSet
Validated: 37
EndChar

StartChar: ampersand
Encoding: 38 38 10
Width: 562
GlyphClass: 1
Flags: W
LayerCount: 2
Fore
SplineSet
259 806 m 0,0,1
 323 806 323 806 366 765 c 128,-1,2
 409 724 409 724 409 645 c 0,3,4
 409 567 409 567 362 498 c 0,5,6
 341 467 341 467 299 425 c 1,7,-1
 403 249 l 1,8,9
 429 299 429 299 443 379 c 1,10,-1
 532 351 l 1,11,12
 511 230 511 230 461 148 c 1,13,-1
 550 -2 l 1,14,-1
 418 -2 l 1,15,-1
 392 49 l 1,16,17
 360 17 360 17 322 -2 c 0,18,19
 287 -20 287 -20 240 -17 c 0,20,21
 151 -17 151 -17 94 42.5 c 128,-1,22
 37 102 37 102 37 212 c 0,23,24
 37 289 37 289 60 337 c 128,-1,25
 83 385 83 385 151 447 c 1,26,27
 128 488 128 488 111 532 c 128,-1,28
 94 576 94 576 94 619 c 0,29,30
 94 713 94 713 138 759.5 c 128,-1,31
 182 806 182 806 259 806 c 0,0,1
256 698 m 0,32,33
 229 698 229 698 214.5 679 c 128,-1,34
 200 660 200 660 200 626 c 0,35,36
 200 603 200 603 209 579.5 c 128,-1,37
 218 556 218 556 238 525 c 1,38,39
 264 550 264 550 278 571 c 0,40,41
 288 586 288 586 293.5 592.5 c 128,-1,42
 299 599 299 599 302.5 612.5 c 128,-1,43
 306 626 306 626 306 644 c 0,44,45
 306 669 306 669 291.5 683.5 c 128,-1,46
 277 698 277 698 256 698 c 0,32,33
143 211 m 0,47,48
 143 158 143 158 171 130.5 c 128,-1,49
 199 103 199 103 243 103 c 0,50,51
 295 102 295 102 334 144 c 1,52,-1
 210 351 l 1,53,54
 173 318 173 318 158 285 c 128,-1,55
 143 252 143 252 143 211 c 0,47,48
EndSplineSet
Validated: 33
EndChar

StartChar: quotesingle
Encoding: 39 39 11
Width: 216
GlyphClass: 1
Flags: W
LayerCount: 2
Fore
SplineSet
146 441 m 1,0,-1
 74 441 l 1,1,-1
 54 790 l 1,2,-1
 166 790 l 1,3,-1
 146 441 l 1,0,-1
EndSplineSet
Validated: 1
EndChar

StartChar: parenleft
Encoding: 40 40 12
Width: 338
GlyphClass: 1
Flags: W
LayerCount: 2
Fore
SplineSet
207 -59 m 1,0,1
 43 139 43 139 44 379 c 0,2,3
 44 620 44 620 207 817 c 1,4,-1
 326 817 l 1,5,6
 238 724 238 724 190.5 617 c 128,-1,7
 143 510 143 510 143 378.5 c 128,-1,8
 143 247 143 247 191.5 141.5 c 128,-1,9
 240 36 240 36 326 -59 c 1,10,-1
 207 -59 l 1,0,1
EndSplineSet
Validated: 33
Substitution2: "'rtla' Right to Left Alternates lookup 0 subtable" parenright
EndChar

StartChar: parenright
Encoding: 41 41 13
Width: 394
GlyphClass: 1
Flags: W
LayerCount: 2
Fore
SplineSet
69 -59 m 1,0,1
 157 34 157 34 204 140.5 c 128,-1,2
 251 247 251 247 251 378.5 c 128,-1,3
 251 510 251 510 204.5 617 c 128,-1,4
 158 724 158 724 69 817 c 1,5,-1
 188 817 l 1,6,7
 352 619 352 619 350 379 c 0,8,9
 350 139 350 139 188 -59 c 1,10,-1
 69 -59 l 1,0,1
EndSplineSet
Validated: 33
Substitution2: "'rtla' Right to Left Alternates lookup 0 subtable" parenleft
EndChar

StartChar: asterisk
Encoding: 42 42 14
Width: 361
GlyphClass: 1
Flags: W
LayerCount: 2
Fore
SplineSet
315 476 m 1,0,-1
 214 566 l 1,1,-1
 216 419 l 1,2,-1
 146 419 l 1,3,-1
 151 566 l 1,4,-1
 48 476 l 2,5,6
 47 476 47 476 11 560 c 1,7,-1
 124 643 l 1,8,9
 123 643 123 643 11 724 c 1,10,-1
 48 811 l 2,11,12
 49 811 49 811 151 720 c 1,13,-1
 146 868 l 1,14,-1
 216 868 l 1,15,-1
 213 720 l 1,16,-1
 315 811 l 1,17,-1
 352 724 l 1,18,-1
 240 643 l 1,19,-1
 352 560 l 1,20,-1
 315 476 l 1,0,-1
EndSplineSet
Validated: 1
EndChar

StartChar: plus
Encoding: 43 43 15
Width: 567
GlyphClass: 1
Flags: W
LayerCount: 2
Fore
SplineSet
326 274 m 1,0,-1
 326 1 l 1,1,-1
 245 1 l 1,2,-1
 245 274 l 1,3,4
 246 274 246 274 53 274 c 1,5,-1
 53 390 l 1,6,-1
 245 390 l 1,7,-1
 245 665 l 1,8,-1
 326 665 l 1,9,-1
 326 390 l 1,10,-1
 517 390 l 1,11,-1
 517 274 l 1,12,-1
 326 274 l 1,0,-1
EndSplineSet
Validated: 33
EndChar

StartChar: comma
Encoding: 44 44 16
Width: 231
GlyphClass: 1
Flags: W
LayerCount: 2
Fore
SplineSet
181 71 m 0,0,1
 181 7 181 7 165.5 -57.5 c 128,-1,2
 150 -122 150 -122 130 -168 c 1,3,-1
 58 -168 l 1,4,5
 99 -70 99 -70 101 -6 c 1,6,7
 49 -1 49 -1 53 82 c 0,8,9
 53 130 53 130 68 152.5 c 128,-1,10
 83 175 83 175 119 175 c 0,11,12
 181 174 181 174 181 71 c 0,0,1
EndSplineSet
Validated: 33
EndChar

StartChar: hyphen
Encoding: 45 45 17
Width: 311
GlyphClass: 1
Flags: W
LayerCount: 2
Fore
SplineSet
32 228 m 5,0,-1
 32 374 l 5,1,-1
 282 374 l 5,2,3
 282 375 282 375 282 228 c 5,4,-1
 32 228 l 5,0,-1
EndSplineSet
Validated: 33
EndChar

StartChar: period
Encoding: 46 46 18
Width: 231
GlyphClass: 1
Flags: W
LayerCount: 2
Fore
SplineSet
115 175 m 0,0,1
 151 175 151 175 166 154 c 128,-1,2
 181 133 181 133 181 82 c 0,3,4
 181 32 181 32 165.5 12 c 128,-1,5
 150 -8 150 -8 115 -8 c 128,-1,6
 80 -8 80 -8 66.5 13.5 c 128,-1,7
 53 35 53 35 53 83.5 c 128,-1,8
 53 132 53 132 66.5 153.5 c 128,-1,9
 80 175 80 175 115 175 c 0,0,1
EndSplineSet
Validated: 1
EndChar

StartChar: slash
Encoding: 47 47 19
Width: 409
GlyphClass: 1
Flags: W
LayerCount: 2
Fore
SplineSet
98 -171 m 1,0,-1
 -5 -171 l 1,1,-1
 272 868 l 1,2,-1
 372 868 l 1,3,-1
 98 -171 l 1,0,-1
EndSplineSet
Validated: 1
EndChar

StartChar: zero
Encoding: 48 48 20
Width: 509
GlyphClass: 1
Flags: W
LayerCount: 2
Fore
SplineSet
255 806 m 0,0,1
 374 806 374 806 423 702 c 128,-1,2
 472 598 472 598 472 395 c 128,-1,3
 472 192 472 192 422 87 c 128,-1,4
 372 -18 372 -18 255 -18 c 0,5,6
 139 -18 139 -18 90 87 c 128,-1,7
 41 192 41 192 41 394.5 c 128,-1,8
 41 597 41 597 90 701.5 c 128,-1,9
 139 806 139 806 255 806 c 0,0,1
357 394.5 m 128,-1,11
 357 536 357 536 332 602.5 c 128,-1,12
 307 669 307 669 255.5 669 c 128,-1,13
 204 669 204 669 181 602 c 128,-1,14
 158 535 158 535 158 393.5 c 128,-1,15
 158 252 158 252 181 186.5 c 128,-1,16
 204 121 204 121 255.5 121 c 128,-1,17
 307 121 307 121 332 187 c 128,-1,10
 357 253 357 253 357 394.5 c 128,-1,11
EndSplineSet
Validated: 1
EndChar

StartChar: one
Encoding: 49 49 21
Width: 509
GlyphClass: 1
Flags: W
LayerCount: 2
Fore
SplineSet
100 638 m 1,0,1
 177 643 177 643 211.5 674.5 c 128,-1,2
 246 706 246 706 261 790 c 1,3,-1
 345 790 l 1,4,-1
 345 -2 l 1,5,-1
 234 -2 l 1,6,-1
 234 530 l 1,7,-1
 100 530 l 1,8,-1
 100 638 l 1,0,1
EndSplineSet
Validated: 1
EndChar

StartChar: two
Encoding: 50 50 22
Width: 478
GlyphClass: 1
Flags: W
LayerCount: 2
Fore
SplineSet
238 806 m 0,0,1
 321 806 321 806 371.5 750.5 c 128,-1,2
 422 695 422 695 422 589 c 0,3,4
 422 512 422 512 402 457 c 0,5,6
 382 400 382 400 346 346 c 0,7,8
 323 313 323 313 269.5 241.5 c 128,-1,9
 216 170 216 170 193 148 c 1,10,-1
 439 148 l 1,11,-1
 439 -2 l 1,12,-1
 41 -2 l 1,13,-1
 41 135 l 1,14,15
 177 299 177 299 243 403 c 0,16,17
 273 450 273 450 289.5 492.5 c 128,-1,18
 306 535 306 535 306 583 c 0,19,20
 306 624 306 624 284 644.5 c 128,-1,21
 262 665 262 665 231 665 c 0,22,23
 170 665 170 665 133 581 c 1,24,25
 133 582 133 582 41 672 c 1,26,27
 74 741 74 741 118.5 773.5 c 128,-1,28
 163 806 163 806 238 806 c 0,0,1
EndSplineSet
Validated: 1
EndChar

StartChar: three
Encoding: 51 51 23
Width: 478
GlyphClass: 1
Flags: W
LayerCount: 2
Fore
SplineSet
299 419 m 1,0,1
 353 414 353 414 387.5 359.5 c 128,-1,2
 422 305 422 305 422 221 c 0,3,4
 422 98 422 98 366 40.5 c 128,-1,5
 310 -17 310 -17 214 -17 c 0,6,7
 150 -17 150 -17 99 17 c 128,-1,8
 48 51 48 51 26 111 c 1,9,-1
 116 199 l 1,10,11
 134 164 134 164 156 146 c 128,-1,12
 178 128 178 128 215 128 c 0,13,14
 261 128 261 128 283.5 152 c 128,-1,15
 306 176 306 176 306 233 c 0,16,17
 306 344 306 344 204 344 c 2,18,-1
 156 344 l 1,19,-1
 156 481 l 1,20,-1
 198 481 l 2,21,22
 242 481 242 481 269 507 c 128,-1,23
 296 533 296 533 296 583 c 0,24,25
 296 661 296 661 223 663 c 0,26,27
 186 663 186 663 162.5 646.5 c 128,-1,28
 139 630 139 630 123 592 c 1,29,-1
 31 683 l 1,30,31
 64 747 64 747 111 776.5 c 128,-1,32
 158 806 158 806 229 806 c 0,33,34
 282 806 282 806 325.5 782 c 128,-1,35
 369 758 369 758 392 713 c 0,36,37
 413 669 413 669 413 613 c 0,38,39
 410 460 410 460 299 419 c 1,0,1
EndSplineSet
Validated: 1
EndChar

StartChar: four
Encoding: 52 52 24
Width: 509
GlyphClass: 1
Flags: W
LayerCount: 2
Fore
SplineSet
412 131 m 1,0,-1
 412 -2 l 1,1,-1
 303 -2 l 1,2,-1
 303 131 l 1,3,-1
 26 131 l 1,4,-1
 26 279 l 1,5,-1
 297 790 l 1,6,-1
 412 790 l 1,7,-1
 412 268 l 1,8,9
 413 268 413 268 480 268 c 1,10,-1
 480 131 l 1,11,-1
 412 131 l 1,0,-1
303 579 m 1,12,13
 304 579 304 579 135 268 c 1,14,-1
 303 268 l 1,15,-1
 303 579 l 1,12,13
EndSplineSet
Validated: 37
EndChar

StartChar: five
Encoding: 53 53 25
Width: 478
GlyphClass: 1
Flags: W
LayerCount: 2
Fore
SplineSet
249 525 m 0,0,1
 338 525 338 525 388.5 456 c 128,-1,2
 439 387 439 387 439 260 c 0,3,4
 439 125 439 125 380.5 61.5 c 128,-1,5
 322 -2 322 -2 216 -2 c 0,6,7
 70 -2 70 -2 20 113 c 0,8,9
 20 114 20 114 111 206 c 1,10,11
 142 129 142 129 215 128 c 0,12,13
 326 128 326 128 324 263 c 0,14,15
 324 324 324 324 293 354.5 c 128,-1,16
 262 385 262 385 215 385 c 0,17,18
 161 385 161 385 132 344 c 0,19,20
 131 344 131 344 53 344 c 1,21,-1
 87 790 l 1,22,-1
 408 790 l 1,23,-1
 408 643 l 1,24,-1
 176 643 l 1,25,-1
 164 503 l 1,26,27
 202 525 202 525 249 525 c 0,0,1
EndSplineSet
Validated: 33
EndChar

StartChar: six
Encoding: 54 54 26
Width: 478
GlyphClass: 1
Flags: W
LayerCount: 2
Fore
SplineSet
449 256 m 0,0,1
 449 131 449 131 394 57 c 128,-1,2
 339 -17 339 -17 250 -17 c 0,3,4
 146 -17 146 -17 93.5 81.5 c 128,-1,5
 41 180 41 180 41 347 c 0,6,7
 41 483 41 483 62 583 c 128,-1,8
 83 683 83 683 136 744.5 c 128,-1,9
 189 806 189 806 271 806 c 0,10,11
 377 807 377 807 427 744 c 1,12,-1
 366 619 l 1,13,14
 325 671 325 671 270.5 670 c 128,-1,15
 216 669 216 669 192 616 c 128,-1,16
 168 563 168 563 160 467 c 1,17,18
 191 497 191 497 215.5 509 c 128,-1,19
 240 521 240 521 278 521 c 0,20,21
 358 521 358 521 403.5 450 c 128,-1,22
 449 379 449 379 449 256 c 0,0,1
249 385 m 0,23,24
 196 385 196 385 158 341 c 1,25,26
 158 259 158 259 164.5 217.5 c 128,-1,27
 171 176 171 176 194 148 c 0,28,29
 216 122 216 122 251 122 c 0,30,31
 338 122 338 122 334 252 c 0,32,33
 334 311 334 311 312 348 c 128,-1,34
 290 385 290 385 249 385 c 0,23,24
EndSplineSet
Validated: 33
EndChar

StartChar: seven
Encoding: 55 55 27
Width: 509
GlyphClass: 1
Flags: W
LayerCount: 2
Fore
SplineSet
251 -2 m 1,0,-1
 125 -2 l 1,1,-1
 330 643 l 1,2,-1
 44 643 l 1,3,-1
 44 790 l 1,4,-1
 460 790 l 1,5,-1
 460 692 l 1,6,-1
 251 -2 l 1,0,-1
EndSplineSet
Validated: 1
EndChar

StartChar: eight
Encoding: 56 56 28
Width: 478
GlyphClass: 1
Flags: W
LayerCount: 2
Fore
SplineSet
240 806 m 128,-1,1
 328 806 328 806 381 754 c 128,-1,2
 434 702 434 702 434 593 c 0,3,4
 434 527 434 527 392 473 c 0,5,6
 374 448 374 448 334 419 c 1,7,8
 380 388 380 388 403 358 c 0,9,10
 447 301 447 301 448 214 c 0,11,12
 448 99 448 99 391.5 41 c 128,-1,13
 335 -17 335 -17 240 -17 c 128,-1,14
 145 -17 145 -17 89 39.5 c 128,-1,15
 33 96 33 96 33 214 c 0,16,17
 33 353 33 353 135 420 c 1,18,19
 47 484 47 484 47 592 c 0,20,21
 47 701 47 701 99.5 753.5 c 128,-1,0
 152 806 152 806 240 806 c 128,-1,1
322 591 m 0,22,23
 322 635 322 635 300.5 658 c 128,-1,24
 279 681 279 681 240 681 c 0,25,26
 192 681 192 681 175 655.5 c 128,-1,27
 158 630 158 630 158 597 c 0,28,29
 158 567 158 567 165 550.5 c 128,-1,30
 172 534 172 534 191 514.5 c 128,-1,31
 210 495 210 495 240 477 c 1,32,33
 287 507 287 507 304.5 534 c 128,-1,34
 322 561 322 561 322 591 c 0,22,23
240 111 m 0,35,36
 281 111 281 111 307.5 137 c 128,-1,37
 334 163 334 163 334 214 c 0,38,39
 334 264 334 264 310 296 c 128,-1,40
 286 328 286 328 240 360 c 1,41,42
 188 329 188 329 167 296 c 128,-1,43
 146 263 146 263 146 212 c 0,44,45
 146 159 146 159 171.5 135 c 128,-1,46
 197 111 197 111 240 111 c 0,35,36
EndSplineSet
Validated: 1
EndChar

StartChar: nine
Encoding: 57 57 29
Width: 478
GlyphClass: 1
Flags: W
LayerCount: 2
Fore
SplineSet
440 443 m 0,0,1
 440 343 440 343 428 262.5 c 128,-1,2
 416 182 416 182 390 117.5 c 128,-1,3
 364 53 364 53 320 18 c 128,-1,4
 276 -17 276 -17 213 -17 c 0,5,6
 102 -17 102 -17 47 49 c 1,7,-1
 111 171 l 1,8,9
 152 119 152 119 213 122 c 0,10,11
 306 122 306 122 322 323 c 1,12,13
 266 269 266 269 213 268 c 0,14,15
 125 268 125 268 79 338.5 c 128,-1,16
 33 409 33 409 33 534 c 0,17,18
 33 657 33 657 86.5 731.5 c 128,-1,19
 140 806 140 806 228 806 c 0,20,21
 337 806 337 806 388.5 709 c 128,-1,22
 440 612 440 612 440 443 c 0,0,1
146 536 m 0,23,24
 146 477 146 477 169.5 441.5 c 128,-1,25
 193 406 193 406 234 406 c 0,26,27
 260 406 260 406 285 419 c 128,-1,28
 310 432 310 432 324 450 c 1,29,30
 324 571 324 571 301.5 620 c 128,-1,31
 279 669 279 669 229 669 c 0,32,33
 188 669 188 669 167 633 c 128,-1,34
 146 597 146 597 146 536 c 0,23,24
EndSplineSet
Validated: 33
EndChar

StartChar: colon
Encoding: 58 58 30
Width: 231
GlyphClass: 1
Flags: W
LayerCount: 2
Fore
SplineSet
115 599 m 0,0,1
 151 599 151 599 166 578 c 128,-1,2
 181 557 181 557 181 508 c 0,3,4
 181 458 181 458 165.5 437 c 128,-1,5
 150 416 150 416 115 416 c 128,-1,6
 80 416 80 416 66.5 437 c 128,-1,7
 53 458 53 458 53 507 c 128,-1,8
 53 556 53 556 66.5 577.5 c 128,-1,9
 80 599 80 599 115 599 c 0,0,1
115 175 m 0,10,11
 151 175 151 175 166 154 c 128,-1,12
 181 133 181 133 181 82 c 0,13,14
 181 32 181 32 165.5 12 c 128,-1,15
 150 -8 150 -8 115 -8 c 128,-1,16
 80 -8 80 -8 66.5 13.5 c 128,-1,17
 53 35 53 35 53 83.5 c 128,-1,18
 53 132 53 132 66.5 153.5 c 128,-1,19
 80 175 80 175 115 175 c 0,10,11
EndSplineSet
Validated: 1
EndChar

StartChar: semicolon
Encoding: 59 59 31
Width: 231
GlyphClass: 1
Flags: W
LayerCount: 2
Fore
SplineSet
115 599 m 0,0,1
 151 599 151 599 166 578 c 128,-1,2
 181 557 181 557 181 508 c 0,3,4
 181 458 181 458 165.5 437 c 128,-1,5
 150 416 150 416 115 416 c 128,-1,6
 80 416 80 416 66.5 437 c 128,-1,7
 53 458 53 458 53 507 c 128,-1,8
 53 556 53 556 66.5 577.5 c 128,-1,9
 80 599 80 599 115 599 c 0,0,1
53 82 m 0,10,11
 53 130 53 130 68 152.5 c 128,-1,12
 83 175 83 175 119 175 c 0,13,14
 185 175 185 175 181 71 c 0,15,16
 181 7 181 7 165.5 -57.5 c 128,-1,17
 150 -122 150 -122 130 -168 c 1,18,-1
 58 -168 l 1,19,20
 99 -70 99 -70 101 -6 c 1,21,22
 53 -1 53 -1 53 82 c 0,10,11
EndSplineSet
Validated: 33
EndChar

StartChar: less
Encoding: 60 60 32
Width: 567
GlyphClass: 1
Flags: W
LayerCount: 2
Fore
SplineSet
53 275 m 1,0,-1
 53 390 l 1,1,-1
 517 665 l 1,2,-1
 517 535 l 1,3,-1
 169 332 l 1,4,-1
 517 131 l 1,5,-1
 517 2 l 1,6,-1
 53 275 l 1,0,-1
EndSplineSet
Validated: 1
Substitution2: "'rtla' Right to Left Alternates lookup 0 subtable" greater
EndChar

StartChar: equal
Encoding: 61 61 33
Width: 567
GlyphClass: 1
Flags: W
LayerCount: 2
Fore
SplineSet
53 414 m 1,0,-1
 53 531 l 1,1,-1
 517 531 l 1,2,-1
 517 414 l 1,3,-1
 53 414 l 1,0,-1
53 133 m 1,4,-1
 53 250 l 1,5,-1
 517 250 l 1,6,-1
 517 133 l 1,7,-1
 53 133 l 1,4,-1
EndSplineSet
Validated: 1
EndChar

StartChar: greater
Encoding: 62 62 34
Width: 567
GlyphClass: 1
Flags: W
LayerCount: 2
Fore
SplineSet
53 2 m 1,0,-1
 53 131 l 1,1,2
 53 130 53 130 398 332 c 1,3,4
 397 332 397 332 53 535 c 1,5,-1
 53 665 l 1,6,-1
 517 390 l 1,7,8
 517 391 517 391 517 275 c 1,9,-1
 53 2 l 1,0,-1
EndSplineSet
Validated: 33
Substitution2: "'rtla' Right to Left Alternates lookup 0 subtable" less
EndChar

StartChar: question
Encoding: 63 63 35
Width: 424
GlyphClass: 1
Flags: W
LayerCount: 2
Fore
SplineSet
204 806 m 0,0,1
 292 806 292 806 346.5 753.5 c 128,-1,2
 401 701 401 701 401 592 c 0,3,4
 401 487 401 487 336 411 c 0,5,6
 306 376 306 376 240 330 c 1,7,-1
 240 228 l 1,8,-1
 133 228 l 1,9,-1
 133 400 l 1,10,11
 197 440 197 440 226 464.5 c 128,-1,12
 255 489 255 489 269 517 c 128,-1,13
 283 545 283 545 283 581 c 0,14,15
 283 669 283 669 204 669 c 0,16,17
 167 669 167 669 145.5 648.5 c 128,-1,18
 124 628 124 628 109 586 c 1,19,-1
 15 666 l 1,20,21
 69 806 69 806 204 806 c 0,0,1
189 167 m 0,22,23
 225 167 225 167 238.5 147.5 c 128,-1,24
 252 128 252 128 252 79 c 128,-1,25
 252 30 252 30 238 11 c 128,-1,26
 224 -8 224 -8 189 -8 c 256,27,28
 154 -8 154 -8 138.5 11 c 128,-1,29
 123 30 123 30 123 80 c 0,30,31
 123 128 123 128 138.5 147.5 c 128,-1,32
 154 167 154 167 189 167 c 0,22,23
EndSplineSet
Validated: 1
EndChar

StartChar: at
Encoding: 64 64 36
Width: 776
GlyphClass: 1
Flags: W
LayerCount: 2
Fore
SplineSet
395 806 m 0,0,1
 553 806 553 806 645.5 679 c 128,-1,2
 738 552 738 552 738 326 c 0,3,4
 738 127 738 127 665 48 c 0,5,6
 629 8 629 8 575 9 c 0,7,8
 534 9 534 9 509 25 c 128,-1,9
 484 41 484 41 474 81 c 1,10,11
 418 25 418 25 359 24 c 0,12,13
 282 24 282 24 242 99.5 c 128,-1,14
 202 175 202 175 202 296 c 0,15,16
 202 427 202 427 245.5 505 c 128,-1,17
 289 583 289 583 371 583 c 0,18,19
 415 582 415 582 465 543 c 1,20,-1
 465 566 l 1,21,-1
 552 566 l 1,22,-1
 552 169 l 2,23,24
 552 139 552 139 558 126.5 c 128,-1,25
 564 114 564 114 580 114 c 0,26,27
 630 114 630 114 649 214 c 0,28,29
 658 261 658 261 657 321 c 0,30,31
 657 508 657 508 590.5 605 c 128,-1,32
 524 702 524 702 396 702 c 0,33,34
 316 702 316 702 253 650 c 128,-1,35
 190 598 190 598 158 513 c 0,36,37
 125 425 125 425 123 316 c 0,38,39
 123 195 123 195 157.5 107 c 128,-1,40
 192 19 192 19 251 -26 c 0,41,42
 312 -73 312 -73 393 -72 c 0,43,44
 494 -72 494 -72 574 -48 c 1,45,-1
 591 -150 l 1,46,47
 514 -177 514 -177 393 -176 c 0,48,49
 284 -176 284 -176 207 -114 c 128,-1,50
 130 -52 130 -52 88 54 c 0,51,52
 44 167 44 167 41 316 c 0,53,54
 41 462 41 462 89 573 c 128,-1,55
 137 684 137 684 215 744 c 0,56,57
 295 807 295 807 395 806 c 0,0,1
289 297 m 0,58,59
 289 139 289 139 375 139 c 0,60,61
 410 139 410 139 464 192 c 1,62,-1
 464 432 l 1,63,64
 418 473 418 473 385 473 c 0,65,66
 333 473 333 473 311 428.5 c 128,-1,67
 289 384 289 384 289 297 c 0,58,59
EndSplineSet
Validated: 33
EndChar

StartChar: A
Encoding: 65 65 37
Width: 530
GlyphClass: 1
Flags: W
LayerCount: 2
Fore
SplineSet
10 -2 m 1,0,-1
 193 790 l 1,1,-1
 340 790 l 1,2,-1
 524 -2 l 1,3,-1
 408 -2 l 1,4,-1
 371 160 l 1,5,-1
 158 160 l 1,6,-1
 123 -2 l 1,7,-1
 10 -2 l 1,0,-1
192 301 m 2,8,9
 191 301 191 301 339 301 c 1,10,-1
 265 628 l 1,11,-1
 192 301 l 2,8,9
EndSplineSet
Validated: 33
EndChar

StartChar: B
Encoding: 66 66 38
Width: 514
GlyphClass: 1
Flags: W
LayerCount: 2
Fore
SplineSet
350 425 m 1,0,1
 414 412 414 412 449.5 366 c 128,-1,2
 485 320 485 320 485 228 c 0,3,4
 485 0 485 0 268 -2 c 2,5,-1
 59 -2 l 1,6,-1
 59 790 l 1,7,-1
 255 790 l 2,8,9
 361 790 361 790 407 745.5 c 128,-1,10
 453 701 453 701 453 607 c 0,11,12
 453 455 453 455 350 425 c 1,0,1
240 479 m 2,13,14
 288 479 288 479 313.5 499.5 c 128,-1,15
 339 520 339 520 339 571 c 0,16,17
 339 619 339 619 315 634 c 128,-1,18
 291 649 291 649 245 649 c 2,19,-1
 172 649 l 1,20,-1
 172 479 l 1,21,-1
 240 479 l 2,13,14
369 243 m 0,22,23
 369 296 369 296 343.5 318 c 128,-1,24
 318 340 318 340 250 340 c 2,25,-1
 172 340 l 1,26,-1
 172 142 l 1,27,-1
 229 142 l 2,28,29
 295 142 295 142 322 151 c 0,30,31
 369 168 369 168 369 243 c 0,22,23
EndSplineSet
Validated: 1
EndChar

StartChar: C
Encoding: 67 67 39
Width: 527
GlyphClass: 1
Flags: W
LayerCount: 2
Fore
SplineSet
156 395 m 0,0,1
 156 263 156 263 187 195 c 128,-1,2
 218 127 218 127 296 127 c 0,3,4
 346 127 346 127 372 154 c 128,-1,5
 398 181 398 181 422 223 c 1,6,-1
 508 131 l 1,7,8
 475 56 475 56 423.5 19.5 c 128,-1,9
 372 -17 372 -17 297 -17 c 0,10,11
 40 -17 40 -17 40 394.5 c 128,-1,12
 40 806 40 806 291 806 c 0,13,14
 440 806 440 806 502 666 c 1,15,-1
 416 568 l 1,16,17
 393 620 393 620 366 642.5 c 128,-1,18
 339 665 339 665 293 665 c 0,19,20
 226 665 226 665 191 603 c 128,-1,21
 156 541 156 541 156 395 c 0,0,1
EndSplineSet
Validated: 1
EndChar

StartChar: D
Encoding: 68 68 40
Width: 522
GlyphClass: 1
Flags: W
LayerCount: 2
Fore
SplineSet
223 790 m 2,0,1
 366 790 366 790 428 696.5 c 128,-1,2
 490 603 490 603 490 395 c 0,3,4
 490 258 490 258 464 169 c 0,5,6
 437 81 437 81 381 40 c 128,-1,7
 325 -1 325 -1 224 -2 c 2,8,-1
 54 -2 l 1,9,-1
 54 790 l 1,10,-1
 223 790 l 2,0,1
374 396 m 0,11,12
 374 494 374 494 361 546 c 128,-1,13
 348 598 348 598 312 622 c 0,14,15
 279 643 279 643 213 643 c 1,16,17
 214 643 214 643 169 643 c 1,18,-1
 169 148 l 1,19,-1
 213 148 l 2,20,21
 277 148 277 148 311 167.5 c 128,-1,22
 345 187 345 187 360 243 c 0,23,24
 374 295 374 295 374 396 c 0,11,12
EndSplineSet
Validated: 37
EndChar

StartChar: E
Encoding: 69 69 41
Width: 455
GlyphClass: 1
Flags: W
LayerCount: 2
Fore
SplineSet
59 -2 m 1,0,-1
 59 790 l 1,1,-1
 418 790 l 1,2,-1
 418 648 l 1,3,-1
 172 648 l 1,4,-1
 172 478 l 1,5,-1
 381 478 l 1,6,-1
 381 337 l 1,7,-1
 172 337 l 1,8,-1
 172 148 l 1,9,-1
 418 148 l 1,10,-1
 418 -2 l 1,11,-1
 59 -2 l 1,0,-1
EndSplineSet
Validated: 1
EndChar

StartChar: F
Encoding: 70 70 42
Width: 439
GlyphClass: 1
Flags: W
LayerCount: 2
Fore
SplineSet
172 643 m 1,0,-1
 172 473 l 1,1,-1
 376 473 l 1,2,-1
 376 330 l 1,3,-1
 172 330 l 1,4,-1
 172 -2 l 1,5,-1
 59 -2 l 1,6,-1
 59 790 l 1,7,-1
 416 790 l 1,8,-1
 416 643 l 1,9,-1
 172 643 l 1,0,-1
EndSplineSet
Validated: 1
EndChar

StartChar: G
Encoding: 71 71 43
Width: 559
GlyphClass: 1
Flags: W
LayerCount: 2
Fore
SplineSet
299 -17 m 0,0,1
 164 -17 164 -17 102 83.5 c 128,-1,2
 40 184 40 184 40 388 c 0,3,4
 40 806 40 806 297 806 c 0,5,6
 374 806 374 806 429 769.5 c 128,-1,7
 484 733 484 733 512 666 c 1,8,-1
 427 568 l 1,9,10
 406 616 406 616 375.5 640.5 c 128,-1,11
 345 665 345 665 299 665 c 0,12,13
 222 665 222 665 189 593 c 128,-1,14
 156 521 156 521 156 388 c 0,15,16
 156 256 156 256 187 191.5 c 128,-1,17
 218 127 218 127 297 127 c 0,18,19
 353 127 353 127 398 159 c 1,20,-1
 398 281 l 1,21,22
 397 281 397 281 289 281 c 1,23,-1
 289 424 l 1,24,-1
 512 424 l 1,25,-1
 512 75 l 1,26,27
 475 34 475 34 417.5 8.5 c 128,-1,28
 360 -17 360 -17 299 -17 c 0,0,1
EndSplineSet
Validated: 1
EndChar

StartChar: H
Encoding: 72 72 44
Width: 559
GlyphClass: 1
Flags: W
LayerCount: 2
Fore
SplineSet
392 -2 m 1,0,-1
 392 335 l 1,1,-1
 172 335 l 1,2,-1
 172 -2 l 1,3,-1
 59 -2 l 1,4,-1
 59 790 l 1,5,-1
 172 790 l 1,6,-1
 172 484 l 1,7,-1
 392 484 l 1,8,-1
 392 790 l 1,9,-1
 503 790 l 1,10,-1
 503 -2 l 1,11,-1
 392 -2 l 1,0,-1
EndSplineSet
Validated: 1
EndChar

StartChar: I
Encoding: 73 73 45
Width: 345
GlyphClass: 1
Flags: W
LayerCount: 2
Fore
SplineSet
308 -2 m 1,0,1
 309 -2 309 -2 41 -2 c 1,2,-1
 41 124 l 1,3,-1
 119 124 l 1,4,-1
 119 666 l 1,5,6
 120 666 120 666 41 666 c 1,7,-1
 41 790 l 1,8,-1
 308 790 l 1,9,-1
 308 666 l 1,10,-1
 229 666 l 1,11,-1
 229 124 l 1,12,-1
 308 124 l 1,13,-1
 308 -2 l 1,0,1
EndSplineSet
Validated: 33
EndChar

StartChar: J
Encoding: 74 74 46
Width: 366
GlyphClass: 1
Flags: W
LayerCount: 2
Fore
SplineSet
41 158 m 1,0,1
 52 151 52 151 82.5 138 c 128,-1,2
 113 125 113 125 127 125 c 0,3,4
 157 125 157 125 170 134.5 c 128,-1,5
 183 144 183 144 190 175 c 0,6,7
 195 205 195 205 194 259 c 2,8,-1
 194 790 l 1,9,-1
 308 790 l 1,10,-1
 308 216 l 2,11,12
 308 91 308 91 264 36.5 c 128,-1,13
 220 -18 220 -18 124 -18 c 0,14,15
 101 -18 101 -18 64 -8 c 128,-1,16
 27 2 27 2 7 13 c 1,17,-1
 41 158 l 1,0,1
EndSplineSet
Validated: 33
EndChar

StartChar: K
Encoding: 75 75 47
Width: 509
GlyphClass: 1
Flags: W
LayerCount: 2
Fore
SplineSet
359 -2 m 1,0,-1
 204 330 l 1,1,-1
 172 275 l 1,2,-1
 172 -2 l 1,3,-1
 59 -2 l 1,4,-1
 59 790 l 1,5,-1
 172 790 l 1,6,-1
 172 481 l 1,7,-1
 355 790 l 1,8,-1
 485 790 l 1,9,-1
 279 450 l 1,10,-1
 501 -2 l 1,11,-1
 359 -2 l 1,0,-1
EndSplineSet
Validated: 1
EndChar

StartChar: L
Encoding: 76 76 48
Width: 410
GlyphClass: 1
Flags: W
LayerCount: 2
Fore
SplineSet
59 -2 m 1,0,-1
 59 790 l 1,1,-1
 172 790 l 1,2,-1
 172 148 l 1,3,-1
 403 148 l 1,4,-1
 403 -2 l 1,5,-1
 59 -2 l 1,0,-1
EndSplineSet
Validated: 1
EndChar

StartChar: M
Encoding: 77 77 49
Width: 664
GlyphClass: 1
Flags: W
LayerCount: 2
Fore
SplineSet
497 -2 m 1,0,-1
 497 531 l 1,1,-1
 366 200 l 1,2,-1
 299 200 l 1,3,-1
 169 531 l 1,4,-1
 169 -2 l 1,5,-1
 59 -2 l 1,6,-1
 59 790 l 1,7,-1
 190 790 l 1,8,-1
 334 416 l 1,9,-1
 480 790 l 1,10,-1
 607 790 l 1,11,-1
 607 -2 l 1,12,-1
 497 -2 l 1,0,-1
EndSplineSet
Validated: 1
EndChar

StartChar: N
Encoding: 78 78 50
Width: 559
GlyphClass: 1
Flags: W
LayerCount: 2
Fore
SplineSet
371 -2 m 1,0,-1
 169 565 l 1,1,-1
 169 -2 l 1,2,-1
 59 -2 l 1,3,-1
 59 790 l 1,4,-1
 204 790 l 1,5,-1
 393 256 l 1,6,-1
 393 790 l 1,7,-1
 505 790 l 1,8,-1
 505 -2 l 1,9,-1
 371 -2 l 1,0,-1
EndSplineSet
Validated: 1
EndChar

StartChar: O
Encoding: 79 79 51
Width: 543
GlyphClass: 1
Flags: W
LayerCount: 2
Fore
SplineSet
271.5 806 m 128,-1,1
 510 806 510 806 510 395 c 0,2,3
 510 199 510 199 451.5 91 c 128,-1,4
 393 -17 393 -17 273 -17 c 0,5,6
 150 -17 150 -17 91.5 91 c 128,-1,7
 33 199 33 199 33 395 c 0,8,0
 33 806 33 806 271.5 806 c 128,-1,1
393 394.5 m 128,-1,10
 393 535 393 535 366 600 c 128,-1,11
 339 665 339 665 271.5 665 c 128,-1,12
 204 665 204 665 177 600 c 128,-1,13
 150 535 150 535 150 394.5 c 128,-1,14
 150 254 150 254 177.5 190.5 c 128,-1,15
 205 127 205 127 273 127 c 0,16,17
 339 127 339 127 366 190.5 c 128,-1,9
 393 254 393 254 393 394.5 c 128,-1,10
EndSplineSet
Validated: 1
EndChar

StartChar: P
Encoding: 80 80 52
Width: 490
GlyphClass: 1
Flags: W
LayerCount: 2
Fore
SplineSet
268 790 m 2,0,1
 464 790 464 790 464 525 c 0,2,3
 464 379 464 379 416.5 311.5 c 128,-1,4
 369 244 369 244 262 244 c 2,5,-1
 172 244 l 1,6,-1
 172 -2 l 1,7,-1
 59 -2 l 1,8,-1
 59 790 l 1,9,-1
 268 790 l 2,0,1
218 385 m 2,10,11
 295 385 295 385 321.5 410 c 128,-1,12
 348 435 348 435 348 524 c 0,13,14
 348 598 348 598 319.5 623.5 c 128,-1,15
 291 649 291 649 228 649 c 2,16,-1
 172 649 l 1,17,-1
 172 385 l 1,18,-1
 218 385 l 2,10,11
EndSplineSet
Validated: 1
EndChar

StartChar: Q
Encoding: 81 81 53
Width: 543
GlyphClass: 1
Flags: W
LayerCount: 2
Fore
SplineSet
403 -66 m 0,0,1
 444 -66 444 -66 485 -49 c 1,2,-1
 512 -179 l 1,3,4
 464 -199 464 -199 402 -200 c 0,5,6
 244 -200 244 -200 216 -11 c 1,7,8
 129 7 129 7 81 106.5 c 128,-1,9
 33 206 33 206 33 395 c 0,10,11
 33 808 33 808 276 806 c 0,12,13
 514 806 514 806 510 395 c 0,14,15
 509 47 509 47 339 -8 c 1,16,17
 344 -41 344 -41 358 -53.5 c 128,-1,18
 372 -66 372 -66 403 -66 c 0,0,1
393 395 m 0,19,20
 393 535 393 535 366 600 c 128,-1,21
 339 665 339 665 276 665 c 0,22,23
 209 665 209 665 179.5 600 c 128,-1,24
 150 535 150 535 150 394.5 c 128,-1,25
 150 254 150 254 177 190.5 c 128,-1,26
 204 127 204 127 272 127 c 128,-1,27
 340 127 340 127 366.5 191.5 c 128,-1,28
 393 256 393 256 393 395 c 0,19,20
EndSplineSet
Validated: 33
EndChar

StartChar: R
Encoding: 82 82 54
Width: 511
GlyphClass: 1
Flags: W
LayerCount: 2
Fore
SplineSet
467 556 m 0,0,1
 467 456 467 456 437.5 394.5 c 128,-1,2
 408 333 408 333 352 318 c 1,3,-1
 501 -2 l 1,4,-1
 370 -2 l 1,5,-1
 229 299 l 1,6,-1
 172 299 l 1,7,-1
 172 -2 l 1,8,-1
 59 -2 l 1,9,-1
 59 790 l 1,10,-1
 261 790 l 2,11,12
 365 790 365 790 416 738 c 128,-1,13
 467 686 467 686 467 556 c 0,0,1
352 549 m 0,14,15
 352 610 352 610 331 629.5 c 128,-1,16
 310 649 310 649 261 649 c 2,17,-1
 172 649 l 1,18,-1
 172 440 l 1,19,-1
 255 440 l 2,20,21
 308 440 308 440 330 462.5 c 128,-1,22
 352 485 352 485 352 549 c 0,14,15
EndSplineSet
Validated: 1
EndChar

StartChar: S
Encoding: 83 83 55
Width: 490
GlyphClass: 1
Flags: W
LayerCount: 2
Fore
SplineSet
240 665 m 0,0,1
 200 665 200 665 175.5 645 c 128,-1,2
 151 625 151 625 151 579 c 0,3,4
 151 539 151 539 179 521 c 0,5,6
 190 512 190 512 219.5 499.5 c 128,-1,7
 249 487 249 487 285.5 472.5 c 128,-1,8
 322 458 322 458 336 452 c 0,9,10
 393 426 393 426 425.5 374 c 128,-1,11
 458 322 458 322 458 228 c 0,12,13
 458 104 458 104 401.5 43.5 c 128,-1,14
 345 -17 345 -17 241 -17 c 0,15,16
 90 -17 90 -17 26 131 c 1,17,-1
 113 226 l 1,18,19
 138 174 138 174 166 150.5 c 128,-1,20
 194 127 194 127 245 127 c 0,21,22
 343 127 343 127 344 217 c 0,23,24
 344 267 344 267 307 292 c 0,25,26
 289 307 289 307 245 322 c 0,27,28
 240 325 240 325 229 327 c 0,29,30
 199 336 199 336 186 342.5 c 128,-1,31
 173 349 173 349 149 361.5 c 128,-1,32
 125 374 125 374 112.5 384 c 128,-1,33
 100 394 100 394 83 413 c 128,-1,34
 66 432 66 432 58 452.5 c 128,-1,35
 50 473 50 473 43.5 503 c 128,-1,36
 37 533 37 533 37 568 c 0,37,38
 37 687 37 687 92 746.5 c 128,-1,39
 147 806 147 806 241 806 c 0,40,41
 384 806 384 806 446 666 c 1,42,-1
 359 571 l 1,43,44
 338 618 338 618 310.5 641.5 c 128,-1,45
 283 665 283 665 240 665 c 0,0,1
EndSplineSet
Validated: 1
EndChar

StartChar: T
Encoding: 84 84 56
Width: 478
GlyphClass: 1
Flags: W
LayerCount: 2
Fore
SplineSet
299 643 m 1,0,-1
 299 -2 l 1,1,-1
 184 -2 l 1,2,-1
 184 643 l 1,3,-1
 15 643 l 1,4,-1
 15 790 l 1,5,-1
 469 790 l 1,6,-1
 469 643 l 1,7,-1
 299 643 l 1,0,-1
EndSplineSet
Validated: 1
EndChar

StartChar: U
Encoding: 85 85 57
Width: 571
GlyphClass: 1
Flags: W
LayerCount: 2
Fore
SplineSet
287.5 125 m 128,-1,1
 355 125 355 125 379 175.5 c 128,-1,2
 403 226 403 226 403 338 c 2,3,-1
 403 790 l 1,4,-1
 515 790 l 1,5,-1
 515 330 l 2,6,7
 515 146 515 146 463.5 64 c 128,-1,8
 412 -18 412 -18 289 -18 c 128,-1,9
 166 -18 166 -18 112.5 63 c 128,-1,10
 59 144 59 144 59 330 c 2,11,-1
 59 790 l 1,12,-1
 172 790 l 1,13,-1
 172 341 l 2,14,15
 172 230 172 230 196 177.5 c 128,-1,0
 220 125 220 125 287.5 125 c 128,-1,1
EndSplineSet
Validated: 1
EndChar

StartChar: V
Encoding: 86 86 58
Width: 492
GlyphClass: 1
Flags: W
LayerCount: 2
Fore
SplineSet
314 -2 m 1,0,-1
 181 -2 l 1,1,-1
 10 790 l 1,2,-1
 124 790 l 2,3,4
 125 790 125 790 251 200 c 1,5,-1
 374 790 l 1,6,-1
 485 790 l 1,7,-1
 314 -2 l 1,0,-1
EndSplineSet
Validated: 1
EndChar

StartChar: W
Encoding: 87 87 59
Width: 731
GlyphClass: 1
Flags: W
LayerCount: 2
Fore
SplineSet
571 -2 m 1,0,-1
 458 -2 l 1,1,2
 459 -2 459 -2 366 523 c 1,3,-1
 272 -2 l 1,4,-1
 158 -2 l 1,5,6
 159 -2 159 -2 18 790 c 1,7,-1
 131 790 l 1,8,-1
 216 275 l 1,9,10
 215 275 215 275 310 790 c 1,11,-1
 422 790 l 1,12,-1
 513 271 l 1,13,-1
 605 790 l 1,14,-1
 716 790 l 1,15,-1
 571 -2 l 1,0,-1
EndSplineSet
Validated: 37
EndChar

StartChar: X
Encoding: 88 88 60
Width: 511
GlyphClass: 1
Flags: W
LayerCount: 2
Fore
SplineSet
11 -2 m 1,0,-1
 196 396 l 1,1,-1
 18 790 l 1,2,-1
 146 790 l 1,3,-1
 260 524 l 1,4,-1
 379 790 l 1,5,-1
 503 790 l 1,6,-1
 322 400 l 1,7,-1
 502 -2 l 1,8,-1
 375 -2 l 1,9,-1
 256 273 l 1,10,-1
 135 -2 l 1,11,-1
 11 -2 l 1,0,-1
EndSplineSet
Validated: 1
EndChar

StartChar: Y
Encoding: 89 89 61
Width: 471
GlyphClass: 1
Flags: W
LayerCount: 2
Fore
SplineSet
293 301 m 1,0,-1
 293 -2 l 1,1,-1
 181 -2 l 1,2,-1
 181 299 l 1,3,-1
 5 790 l 1,4,-1
 131 790 l 1,5,-1
 240 461 l 1,6,-1
 348 790 l 1,7,-1
 469 790 l 1,8,-1
 293 301 l 1,0,-1
EndSplineSet
Validated: 1
EndChar

StartChar: Z
Encoding: 90 90 62
Width: 455
GlyphClass: 1
Flags: W
LayerCount: 2
Fore
SplineSet
30 -2 m 1,0,-1
 30 135 l 1,1,-1
 283 643 l 1,2,-1
 41 643 l 1,3,-1
 41 790 l 1,4,-1
 417 790 l 1,5,-1
 417 660 l 1,6,-1
 161 148 l 1,7,-1
 425 148 l 1,8,-1
 425 -2 l 1,9,-1
 30 -2 l 1,0,-1
EndSplineSet
Validated: 1
EndChar

StartChar: bracketleft
Encoding: 91 91 63
Width: 302
GlyphClass: 1
Flags: W
LayerCount: 2
Fore
SplineSet
61 -60 m 1,0,-1
 61 801 l 1,1,-1
 281 801 l 1,2,-1
 281 706 l 1,3,-1
 158 706 l 1,4,-1
 158 35 l 1,5,-1
 281 35 l 1,6,-1
 281 -60 l 1,7,-1
 61 -60 l 1,0,-1
EndSplineSet
Validated: 1
Substitution2: "'rtla' Right to Left Alternates lookup 0 subtable" bracketright
EndChar

StartChar: backslash
Encoding: 92 92 64
Width: 409
GlyphClass: 1
Flags: W
LayerCount: 2
Fore
SplineSet
318 -8 m 1,0,1
 319 -8 319 -8 41 823 c 0,2,3
 40 823 40 823 143 823 c 1,4,-1
 418 -8 l 1,5,-1
 318 -8 l 1,0,1
EndSplineSet
Validated: 37
EndChar

StartChar: bracketright
Encoding: 93 93 65
Width: 302
GlyphClass: 1
Flags: W
LayerCount: 2
Fore
SplineSet
25 -60 m 1,0,-1
 25 35 l 1,1,-1
 147 35 l 1,2,-1
 147 706 l 1,3,-1
 25 706 l 1,4,-1
 25 801 l 1,5,-1
 245 801 l 1,6,-1
 245 -60 l 1,7,-1
 25 -60 l 1,0,-1
EndSplineSet
Validated: 1
Substitution2: "'rtla' Right to Left Alternates lookup 0 subtable" bracketleft
EndChar

StartChar: asciicircum
Encoding: 94 94 66
Width: 514
GlyphClass: 1
Flags: W
LayerCount: 2
Fore
SplineSet
383 338 m 1,0,-1
 261 657 l 1,1,-1
 136 338 l 1,2,-1
 50 338 l 1,3,-1
 223 790 l 1,4,-1
 299 790 l 1,5,-1
 471 338 l 1,6,-1
 383 338 l 1,0,-1
EndSplineSet
Validated: 1
EndChar

StartChar: underscore
Encoding: 95 95 67
Width: 408
GlyphClass: 1
Flags: W
LayerCount: 2
Fore
SplineSet
-5 -145 m 1,0,-1
 -5 -88 l 1,1,-1
 416 -88 l 1,2,-1
 416 -145 l 1,3,-1
 -5 -145 l 1,0,-1
EndSplineSet
Validated: 1
EndChar

StartChar: grave
Encoding: 96 96 68
Width: 413
GlyphClass: 1
Flags: W
LayerCount: 2
Fore
SplineSet
198 689 m 2,0,1
 197 689 197 689 77 895 c 1,2,-1
 204 895 l 1,3,-1
 279 689 l 1,4,-1
 198 689 l 2,0,1
EndSplineSet
Validated: 1
EndChar

StartChar: a
Encoding: 97 97 69
Width: 454
GlyphClass: 1
Flags: W
LayerCount: 2
Fore
SplineSet
216 615 m 4,0,1
 310 615 310 615 355.5 569.5 c 132,-1,2
 401 524 401 524 401 407 c 6,3,-1
 401 -2 l 5,4,-1
 306 -2 l 5,5,-1
 306 62 l 5,6,7
 245 -18 245 -18 173 -18 c 4,8,9
 109 -18 109 -18 71 31.5 c 132,-1,10
 33 81 33 81 33 169 c 4,11,12
 33 223 33 223 45.5 261.5 c 132,-1,13
 58 300 58 300 83.5 323 c 132,-1,14
 109 346 109 346 137 356 c 4,15,16
 167 367 167 367 207 374 c 6,17,-1
 299 385 l 5,18,-1
 299 411 l 6,19,20
 299 463 299 463 277 481 c 132,-1,21
 255 499 255 499 215 499 c 4,22,23
 147 499 147 499 121 437 c 5,24,-1
 41 510 l 5,25,26
 84 615 84 615 216 615 c 4,0,1
140 170 m 4,27,28
 140 98 140 98 198 98 c 4,29,30
 216 98 216 98 244 115.5 c 132,-1,31
 272 133 272 133 299 163 c 5,32,-1
 299 278 l 5,33,-1
 245 271 l 6,34,35
 220 267 220 267 204 263 c 132,-1,36
 188 259 188 259 172.5 248 c 132,-1,37
 157 237 157 237 148.5 218.5 c 132,-1,38
 140 200 140 200 140 170 c 4,27,28
EndSplineSet
Validated: 1
EndChar

StartChar: b
Encoding: 98 98 70
Width: 482
GlyphClass: 1
Flags: W
LayerCount: 2
Fore
SplineSet
286 615 m 0,0,1
 448 615 448 615 450 304 c 0,2,3
 450 161 450 161 408 71.5 c 128,-1,4
 366 -18 366 -18 281 -18 c 0,5,6
 248 -18 248 -18 208.5 5 c 128,-1,7
 169 28 169 28 150 56 c 1,8,-1
 136 -2 l 1,9,-1
 58 -2 l 1,10,-1
 58 850 l 1,11,-1
 161 850 l 1,12,-1
 161 551 l 1,13,14
 218 615 218 615 286 615 c 0,0,1
251 111 m 0,15,16
 299 111 299 111 321.5 163.5 c 128,-1,17
 344 216 344 216 344 301 c 0,18,19
 344 389 344 389 324 438 c 128,-1,20
 304 487 304 487 257 487 c 0,21,22
 205 487 205 487 161 428 c 1,23,-1
 161 165 l 1,24,25
 207 111 207 111 251 111 c 0,15,16
EndSplineSet
Validated: 1
EndChar

StartChar: c
Encoding: 99 99 71
Width: 419
GlyphClass: 1
Flags: W
LayerCount: 2
Fore
SplineSet
245 111 m 0,0,1
 275 111 275 111 292.5 123 c 128,-1,2
 310 135 310 135 326 163 c 1,3,-1
 403 85 l 1,4,5
 355 -19 355 -19 241 -18 c 0,6,7
 37 -18 37 -18 37 296 c 0,8,9
 37 447 37 447 87 531 c 128,-1,10
 137 615 137 615 240 615 c 0,11,12
 356 615 356 615 398 514 c 0,13,14
 399 514 399 514 322 435 c 1,15,16
 295 488 295 488 241 488 c 128,-1,17
 187 488 187 488 165 440 c 128,-1,18
 143 392 143 392 143 299 c 0,19,20
 143 204 143 204 165.5 157.5 c 128,-1,21
 188 111 188 111 245 111 c 0,0,1
EndSplineSet
Validated: 33
EndChar

StartChar: d
Encoding: 100 100 72
Width: 482
GlyphClass: 1
Flags: W
LayerCount: 2
Fore
SplineSet
214 615 m 0,0,1
 245 615 245 615 276 597 c 128,-1,2
 307 579 307 579 325 555 c 1,3,-1
 325 850 l 1,4,-1
 427 850 l 1,5,-1
 427 -2 l 1,6,7
 426 -2 426 -2 334 -2 c 1,8,-1
 334 58 l 1,9,10
 271 -19 271 -19 200 -18 c 0,11,12
 117 -18 117 -18 77 67.5 c 128,-1,13
 37 153 37 153 37 295 c 0,14,15
 37 441 37 441 81.5 528 c 128,-1,16
 126 615 126 615 214 615 c 0,0,1
228 111 m 0,17,18
 254 111 254 111 280.5 129.5 c 128,-1,19
 307 148 307 148 325 170 c 1,20,-1
 325 432 l 1,21,22
 284 485 284 485 235 487 c 0,23,24
 191 487 191 487 167 432.5 c 128,-1,25
 143 378 143 378 143 297 c 0,26,27
 141 111 141 111 228 111 c 0,17,18
EndSplineSet
Validated: 33
EndChar

StartChar: e
Encoding: 101 101 73
Width: 455
GlyphClass: 1
Flags: W
LayerCount: 2
Fore
SplineSet
240 615 m 0,0,1
 330 615 330 615 375 543 c 0,2,3
 422 468 422 468 422 332 c 2,4,-1
 422 261 l 1,5,-1
 143 261 l 1,6,7
 146 183 146 183 169.5 147 c 128,-1,8
 193 111 193 111 247 111 c 0,9,10
 311 111 311 111 340 163 c 1,11,-1
 417 85 l 1,12,13
 390 31 390 31 350 6.5 c 128,-1,14
 310 -18 310 -18 241 -18 c 0,15,16
 37 -18 37 -18 37 295 c 0,17,18
 38 615 38 615 240 615 c 0,0,1
319 362 m 1,19,20
 319 498 319 498 236 499 c 0,21,22
 192 499 192 499 173 467 c 0,23,24
 152 435 152 435 146 362 c 1,25,-1
 319 362 l 1,19,20
EndSplineSet
Validated: 1
EndChar

StartChar: f
Encoding: 102 102 74
Width: 259
GlyphClass: 1
Flags: W
LayerCount: 2
Fore
SplineSet
66 657 m 6,0,1
 66 768 66 768 104.5 818 c 132,-1,2
 143 868 143 868 223 868 c 4,3,4
 260 868 260 868 299 854 c 5,5,-1
 279 724 l 5,6,7
 249 739 249 739 224 739 c 4,8,9
 194 739 194 739 181.5 720.5 c 132,-1,10
 169 702 169 702 169 657 c 6,11,-1
 169 599 l 5,12,-1
 255 599 l 5,13,-1
 255 481 l 5,14,-1
 169 481 l 5,15,-1
 169 -2 l 5,16,-1
 66 -2 l 5,17,-1
 66 481 l 5,18,-1
 15 481 l 5,19,-1
 15 599 l 5,20,-1
 66 599 l 5,21,-1
 66 657 l 6,0,1
EndSplineSet
Validated: 1
EndChar

StartChar: g
Encoding: 103 103 75
Width: 482
GlyphClass: 1
Flags: W
LayerCount: 2
Fore
SplineSet
215 615 m 4,0,1
 248 615 248 615 281 594 c 132,-1,2
 314 573 314 573 335 543 c 5,3,-1
 349 599 l 5,4,-1
 427 599 l 5,5,-1
 427 12 l 6,6,7
 427 -118 427 -118 372.5 -172.5 c 132,-1,8
 318 -227 318 -227 213 -227 c 4,9,10
 120 -227 120 -227 47 -175 c 5,11,-1
 77 -54 l 5,12,13
 141 -97 141 -97 213 -97 c 4,14,15
 272 -97 272 -97 299 -74 c 4,16,17
 325 -49 325 -49 325 18 c 6,18,-1
 325 66 l 5,19,20
 273 0 273 0 202 -2 c 4,21,22
 120 -2 120 -2 78.5 82.5 c 132,-1,23
 37 167 37 167 37 305 c 4,24,25
 37 398 37 398 57.5 469.5 c 132,-1,26
 78 541 78 541 118.5 578 c 132,-1,27
 159 615 159 615 215 615 c 4,0,1
233 487 m 4,28,29
 192 487 192 487 167.5 433 c 132,-1,30
 143 379 143 379 143 307 c 4,31,32
 143 217 143 217 166.5 173 c 132,-1,33
 190 129 190 129 226 129 c 4,34,35
 278 129 278 129 325 187 c 5,36,-1
 325 432 l 5,37,38
 285 487 285 487 233 487 c 4,28,29
EndSplineSet
Validated: 1
EndChar

StartChar: h
Encoding: 104 104 76
Width: 482
GlyphClass: 1
Flags: W
LayerCount: 2
Fore
SplineSet
304 615 m 0,0,1
 372 615 372 615 401.5 560.5 c 128,-1,2
 431 506 431 506 431 400 c 2,3,-1
 431 -2 l 1,4,-1
 329 -2 l 1,5,-1
 329 330 l 2,6,7
 329 424 329 424 316.5 455.5 c 128,-1,8
 304 487 304 487 272 487 c 0,9,10
 226 487 226 487 161 400 c 1,11,-1
 161 -2 l 1,12,-1
 58 -2 l 1,13,-1
 58 850 l 1,14,-1
 161 850 l 1,15,-1
 161 521 l 1,16,17
 227 615 227 615 304 615 c 0,0,1
EndSplineSet
Validated: 1
EndChar

StartChar: i
Encoding: 105 105 77
Width: 216
GlyphClass: 1
Flags: W
LayerCount: 2
Fore
SplineSet
110 837 m 0,0,1
 141 837 141 837 154.5 820 c 128,-1,2
 168 803 168 803 168 762.5 c 128,-1,3
 168 722 168 722 153.5 705 c 128,-1,4
 139 688 139 688 108.5 688 c 128,-1,5
 78 688 78 688 65.5 705.5 c 128,-1,6
 53 723 53 723 53 761 c 0,7,8
 53 802 53 802 66.5 819.5 c 128,-1,9
 80 837 80 837 110 837 c 0,0,1
58 -2 m 1,10,-1
 58 599 l 1,11,-1
 161 599 l 1,12,-1
 161 -2 l 1,13,-1
 58 -2 l 1,10,-1
EndSplineSet
Validated: 1
EndChar

StartChar: j
Encoding: 106 106 78
Width: 315
GlyphClass: 1
Flags: W
LayerCount: 2
Fore
SplineSet
207 837 m 0,0,1
 238 837 238 837 252 820 c 128,-1,2
 266 803 266 803 266 762.5 c 128,-1,3
 266 722 266 722 253 705 c 128,-1,4
 240 688 240 688 209 688 c 128,-1,5
 178 688 178 688 164.5 705.5 c 128,-1,6
 151 723 151 723 151 761 c 0,7,8
 151 802 151 802 164 819.5 c 128,-1,9
 177 837 177 837 207 837 c 0,0,1
261 -26 m 2,10,11
 261 -135 261 -135 227 -181 c 128,-1,12
 193 -227 193 -227 116 -227 c 0,13,14
 98 -227 98 -227 69 -221 c 0,15,16
 39 -216 39 -216 30 -208 c 1,17,-1
 52 -82 l 1,18,19
 82 -100 82 -100 112.5 -98.5 c 128,-1,20
 143 -97 143 -97 150.5 -69.5 c 128,-1,21
 158 -42 158 -42 158 21 c 2,22,-1
 158 599 l 1,23,-1
 261 599 l 1,24,-1
 261 -26 l 2,10,11
EndSplineSet
Validated: 33
EndChar

StartChar: k
Encoding: 107 107 79
Width: 435
GlyphClass: 1
Flags: W
LayerCount: 2
Fore
SplineSet
313 -2 m 5,0,-1
 202 248 l 5,1,-1
 161 186 l 5,2,-1
 161 -2 l 5,3,-1
 58 -2 l 5,4,-1
 58 850 l 5,5,-1
 161 850 l 5,6,-1
 161 363 l 5,7,-1
 302 599 l 5,8,-1
 422 599 l 5,9,-1
 262 347 l 5,10,-1
 429 -2 l 5,11,-1
 313 -2 l 5,0,-1
EndSplineSet
Validated: 1
EndChar

StartChar: l
Encoding: 108 108 80
Width: 216
GlyphClass: 1
Flags: W
LayerCount: 2
Fore
SplineSet
58 164 m 6,0,-1
 58 850 l 5,1,-1
 161 850 l 5,2,-1
 161 164 l 6,3,4
 161 139 161 139 172.5 130.5 c 132,-1,5
 184 122 184 122 220 116 c 5,6,-1
 157 -2 l 5,7,8
 103 -2 103 -2 80 39 c 4,9,10
 58 82 58 82 58 164 c 6,0,-1
EndSplineSet
Validated: 1
EndChar

StartChar: m
Encoding: 109 109 81
Width: 712
GlyphClass: 1
Flags: W
LayerCount: 2
Fore
SplineSet
543 615 m 0,0,1
 607 615 607 615 634.5 562.5 c 128,-1,2
 662 510 662 510 662 400 c 2,3,-1
 662 -2 l 1,4,-1
 558 -2 l 1,5,-1
 558 353 l 2,6,7
 558 403 558 403 555 433 c 128,-1,8
 552 463 552 463 539 476 c 0,9,10
 530 486 530 486 508 487 c 0,11,12
 485 487 485 487 459.5 461.5 c 128,-1,13
 434 436 434 436 412 400 c 1,14,-1
 412 -2 l 1,15,-1
 308 -2 l 1,16,-1
 308 353 l 2,17,18
 308 411 308 411 304 437 c 0,19,20
 300 464 300 464 291 475.5 c 128,-1,21
 282 487 282 487 261 487 c 0,22,23
 243 487 243 487 217.5 465 c 128,-1,24
 192 443 192 443 161 400 c 1,25,-1
 161 -2 l 1,26,-1
 58 -2 l 1,27,-1
 58 599 l 1,28,-1
 161 599 l 1,29,-1
 161 521 l 1,30,31
 191 565 191 565 221 590 c 128,-1,32
 251 615 251 615 291 615 c 0,33,34
 341 615 341 615 366.5 591.5 c 128,-1,35
 392 568 392 568 403 514 c 1,36,37
 439 567 439 567 470.5 591 c 128,-1,38
 502 615 502 615 543 615 c 0,0,1
EndSplineSet
Validated: 1
EndChar

StartChar: n
Encoding: 110 110 82
Width: 482
GlyphClass: 1
Flags: W
LayerCount: 2
Fore
SplineSet
304 615 m 0,0,1
 372 615 372 615 401.5 562 c 128,-1,2
 431 509 431 509 431 400 c 2,3,-1
 431 -2 l 1,4,-1
 329 -2 l 1,5,-1
 329 330 l 2,6,7
 329 423 329 423 316.5 455 c 128,-1,8
 304 487 304 487 272 487 c 0,9,10
 226 487 226 487 161 400 c 1,11,-1
 161 -2 l 1,12,-1
 58 -2 l 1,13,-1
 58 599 l 1,14,-1
 161 599 l 1,15,-1
 161 521 l 1,16,17
 227 615 227 615 304 615 c 0,0,1
EndSplineSet
Validated: 1
EndChar

StartChar: o
Encoding: 111 111 83
Width: 471
GlyphClass: 1
Flags: W
LayerCount: 2
Fore
SplineSet
238 615 m 132,-1,1
 439 615 439 615 439 299 c 4,2,3
 439 -18 439 -18 240 -18 c 4,4,5
 38 -18 38 -18 37 299 c 4,6,0
 37 615 37 615 238 615 c 132,-1,1
240 111 m 132,-1,8
 293 111 293 111 313.5 158.5 c 132,-1,9
 334 206 334 206 334 299 c 4,10,11
 334 393 334 393 312.5 440.5 c 132,-1,12
 291 488 291 488 237.5 488 c 132,-1,13
 184 488 184 488 163.5 439 c 132,-1,14
 143 390 143 390 143 298 c 132,-1,15
 143 206 143 206 165 158.5 c 132,-1,7
 187 111 187 111 240 111 c 132,-1,8
EndSplineSet
Validated: 1
EndChar

StartChar: p
Encoding: 112 112 84
Width: 482
GlyphClass: 1
Flags: W
LayerCount: 2
Fore
SplineSet
286 615 m 4,0,1
 371 615 371 615 410.5 531 c 132,-1,2
 450 447 450 447 450 304 c 4,3,4
 450 209 450 209 429 134 c 132,-1,5
 408 59 408 59 371 20.5 c 132,-1,6
 334 -18 334 -18 279 -18 c 4,7,8
 210 -18 210 -18 161 45 c 5,9,-1
 161 -227 l 5,10,-1
 58 -227 l 5,11,-1
 58 599 l 5,12,-1
 153 599 l 5,13,-1
 153 541 l 5,14,15
 214 615 214 615 286 615 c 4,0,1
251 111 m 4,16,17
 295 111 295 111 319.5 166 c 132,-1,18
 344 221 344 221 344 301 c 4,19,20
 344 384 344 384 324 435.5 c 132,-1,21
 304 487 304 487 259 487 c 4,22,23
 233 487 233 487 206 469 c 132,-1,24
 179 451 179 451 161 428 c 5,25,-1
 161 165 l 5,26,27
 203 111 203 111 251 111 c 4,16,17
EndSplineSet
Validated: 1
EndChar

StartChar: q
Encoding: 113 113 85
Width: 482
GlyphClass: 1
Flags: W
LayerCount: 2
Fore
SplineSet
213 615 m 0,0,1
 248 615 248 615 281 594 c 128,-1,2
 314 573 314 573 335 543 c 1,3,-1
 349 599 l 1,4,-1
 427 599 l 1,5,-1
 427 -227 l 1,6,-1
 325 -227 l 1,7,-1
 325 48 l 1,8,9
 269 -18 269 -18 200 -18 c 0,10,11
 115 -18 115 -18 76 66.5 c 128,-1,12
 37 151 37 151 37 295 c 0,13,14
 37 441 37 441 81 528 c 128,-1,15
 125 615 125 615 213 615 c 0,0,1
228 111 m 0,16,17
 254 111 254 111 280.5 129.5 c 128,-1,18
 307 148 307 148 325 170 c 1,19,-1
 325 432 l 1,20,21
 284 485 284 485 235 487 c 0,22,23
 191 487 191 487 167 432.5 c 128,-1,24
 143 378 143 378 143 297 c 0,25,26
 141 111 141 111 228 111 c 0,16,17
EndSplineSet
Validated: 33
EndChar

StartChar: r
Encoding: 114 114 86
Width: 333
GlyphClass: 1
Flags: W
LayerCount: 2
Fore
SplineSet
310 456 m 1,0,1
 292 467 292 467 270 467 c 0,2,3
 240 467 240 467 214.5 446 c 128,-1,4
 189 425 189 425 161 389 c 1,5,-1
 161 -2 l 1,6,-1
 58 -2 l 1,7,-1
 58 599 l 1,8,-1
 161 599 l 1,9,-1
 161 514 l 1,10,11
 187 555 187 555 218 581.5 c 128,-1,12
 249 608 249 608 286 608 c 0,13,14
 318 608 318 608 334 597 c 1,15,-1
 310 456 l 1,0,1
EndSplineSet
Validated: 1
EndChar

StartChar: s
Encoding: 115 115 87
Width: 334
GlyphClass: 1
Flags: W
LayerCount: 2
Fore
SplineSet
190 520 m 4,0,1
 160 520 160 520 141.5 506 c 132,-1,2
 123 492 123 492 123 463 c 4,3,4
 123 440 123 440 139.5 425.5 c 132,-1,5
 156 411 156 411 198 396 c 4,6,7
 270 371 270 371 299 346 c 4,8,9
 363 294 363 294 361 194 c 4,10,11
 361 101 361 101 314.5 52.5 c 132,-1,12
 268 4 268 4 193 4 c 4,13,14
 60 4 60 4 15 110 c 5,15,-1
 90 186 l 5,16,17
 121 125 121 125 188 127 c 4,18,19
 263 127 263 127 261 186 c 4,20,21
 261 213 261 213 239.5 228 c 132,-1,22
 218 243 218 243 173 259 c 4,23,24
 90 285 90 285 56.5 332.5 c 132,-1,25
 23 380 23 380 23 457 c 4,26,27
 23 545 23 545 69 592 c 132,-1,28
 115 639 115 639 192 639 c 4,29,30
 249 639 249 639 291.5 613 c 132,-1,31
 334 587 334 587 357 536 c 5,32,-1
 279 458 l 5,33,34
 253 520 253 520 190 520 c 4,0,1
EndSplineSet
Validated: 33
EndChar

StartChar: t
Encoding: 116 116 88
Width: 291
GlyphClass: 1
Flags: W
LayerCount: 2
Fore
SplineSet
169 199 m 2,0,1
 169 149 169 149 179.5 126.5 c 128,-1,2
 190 104 190 104 216 104 c 0,3,4
 246 104 246 104 272 121 c 1,5,-1
 289 -2 l 1,6,7
 248 -20 248 -20 203 -18 c 0,8,9
 129 -18 129 -18 96.5 28.5 c 128,-1,10
 64 75 64 75 64 182 c 2,11,-1
 64 481 l 1,12,-1
 11 481 l 1,13,-1
 11 599 l 1,14,-1
 64 599 l 1,15,16
 64 600 64 600 64 767 c 1,17,-1
 169 767 l 1,18,-1
 169 599 l 1,19,-1
 266 599 l 1,20,-1
 266 481 l 1,21,-1
 169 481 l 1,22,-1
 169 199 l 2,0,1
EndSplineSet
Validated: 33
EndChar

StartChar: u
Encoding: 117 117 89
Width: 482
GlyphClass: 1
Flags: W
LayerCount: 2
Fore
SplineSet
181 -18 m 0,0,1
 112 -18 112 -18 83 37 c 128,-1,2
 54 92 54 92 54 197 c 2,3,-1
 54 599 l 1,4,-1
 158 599 l 1,5,-1
 158 268 l 2,6,7
 158 238 158 238 158 225 c 128,-1,8
 158 212 158 212 159.5 189.5 c 128,-1,9
 161 167 161 167 165 155.5 c 128,-1,10
 169 144 169 144 175 133 c 128,-1,11
 181 122 181 122 191.5 116.5 c 128,-1,12
 202 111 202 111 215 111 c 0,13,14
 261 111 261 111 325 197 c 1,15,-1
 325 599 l 1,16,-1
 427 599 l 1,17,-1
 427 -2 l 1,18,-1
 325 -2 l 1,19,-1
 325 76 l 1,20,21
 300 36 300 36 261 9 c 128,-1,22
 222 -18 222 -18 181 -18 c 0,0,1
EndSplineSet
Validated: 1
EndChar

StartChar: v
Encoding: 118 118 90
Width: 410
GlyphClass: 1
Flags: W
LayerCount: 2
Fore
SplineSet
255 -2 m 1,0,-1
 158 -2 l 1,1,-1
 10 599 l 1,2,-1
 115 599 l 1,3,4
 115 600 115 600 209 206 c 1,5,-1
 302 599 l 1,6,-1
 403 599 l 1,7,-1
 255 -2 l 1,0,-1
EndSplineSet
Validated: 33
EndChar

StartChar: w
Encoding: 119 119 91
Width: 622
GlyphClass: 1
Flags: W
LayerCount: 2
Fore
SplineSet
503 -2 m 1,0,-1
 408 -2 l 1,1,-1
 314 380 l 1,2,-1
 220 -2 l 1,3,-1
 124 -2 l 1,4,-1
 10 599 l 1,5,-1
 119 599 l 1,6,-1
 181 212 l 1,7,-1
 277 599 l 1,8,-1
 356 599 l 1,9,10
 356 598 356 598 450 216 c 1,11,-1
 512 599 l 1,12,-1
 615 599 l 1,13,-1
 503 -2 l 1,0,-1
EndSplineSet
Validated: 1
EndChar

StartChar: x
Encoding: 120 120 92
Width: 429
GlyphClass: 1
Flags: W
LayerCount: 2
Fore
SplineSet
299 -2 m 1,0,-1
 215 191 l 2,1,2
 214 191 214 191 125 -2 c 1,3,-1
 11 -2 l 1,4,-1
 158 296 l 1,5,-1
 16 599 l 1,6,7
 17 599 17 599 135 599 c 1,8,-1
 218 409 l 1,9,-1
 304 599 l 1,10,-1
 418 599 l 1,11,-1
 276 304 l 1,12,-1
 418 -2 l 1,13,-1
 299 -2 l 1,0,-1
EndSplineSet
Validated: 1
EndChar

StartChar: y
Encoding: 121 121 93
Width: 481
GlyphClass: 1
Flags: W
LayerCount: 2
Fore
SplineSet
41 -82 m 5,0,1
 74 -100 74 -100 103 -97 c 4,2,3
 126 -97 126 -97 143 -76 c 4,4,5
 161 -56 161 -56 181 4 c 6,6,-1
 192 41 l 5,7,-1
 40 599 l 5,8,-1
 146 599 l 6,9,10
 147 598 147 598 246 216 c 5,11,-1
 345 599 l 5,12,-1
 450 599 l 5,13,14
 450 598 450 598 272 -42 c 4,15,16
 250 -119 250 -119 228 -155 c 4,17,18
 207 -191 207 -191 180 -209 c 132,-1,19
 153 -227 153 -227 111 -227 c 4,20,21
 65 -227 65 -227 20 -208 c 5,22,-1
 41 -82 l 5,0,1
EndSplineSet
Validated: 33
EndChar

StartChar: z
Encoding: 122 122 94
Width: 368
GlyphClass: 1
Flags: W
LayerCount: 2
Fore
SplineSet
23 -2 m 1,0,-1
 23 107 l 1,1,-1
 218 481 l 1,2,-1
 30 481 l 1,3,-1
 30 599 l 1,4,-1
 344 599 l 1,5,-1
 344 492 l 1,6,-1
 146 116 l 1,7,-1
 348 116 l 1,8,-1
 348 -2 l 1,9,-1
 23 -2 l 1,0,-1
EndSplineSet
Validated: 1
EndChar

StartChar: braceleft
Encoding: 123 123 95
Width: 361
GlyphClass: 1
Flags: W
LayerCount: 2
Fore
SplineSet
245 133 m 2,0,1
 245 79 245 79 261.5 57.5 c 128,-1,2
 278 36 278 36 325 36 c 2,3,-1
 342 36 l 1,4,-1
 342 -60 l 1,5,-1
 313 -60 l 2,6,7
 226 -60 226 -60 186.5 -14 c 128,-1,8
 147 32 147 32 147 128 c 2,9,-1
 147 192 l 2,10,11
 147 255 147 255 125 292.5 c 128,-1,12
 103 330 103 330 56 330 c 1,13,14
 57 330 57 330 41 330 c 1,15,-1
 41 431 l 1,16,-1
 56 431 l 2,17,18
 103 431 103 431 125 467.5 c 128,-1,19
 147 504 147 504 147 568 c 2,20,-1
 147 631 l 2,21,22
 147 725 147 725 187.5 771 c 128,-1,23
 228 817 228 817 313 817 c 2,24,-1
 342 817 l 1,25,-1
 342 723 l 1,26,-1
 325 723 l 2,27,28
 278 723 278 723 261.5 701.5 c 128,-1,29
 245 680 245 680 245 625 c 2,30,-1
 245 549 l 2,31,32
 245 486 245 486 219 443 c 128,-1,33
 193 400 193 400 147 379 c 1,34,35
 188 361 188 361 216.5 316 c 128,-1,36
 245 271 245 271 245 210 c 2,37,-1
 245 133 l 2,0,1
EndSplineSet
Validated: 1
Substitution2: "'rtla' Right to Left Alternates lookup 0 subtable" braceright
EndChar

StartChar: bar
Encoding: 124 124 96
Width: 316
GlyphClass: 1
Flags: W
LayerCount: 2
Fore
SplineSet
111 -60 m 1,0,-1
 111 817 l 1,1,-1
 207 817 l 1,2,-1
 207 -60 l 1,3,-1
 111 -60 l 1,0,-1
EndSplineSet
Validated: 1
EndChar

StartChar: braceright
Encoding: 125 125 97
Width: 361
GlyphClass: 1
Flags: W
LayerCount: 2
Fore
SplineSet
216 128 m 2,0,1
 216 34 216 34 176.5 -13 c 128,-1,2
 137 -60 137 -60 53 -60 c 2,3,-1
 25 -60 l 1,4,-1
 25 36 l 1,5,6
 26 36 26 36 41 36 c 0,7,8
 88 36 88 36 105.5 58 c 128,-1,9
 123 80 123 80 123 133 c 2,10,-1
 123 210 l 2,11,12
 123 273 123 273 149.5 317.5 c 128,-1,13
 176 362 176 362 216 379 c 1,14,15
 172 401 172 401 147.5 444 c 128,-1,16
 123 487 123 487 123 549 c 2,17,-1
 123 625 l 2,18,19
 123 679 123 679 105.5 701 c 128,-1,20
 88 723 88 723 41 723 c 2,21,-1
 25 723 l 1,22,-1
 25 817 l 1,23,24
 24 817 24 817 53 817 c 0,25,26
 140 817 140 817 178 771 c 128,-1,27
 216 725 216 725 216 631 c 2,28,-1
 216 568 l 2,29,30
 216 505 216 505 239 468 c 128,-1,31
 262 431 262 431 310 431 c 2,32,-1
 325 431 l 1,33,-1
 325 330 l 1,34,-1
 310 330 l 2,35,36
 264 330 264 330 240 291.5 c 128,-1,37
 216 253 216 253 216 192 c 2,38,-1
 216 128 l 2,0,1
EndSplineSet
Validated: 1
Substitution2: "'rtla' Right to Left Alternates lookup 0 subtable" braceleft
EndChar

StartChar: asciitilde
Encoding: 126 126 98
Width: 549
GlyphClass: 1
Flags: W
LayerCount: 2
Fore
SplineSet
57 463 m 1,0,1
 97 510 97 510 137 525 c 0,2,3
 155 532 155 532 184 533 c 0,4,5
 224 533 224 533 286 488 c 0,6,7
 309 470 309 470 330 456 c 0,8,9
 351 441 351 441 371 442 c 0,10,11
 402 442 402 442 432 464 c 128,-1,12
 462 486 462 486 497 525 c 1,13,-1
 497 400 l 1,14,15
 470 370 470 370 441 348 c 128,-1,16
 412 326 412 326 374 326 c 0,17,18
 333 326 333 326 270 369 c 0,19,20
 247 387 247 387 224.5 401.5 c 128,-1,21
 202 416 202 416 181 416 c 0,22,23
 144 416 144 416 113.5 389.5 c 128,-1,24
 83 363 83 363 57 331 c 1,25,-1
 57 463 l 1,0,1
EndSplineSet
Validated: 33
EndChar

StartChar: exclamdown
Encoding: 161 161 100
Width: 231
GlyphClass: 1
Flags: W
LayerCount: 2
Fore
SplineSet
115.5 633 m 128,-1,1
 151 633 151 633 166 612.5 c 128,-1,2
 181 592 181 592 181 545 c 0,3,4
 181 495 181 495 166 476 c 128,-1,5
 151 457 151 457 115 457 c 0,6,7
 80 457 80 457 66.5 477 c 128,-1,8
 53 497 53 497 53 544.5 c 128,-1,9
 53 592 53 592 66.5 612.5 c 128,-1,0
 80 633 80 633 115.5 633 c 128,-1,1
61 -227 m 1,10,-1
 77 379 l 1,11,-1
 160 379 l 1,12,-1
 172 -227 l 1,13,-1
 61 -227 l 1,10,-1
EndSplineSet
Validated: 1
EndChar

StartChar: cent
Encoding: 162 162 101
Width: 419
GlyphClass: 1
Flags: W
LayerCount: 2
Fore
SplineSet
403 85 m 1,0,1
 355 -19 355 -19 241 -18 c 1,2,-1
 220 -17 l 1,3,-1
 200 -149 l 2,4,5
 199 -149 199 -149 125 -149 c 1,6,-1
 150 3 l 1,7,8
 37 66 37 66 37 296 c 0,9,10
 37 447 37 447 87 531 c 128,-1,11
 137 615 137 615 240 615 c 2,12,-1
 246 615 l 1,13,-1
 262 735 l 1,14,-1
 336 735 l 1,15,-1
 315 600 l 1,16,17
 373 570 373 570 398 514 c 0,18,19
 399 514 399 514 322 435 c 1,20,21
 312 455 312 455 297 469 c 1,22,-1
 240 111 l 1,23,-1
 245 111 l 2,24,25
 298 111 298 111 326 163 c 1,26,-1
 403 85 l 1,0,1
226 487 m 1,27,28
 179 482 179 482 161 434.5 c 128,-1,29
 143 387 143 387 143 299 c 0,30,31
 143 188 143 188 172 143 c 1,32,-1
 226 487 l 1,27,28
EndSplineSet
Validated: 33
EndChar

StartChar: sterling
Encoding: 163 163 102
Width: 509
GlyphClass: 1
Flags: W
LayerCount: 2
Fore
SplineSet
285 683 m 0,0,1
 241 683 241 683 216.5 654.5 c 128,-1,2
 192 626 192 626 192 570 c 0,3,4
 192 529 192 529 207 453 c 1,5,-1
 214 431 l 1,6,-1
 366 431 l 1,7,-1
 366 322 l 1,8,9
 365 322 365 322 216 322 c 1,10,11
 216 195 216 195 169 137 c 1,12,-1
 484 137 l 1,13,-1
 484 -2 l 1,14,-1
 41 -2 l 1,15,-1
 41 122 l 1,16,17
 89 135 89 135 103 217 c 0,18,19
 108 254 108 254 111 322 c 1,20,-1
 52 322 l 1,21,-1
 52 431 l 1,22,-1
 105 431 l 1,23,-1
 100 456 l 2,24,25
 82 530 82 530 83 586 c 0,26,27
 83 697 83 697 138.5 751.5 c 128,-1,28
 194 806 194 806 285 806 c 0,29,30
 422 806 422 806 475 676 c 1,31,-1
 391 602 l 1,32,33
 375 637 375 637 346.5 660 c 128,-1,34
 318 683 318 683 285 683 c 0,0,1
EndSplineSet
Validated: 33
EndChar

StartChar: currency
Encoding: 164 164 103
Width: 509
GlyphClass: 1
Flags: W
LayerCount: 2
Fore
SplineSet
255 613 m 256,0,1
 308 613 308 613 349 573 c 1,2,-1
 405 650 l 1,3,-1
 456 579 l 1,4,-1
 398 502 l 1,5,6
 428 439 428 439 427.5 369 c 128,-1,7
 427 299 427 299 398 238 c 1,8,-1
 456 160 l 1,9,-1
 405 87 l 1,10,-1
 349 169 l 1,11,12
 308 128 308 128 255 128 c 128,-1,13
 202 128 202 128 161 169 c 1,14,-1
 105 87 l 1,15,-1
 56 160 l 1,16,-1
 111 238 l 1,17,18
 81 302 81 302 83 368 c 0,19,20
 83 440 83 440 111 502 c 1,21,-1
 56 579 l 1,22,-1
 105 650 l 1,23,-1
 161 573 l 1,24,25
 202 613 202 613 255 613 c 256,0,1
156 369 m 256,26,27
 156 311 156 311 185.5 269 c 128,-1,28
 215 227 215 227 255 227 c 0,29,30
 285 227 285 227 307.5 247.5 c 128,-1,31
 330 268 330 268 344 299 c 0,32,33
 357 332 357 332 357 369 c 0,34,35
 357 426 357 426 327 470 c 128,-1,36
 297 514 297 514 256 514 c 128,-1,37
 215 514 215 514 185.5 470.5 c 128,-1,38
 156 427 156 427 156 369 c 256,26,27
EndSplineSet
Validated: 33
EndChar

StartChar: yen
Encoding: 165 165 104
Width: 509
GlyphClass: 1
Flags: W
LayerCount: 2
Fore
SplineSet
370 484 m 1,0,-1
 454 484 l 1,1,-1
 454 380 l 1,2,-1
 330 380 l 1,3,-1
 312 335 l 1,4,-1
 312 318 l 1,5,-1
 454 318 l 1,6,-1
 454 217 l 1,7,-1
 312 217 l 1,8,-1
 312 -2 l 1,9,-1
 199 -2 l 1,10,-1
 199 217 l 1,11,-1
 54 217 l 1,12,-1
 54 318 l 1,13,-1
 199 318 l 1,14,15
 199 317 199 317 199 332 c 1,16,-1
 181 380 l 1,17,-1
 54 380 l 1,18,-1
 54 484 l 1,19,-1
 140 484 l 1,20,-1
 18 790 l 1,21,-1
 140 790 l 1,22,-1
 257 484 l 1,23,-1
 375 790 l 1,24,-1
 495 790 l 1,25,-1
 370 484 l 1,0,-1
EndSplineSet
Validated: 1
EndChar

StartChar: brokenbar
Encoding: 166 166 105
Width: 316
GlyphClass: 1
Flags: W
LayerCount: 2
Fore
SplineSet
111 479 m 1,0,-1
 111 868 l 1,1,-1
 207 868 l 1,2,-1
 207 479 l 1,3,-1
 111 479 l 1,0,-1
111 -227 m 1,4,-1
 111 161 l 1,5,-1
 207 161 l 1,6,-1
 207 -227 l 1,7,-1
 111 -227 l 1,4,-1
EndSplineSet
Validated: 1
EndChar

StartChar: section
Encoding: 167 167 106
Width: 440
GlyphClass: 1
Flags: W
LayerCount: 2
Fore
SplineSet
61 624 m 0,0,1
 61 718 61 718 107 762 c 128,-1,2
 153 806 153 806 233 806 c 0,3,4
 346 806 346 806 395 716 c 1,5,-1
 325 641 l 1,6,7
 292 689 292 689 234 689 c 0,8,9
 197 689 197 689 181.5 673 c 128,-1,10
 166 657 166 657 166 634 c 0,11,12
 166 616 166 616 184 594.5 c 128,-1,13
 202 573 202 573 283 499 c 0,14,15
 335 453 335 453 357 423 c 0,16,17
 407 359 407 359 406 285 c 0,18,19
 406 175 406 175 322 111 c 1,20,21
 353 78 353 78 367.5 45 c 128,-1,22
 382 12 382 12 382 -25 c 0,23,24
 382 -119 382 -119 335.5 -164.5 c 128,-1,25
 289 -210 289 -210 215 -210 c 0,26,27
 102 -210 102 -210 48 -118 c 1,28,29
 49 -118 49 -118 120 -43 c 1,30,31
 150 -91 150 -91 213 -92 c 0,32,33
 240 -92 240 -92 259.5 -78.5 c 128,-1,34
 279 -65 279 -65 279 -39 c 128,-1,35
 279 -13 279 -13 249.5 16.5 c 128,-1,36
 220 46 220 46 160 98 c 0,37,38
 99 151 99 151 68 199 c 128,-1,39
 37 247 37 247 37 310 c 0,40,41
 37 419 37 419 123 487 c 1,42,43
 93 517 93 517 77 550 c 128,-1,44
 61 583 61 583 61 624 c 0,0,1
310 281 m 0,45,46
 310 292 310 292 306 304 c 128,-1,47
 302 316 302 316 297 321.5 c 128,-1,48
 292 327 292 327 285 337 c 0,49,50
 276 347 276 347 263.5 357.5 c 128,-1,51
 251 368 251 368 244.5 376 c 128,-1,52
 238 384 238 384 221.5 396.5 c 128,-1,53
 205 409 205 409 199 416 c 1,54,55
 168 386 168 386 151.5 363 c 128,-1,56
 135 340 135 340 135 313 c 0,57,58
 135 290 135 290 162 259 c 128,-1,59
 189 228 189 228 245 181 c 1,60,61
 272 204 272 204 291 230 c 128,-1,62
 310 256 310 256 310 281 c 0,45,46
EndSplineSet
Validated: 33
EndChar

StartChar: dieresis
Encoding: 168 168 107
Width: 413
GlyphClass: 1
Flags: W
LayerCount: 2
Fore
SplineSet
296 837 m 0,0,1
 327 837 327 837 341 820 c 128,-1,2
 355 803 355 803 355 762.5 c 128,-1,3
 355 722 355 722 340 705 c 128,-1,4
 325 688 325 688 293.5 688 c 128,-1,5
 262 688 262 688 251 705.5 c 128,-1,6
 240 723 240 723 240 761 c 0,7,8
 240 802 240 802 253 819.5 c 128,-1,9
 266 837 266 837 296 837 c 0,0,1
116 837 m 0,10,11
 147 837 147 837 161.5 820 c 128,-1,12
 176 803 176 803 176 762.5 c 128,-1,13
 176 722 176 722 161 705 c 128,-1,14
 146 688 146 688 117 688 c 128,-1,15
 88 688 88 688 74.5 705.5 c 128,-1,16
 61 723 61 723 61 761 c 0,17,18
 61 802 61 802 73.5 819.5 c 128,-1,19
 86 837 86 837 116 837 c 0,10,11
EndSplineSet
Validated: 1
EndChar

StartChar: copyright
Encoding: 169 169 108
Width: 716
GlyphClass: 1
Flags: W
LayerCount: 2
Fore
SplineSet
360 -112 m 0,0,1
 268 -112 268 -112 194.5 -47 c 128,-1,2
 121 18 121 18 80 118 c 0,3,4
 39 224 39 224 40 349 c 0,5,6
 40 482 40 482 83.5 585 c 128,-1,7
 127 688 127 688 198 746 c 0,8,9
 275 807 275 807 360 806 c 0,10,11
 452 806 452 806 525.5 741.5 c 128,-1,12
 599 677 599 677 638 579 c 0,13,14
 679 473 679 473 681 349 c 0,15,16
 681 216 681 216 636 112 c 128,-1,17
 591 8 591 8 522 -50 c 0,18,19
 448 -112 448 -112 360 -112 c 0,0,1
360 -25 m 0,20,21
 435 -25 435 -25 492.5 27.5 c 128,-1,22
 550 80 550 80 582 160 c 0,23,24
 617 248 617 248 617 349 c 0,25,26
 617 454 617 454 580 538 c 128,-1,27
 543 622 543 622 488 669 c 0,28,29
 429 719 429 719 360 718 c 0,30,31
 285 718 285 718 227 665.5 c 128,-1,32
 169 613 169 613 137 533 c 0,33,34
 104 445 104 445 103 349 c 0,35,36
 103 243 103 243 139.5 157 c 128,-1,37
 176 71 176 71 233 25 c 0,38,39
 292 -25 292 -25 360 -25 c 0,20,21
286 351 m 256,40,41
 286 274 286 274 304 238.5 c 128,-1,42
 322 203 322 203 369 203 c 0,43,44
 395 203 395 203 412 218 c 0,45,46
 428 233 428 233 440 263 c 1,47,-1
 512 208 l 1,48,49
 482 156 482 156 465 138 c 0,50,51
 425 97 425 97 369 97 c 0,52,53
 200 97 200 97 202 351 c 0,54,55
 202 476 202 476 242.5 539.5 c 128,-1,56
 283 603 283 603 369 603 c 0,57,58
 422 603 422 603 453 574 c 128,-1,59
 484 545 484 545 507 492 c 1,60,-1
 435 435 l 1,61,62
 422 462 422 462 408.5 480 c 128,-1,63
 395 498 395 498 369 498 c 0,64,65
 323 498 323 498 304.5 463 c 128,-1,66
 286 428 286 428 286 351 c 256,40,41
EndSplineSet
Validated: 33
EndChar

StartChar: ordfeminine
Encoding: 170 170 109
Width: 329
GlyphClass: 1
Flags: W
LayerCount: 2
Fore
SplineSet
158 868 m 0,0,1
 219 868 219 868 248 837.5 c 128,-1,2
 277 807 277 807 277 729 c 2,3,-1
 277 467 l 1,4,-1
 207 467 l 1,5,-1
 207 499 l 1,6,7
 170 456 170 456 131 456 c 0,8,9
 88 456 88 456 62.5 488 c 128,-1,10
 37 520 37 520 37 579 c 0,11,12
 37 646 37 646 64 677 c 0,13,14
 94 707 94 707 151 714 c 2,15,-1
 204 722 l 1,16,-1
 204 733 l 2,17,18
 204 763 204 763 192.5 772.5 c 128,-1,19
 181 782 181 782 156 782 c 0,20,21
 115 782 115 782 100 743 c 1,22,-1
 41 795 l 1,23,24
 70 868 70 868 158 868 c 0,0,1
113 581 m 0,25,26
 113 559 113 559 121.5 550.5 c 128,-1,27
 130 542 130 542 146 542 c 0,28,29
 172 543 172 543 204 579 c 1,30,-1
 204 643 l 1,31,-1
 176 638 l 2,32,33
 155 635 155 635 143.5 631.5 c 128,-1,34
 132 628 132 628 122.5 615 c 128,-1,35
 113 602 113 602 113 581 c 0,25,26
EndSplineSet
Validated: 1
EndChar

StartChar: guillemotleft
Encoding: 171 171 110
Width: 571
GlyphClass: 1
Flags: W
LayerCount: 2
Fore
SplineSet
422 29 m 1,0,-1
 252 299 l 1,1,2
 252 299 252 299 422 568 c 1,3,-1
 542 568 l 1,4,-1
 372 299 l 1,5,-1
 542 29 l 1,6,-1
 422 29 l 1,0,-1
193 29 m 1,7,-1
 25 299 l 2,8,9
 24 299 24 299 193 568 c 1,10,-1
 312 568 l 1,11,-1
 145 299 l 1,12,-1
 312 29 l 1,13,-1
 193 29 l 1,7,-1
EndSplineSet
Validated: 33
EndChar

StartChar: logicalnot
Encoding: 172 172 111
Width: 567
GlyphClass: 1
Flags: W
LayerCount: 2
Fore
SplineSet
435 185 m 1,0,-1
 435 457 l 1,1,-1
 53 457 l 1,2,-1
 53 574 l 1,3,-1
 517 574 l 1,4,-1
 517 185 l 1,5,-1
 435 185 l 1,0,-1
EndSplineSet
Validated: 1
EndChar

StartChar: uni00AD
Encoding: 173 173 112
Width: 311
GlyphClass: 1
Flags: W
LayerCount: 2
Fore
SplineSet
32 228 m 1,0,-1
 32 374 l 1,1,-1
 282 374 l 1,2,3
 282 375 282 375 282 228 c 1,4,-1
 32 228 l 1,0,-1
EndSplineSet
Validated: 33
EndChar

StartChar: registered
Encoding: 174 174 113
Width: 716
GlyphClass: 1
Flags: W
LayerCount: 2
Fore
SplineSet
360 -112 m 0,0,1
 268 -112 268 -112 194.5 -47 c 128,-1,2
 121 18 121 18 80 118 c 0,3,4
 39 224 39 224 40 349 c 0,5,6
 40 482 40 482 83.5 585 c 128,-1,7
 127 688 127 688 198 746 c 0,8,9
 275 807 275 807 360 806 c 0,10,11
 452 806 452 806 525.5 741.5 c 128,-1,12
 599 677 599 677 638 579 c 0,13,14
 679 473 679 473 681 349 c 0,15,16
 681 216 681 216 636 112 c 128,-1,17
 591 8 591 8 522 -50 c 0,18,19
 448 -112 448 -112 360 -112 c 0,0,1
360 -25 m 0,20,21
 435 -25 435 -25 492.5 27.5 c 128,-1,22
 550 80 550 80 582 160 c 0,23,24
 617 248 617 248 617 349 c 0,25,26
 617 454 617 454 580 538 c 128,-1,27
 543 622 543 622 488 669 c 0,28,29
 429 719 429 719 360 718 c 0,30,31
 285 718 285 718 227 665.5 c 128,-1,32
 169 613 169 613 137 533 c 0,33,34
 104 445 104 445 103 349 c 0,35,36
 103 243 103 243 139.5 157 c 128,-1,37
 176 71 176 71 233 25 c 0,38,39
 292 -25 292 -25 360 -25 c 0,20,21
357 600 m 2,40,41
 424 600 424 600 459.5 566.5 c 128,-1,42
 495 533 495 533 495 451 c 0,43,44
 495 346 495 346 435 310 c 1,45,-1
 532 114 l 1,46,-1
 431 114 l 1,47,-1
 346 290 l 1,48,-1
 317 290 l 1,49,-1
 317 114 l 1,50,-1
 235 114 l 1,51,-1
 235 600 l 1,52,-1
 357 600 l 2,40,41
408 445 m 0,53,54
 408 477 408 477 397.5 488 c 128,-1,55
 387 499 387 499 359 499 c 2,56,-1
 317 499 l 1,57,-1
 317 389 l 1,58,-1
 357 389 l 2,59,60
 387 389 387 389 397.5 399 c 128,-1,61
 408 409 408 409 408 445 c 0,53,54
EndSplineSet
Validated: 33
EndChar

StartChar: macron
Encoding: 175 175 114
Width: 413
GlyphClass: 1
Flags: W
LayerCount: 2
Fore
SplineSet
77 717 m 1,0,-1
 77 823 l 1,1,-1
 344 823 l 1,2,-1
 344 717 l 1,3,-1
 77 717 l 1,0,-1
EndSplineSet
Validated: 1
EndChar

StartChar: degree
Encoding: 176 176 115
Width: 344
GlyphClass: 1
Flags: W
LayerCount: 2
Fore
SplineSet
172 885 m 0,0,1
 224 885 224 885 261.5 833 c 128,-1,2
 299 781 299 781 299 709 c 0,3,4
 299 656 299 656 280.5 617.5 c 128,-1,5
 262 579 262 579 236 555 c 0,6,7
 206 530 206 530 173 530 c 0,8,9
 138 530 138 530 109 555.5 c 128,-1,10
 80 581 80 581 64 619 c 0,11,12
 46 660 46 660 50 709 c 1,13,14
 50 783 50 783 84.5 834 c 128,-1,15
 119 885 119 885 172 885 c 0,0,1
173 633 m 0,16,17
 194 633 194 633 210 655 c 0,18,19
 226 676 226 676 226 706 c 256,20,21
 226 736 226 736 210 759 c 128,-1,22
 194 782 194 782 173 782 c 0,23,24
 151 782 151 782 137 760.5 c 128,-1,25
 123 739 123 739 123 708 c 128,-1,26
 123 677 123 677 137 655 c 128,-1,27
 151 633 151 633 173 633 c 0,16,17
EndSplineSet
Validated: 33
EndChar

StartChar: plusminus
Encoding: 177 177 116
Width: 567
GlyphClass: 1
Flags: W
LayerCount: 2
Fore
SplineSet
326 473 m 1,0,-1
 326 200 l 1,1,-1
 245 200 l 1,2,3
 245 199 245 199 245 473 c 1,4,5
 246 473 246 473 53 473 c 1,6,-1
 53 589 l 1,7,-1
 245 589 l 1,8,-1
 245 864 l 1,9,-1
 326 864 l 1,10,11
 326 863 326 863 326 589 c 1,12,-1
 517 589 l 1,13,-1
 517 473 l 1,14,-1
 326 473 l 1,0,-1
53 -2 m 1,15,-1
 53 116 l 1,16,-1
 517 116 l 1,17,-1
 517 -2 l 1,18,-1
 53 -2 l 1,15,-1
EndSplineSet
Validated: 33
EndChar

StartChar: twosuperior
Encoding: 178 178 117
Width: 373
GlyphClass: 1
Flags: W
LayerCount: 2
Fore
SplineSet
37 368 m 1,0,-1
 37 473 l 1,1,-1
 80 519 l 1,2,3
 170 609 170 609 193 642 c 128,-1,4
 216 675 216 675 216 706 c 0,5,6
 216 750 216 750 177 750 c 0,7,8
 136 750 136 750 110 701 c 1,9,-1
 30 770 l 1,10,11
 83 870 83 870 181 868 c 0,12,13
 255 868 255 868 286.5 827.5 c 128,-1,14
 318 787 318 787 318 724 c 0,15,16
 318 657 318 657 291 610 c 0,17,18
 276 585 276 585 238 544 c 128,-1,19
 200 503 200 503 172 481 c 1,20,-1
 334 481 l 1,21,-1
 334 368 l 1,22,-1
 37 368 l 1,0,-1
EndSplineSet
Validated: 33
EndChar

StartChar: threesuperior
Encoding: 179 179 118
Width: 373
GlyphClass: 1
Flags: W
LayerCount: 2
Fore
SplineSet
251 631 m 1,0,1
 320 606 320 606 322 514 c 0,2,3
 322 434 322 434 279 396 c 0,4,5
 238 359 238 359 169 360 c 0,6,7
 121 360 121 360 81 387 c 128,-1,8
 41 414 41 414 23 457 c 1,9,-1
 103 515 l 1,10,11
 129 463 129 463 169 466 c 0,12,13
 192 466 192 466 205 480.5 c 128,-1,14
 218 495 218 495 218 521 c 0,15,16
 218 574 218 574 162 573 c 2,17,-1
 115 573 l 1,18,-1
 115 672 l 1,19,-1
 158 672 l 2,20,21
 189 672 189 672 204.5 682.5 c 128,-1,22
 220 693 220 693 220 723 c 0,23,24
 220 743 220 743 206.5 752 c 128,-1,25
 193 761 193 761 173 761 c 0,26,27
 132 761 132 761 109 718 c 1,28,-1
 33 779 l 1,29,30
 60 825 60 825 93 845 c 0,31,32
 126 867 126 867 181 868 c 0,33,34
 249 868 249 868 282 829.5 c 128,-1,35
 315 791 315 791 315 739 c 0,36,37
 315 693 315 693 298.5 670 c 128,-1,38
 282 647 282 647 251 631 c 1,0,1
EndSplineSet
Validated: 33
EndChar

StartChar: acute
Encoding: 180 180 119
Width: 413
GlyphClass: 1
Flags: W
LayerCount: 2
Fore
SplineSet
221 689 m 1,0,-1
 139 689 l 1,1,-1
 215 895 l 1,2,-1
 340 895 l 1,3,-1
 221 689 l 1,0,-1
EndSplineSet
Validated: 1
EndChar

StartChar: mu
Encoding: 181 181 120
Width: 478
GlyphClass: 1
Flags: W
LayerCount: 2
Fore
SplineSet
157 170 m 1,0,1
 168 148 168 148 190.5 130.5 c 128,-1,2
 213 113 213 113 234 113 c 0,3,4
 287 113 287 113 325 182 c 1,5,-1
 325 599 l 1,6,-1
 427 599 l 1,7,-1
 427 -2 l 1,8,-1
 334 -2 l 1,9,-1
 333 64 l 1,10,11
 313 23 313 23 291.5 2.5 c 128,-1,12
 270 -18 270 -18 236 -18 c 0,13,14
 192 -18 192 -18 157 23 c 1,15,-1
 157 -227 l 1,16,-1
 53 -227 l 1,17,-1
 53 599 l 1,18,-1
 157 599 l 1,19,-1
 157 170 l 1,0,1
EndSplineSet
Validated: 1
EndChar

StartChar: paragraph
Encoding: 182 182 121
Width: 524
GlyphClass: 1
Flags: W
LayerCount: 2
Fore
SplineSet
18 599 m 0,0,1
 18 699 18 699 72.5 750 c 128,-1,2
 127 801 127 801 221 801 c 0,3,4
 222 801 222 801 512 801 c 1,5,-1
 512 706 l 1,6,-1
 438 706 l 1,7,-1
 438 -60 l 1,8,-1
 344 -60 l 1,9,-1
 344 706 l 1,10,-1
 278 706 l 1,11,-1
 278 -60 l 1,12,-1
 184 -60 l 1,13,-1
 184 396 l 1,14,15
 107 406 107 406 62.5 458.5 c 128,-1,16
 18 511 18 511 18 599 c 0,0,1
EndSplineSet
Validated: 1
EndChar

StartChar: periodcentered
Encoding: 183 183 122
Width: 231
GlyphClass: 1
Flags: W
LayerCount: 2
Fore
SplineSet
115 515 m 0,0,1
 151 515 151 515 166 494.5 c 128,-1,2
 181 474 181 474 181 424 c 128,-1,3
 181 374 181 374 165.5 353 c 128,-1,4
 150 332 150 332 115 332 c 128,-1,5
 80 332 80 332 66.5 353.5 c 128,-1,6
 53 375 53 375 53 424 c 128,-1,7
 53 473 53 473 66.5 494 c 128,-1,8
 80 515 80 515 115 515 c 0,0,1
EndSplineSet
Validated: 1
EndChar

StartChar: cedilla
Encoding: 184 184 123
Width: 413
GlyphClass: 1
Flags: W
LayerCount: 2
Fore
SplineSet
240 -13 m 1,0,1
 266 -20 266 -20 282.5 -47.5 c 128,-1,2
 299 -75 299 -75 299 -118 c 0,3,4
 299 -228 299 -228 184 -227 c 0,5,6
 115 -227 115 -227 79 -200 c 1,7,-1
 109 -118 l 1,8,9
 150 -144 150 -144 184 -143 c 0,10,11
 202 -143 202 -143 212.5 -137.5 c 128,-1,12
 223 -132 223 -132 223 -117 c 0,13,14
 223 -81 223 -81 150 -75 c 1,15,-1
 187 23 l 1,16,-1
 252 23 l 1,17,-1
 240 -13 l 1,0,1
EndSplineSet
Validated: 33
EndChar

StartChar: onesuperior
Encoding: 185 185 124
Width: 373
GlyphClass: 1
Flags: W
LayerCount: 2
Fore
SplineSet
158 368 m 1,0,-1
 158 686 l 1,1,-1
 67 686 l 1,2,-1
 67 771 l 1,3,4
 103 772 103 772 124.5 779.5 c 128,-1,5
 146 787 146 787 160 806 c 0,6,7
 171 824 171 824 181 859 c 1,8,-1
 261 859 l 1,9,-1
 261 368 l 1,10,-1
 158 368 l 1,0,-1
EndSplineSet
Validated: 1
EndChar

StartChar: ordmasculine
Encoding: 186 186 125
Width: 333
GlyphClass: 1
Flags: W
LayerCount: 2
Fore
SplineSet
168 868 m 128,-1,1
 299 868 299 868 299 660 c 0,2,3
 299 456 299 456 168 456 c 128,-1,4
 37 456 37 456 37 660 c 0,5,0
 37 868 37 868 168 868 c 128,-1,1
169 549 m 0,6,7
 199 549 199 549 211 578 c 128,-1,8
 223 607 223 607 223 660 c 0,9,10
 223 727 223 727 208 751.5 c 128,-1,11
 193 776 193 776 169.5 776 c 128,-1,12
 146 776 146 776 130 753 c 0,13,14
 114 728 114 728 113 660 c 0,15,16
 113 606 113 606 125.5 577.5 c 128,-1,17
 138 549 138 549 169 549 c 0,6,7
EndSplineSet
Validated: 1
EndChar

StartChar: guillemotright
Encoding: 187 187 126
Width: 571
GlyphClass: 1
Flags: W
LayerCount: 2
Fore
SplineSet
381 29 m 1,0,-1
 262 29 l 1,1,-1
 429 299 l 1,2,-1
 262 568 l 1,3,-1
 381 568 l 1,4,-1
 550 299 l 1,5,-1
 381 29 l 1,0,-1
151 29 m 1,6,-1
 32 29 l 1,7,-1
 202 299 l 1,8,-1
 32 568 l 1,9,-1
 151 568 l 1,10,-1
 322 299 l 1,11,-1
 151 29 l 1,6,-1
EndSplineSet
Validated: 1
EndChar

StartChar: onequarter
Encoding: 188 188 127
Width: 833
GlyphClass: 1
Flags: W
LayerCount: 2
Fore
SplineSet
282 -29 m 1,0,-1
 188 -29 l 1,1,-1
 485 822 l 1,2,-1
 581 822 l 1,3,-1
 282 -29 l 1,0,-1
111 304 m 1,4,-1
 111 619 l 1,5,6
 112 619 112 619 18 619 c 1,7,-1
 18 706 l 1,8,9
 54 707 54 707 77 714 c 0,10,11
 98 719 98 719 111 743 c 0,12,13
 122 761 122 761 131 793 c 1,14,-1
 210 793 l 1,15,-1
 210 304 l 1,16,-1
 111 304 l 1,4,-1
749 92 m 1,17,-1
 749 -2 l 1,18,-1
 656 -2 l 1,19,-1
 656 92 l 1,20,21
 657 92 657 92 461 92 c 1,22,-1
 461 186 l 1,23,-1
 659 489 l 1,24,25
 658 489 658 489 749 489 c 1,26,-1
 749 189 l 1,27,-1
 795 189 l 1,28,-1
 795 92 l 1,29,-1
 749 92 l 1,17,-1
656 347 m 1,30,-1
 555 189 l 1,31,-1
 656 189 l 1,32,-1
 656 347 l 1,30,-1
EndSplineSet
Validated: 33
EndChar

StartChar: onehalf
Encoding: 189 189 128
Width: 833
GlyphClass: 1
Flags: W
LayerCount: 2
Fore
SplineSet
256 -29 m 1,0,-1
 162 -29 l 1,1,-1
 461 822 l 2,2,3
 462 822 462 822 555 822 c 1,4,-1
 256 -29 l 1,0,-1
110 304 m 1,5,-1
 110 619 l 1,6,-1
 18 619 l 1,7,-1
 18 706 l 1,8,9
 54 707 54 707 76 714.5 c 128,-1,10
 98 722 98 722 111 743 c 0,11,12
 122 761 122 761 131 793 c 1,13,-1
 209 793 l 1,14,-1
 209 304 l 1,15,-1
 110 304 l 1,5,-1
491 -2 m 1,16,-1
 491 104 l 1,17,-1
 533 149 l 1,18,19
 623 239 623 239 647.5 272 c 128,-1,20
 672 305 672 305 672 337 c 0,21,22
 672 381 672 381 631 380 c 0,23,24
 590 380 590 380 564 331 c 1,25,-1
 485 400 l 1,26,27
 538 500 538 500 637 498 c 0,28,29
 711 498 711 498 742.5 457.5 c 128,-1,30
 774 417 774 417 774 356 c 0,31,32
 774 289 774 289 746 241 c 0,33,34
 731 216 731 216 692 175.5 c 128,-1,35
 653 135 653 135 626 111 c 1,36,-1
 787 111 l 1,37,-1
 787 -2 l 1,38,-1
 491 -2 l 1,16,-1
EndSplineSet
Validated: 33
EndChar

StartChar: threequarters
Encoding: 190 190 129
Width: 833
GlyphClass: 1
Flags: W
LayerCount: 2
Fore
SplineSet
333 -29 m 1,0,-1
 236 -29 l 1,1,-1
 535 822 l 1,2,-1
 630 822 l 1,3,-1
 333 -29 l 1,0,-1
767 92 m 1,4,-1
 767 -2 l 1,5,6
 768 -2 768 -2 675 -2 c 1,7,-1
 675 92 l 1,8,-1
 481 92 l 1,9,-1
 481 186 l 1,10,-1
 677 489 l 1,11,-1
 767 489 l 1,12,-1
 767 189 l 1,13,-1
 813 189 l 1,14,-1
 813 92 l 1,15,-1
 767 92 l 1,4,-1
675 347 m 1,16,-1
 573 189 l 1,17,-1
 675 189 l 1,18,-1
 675 347 l 1,16,-1
251 565 m 1,19,20
 320 540 320 540 322 450 c 0,21,22
 323 294 323 294 169 295 c 0,23,24
 121 295 121 295 81 322 c 128,-1,25
 41 349 41 349 23 392 c 1,26,-1
 103 450 l 1,27,28
 129 398 129 398 169 400 c 0,29,30
 221 400 221 400 218 456 c 0,31,32
 218 509 218 509 162 508 c 2,33,-1
 115 508 l 1,34,-1
 115 608 l 1,35,-1
 158 608 l 2,36,37
 189 608 189 608 204.5 618 c 128,-1,38
 220 628 220 628 220 657 c 0,39,40
 220 698 220 698 173 697 c 0,41,42
 132 697 132 697 109 653 c 1,43,-1
 33 713 l 1,44,45
 60 759 60 759 93 780 c 0,46,47
 126 802 126 802 181 802 c 0,48,49
 249 802 249 802 282 763.5 c 128,-1,50
 315 725 315 725 315 672 c 0,51,52
 315 626 315 626 298.5 603.5 c 128,-1,53
 282 581 282 581 251 565 c 1,19,20
EndSplineSet
Validated: 33
EndChar

StartChar: questiondown
Encoding: 191 191 130
Width: 424
GlyphClass: 1
Flags: W
LayerCount: 2
Fore
SplineSet
240 633 m 128,-1,1
 276 633 276 633 290 612.5 c 128,-1,2
 304 592 304 592 304 544.5 c 128,-1,3
 304 497 304 497 290 477 c 128,-1,4
 276 457 276 457 240 457 c 128,-1,5
 204 457 204 457 188.5 477 c 128,-1,6
 173 497 173 497 173 545 c 128,-1,7
 173 593 173 593 188.5 613 c 128,-1,0
 204 633 204 633 240 633 c 128,-1,1
224 -88 m 0,8,9
 261 -88 261 -88 282 -68 c 128,-1,10
 303 -48 303 -48 322 -4 c 1,11,-1
 416 -83 l 1,12,13
 386 -152 386 -152 341 -189.5 c 128,-1,14
 296 -227 296 -227 225 -227 c 0,15,16
 136 -227 136 -227 83 -170.5 c 128,-1,17
 30 -114 30 -114 30 -2 c 0,18,19
 30 109 30 109 88 187 c 0,20,21
 118 224 118 224 188 277 c 1,22,-1
 188 379 l 1,23,-1
 297 379 l 1,24,-1
 297 207 l 1,25,26
 292 203 292 203 276 192 c 128,-1,27
 260 181 260 181 253 175.5 c 128,-1,28
 246 170 246 170 232 159.5 c 128,-1,29
 218 149 218 149 211 141 c 128,-1,30
 204 133 204 133 192.5 122 c 128,-1,31
 181 111 181 111 174.5 99 c 128,-1,32
 168 87 168 87 160 75 c 0,33,34
 144 45 144 45 146 7 c 0,35,36
 146 -88 146 -88 224 -88 c 0,8,9
EndSplineSet
Validated: 33
EndChar

StartChar: Agrave
Encoding: 192 192 131
Width: 530
GlyphClass: 1
Flags: W
LayerCount: 2
Fore
SplineSet
10 -2 m 1,0,-1
 193 790 l 1,1,-1
 340 790 l 1,2,-1
 524 -2 l 1,3,-1
 408 -2 l 1,4,-1
 371 160 l 1,5,-1
 158 160 l 1,6,-1
 123 -2 l 1,7,-1
 10 -2 l 1,0,-1
192 301 m 2,8,9
 191 301 191 301 339 301 c 1,10,-1
 265 628 l 1,11,-1
 192 301 l 2,8,9
270 882 m 1,12,-1
 147 1087 l 1,13,-1
 276 1087 l 1,14,-1
 350 882 l 1,15,-1
 270 882 l 1,12,-1
EndSplineSet
Validated: 33
EndChar

StartChar: Aacute
Encoding: 193 193 132
Width: 530
GlyphClass: 1
Flags: W
LayerCount: 2
Fore
SplineSet
10 -2 m 1,0,-1
 193 790 l 1,1,-1
 340 790 l 1,2,-1
 524 -2 l 1,3,-1
 408 -2 l 1,4,-1
 371 160 l 1,5,-1
 158 160 l 1,6,-1
 123 -2 l 1,7,-1
 10 -2 l 1,0,-1
192 301 m 2,8,9
 191 301 191 301 339 301 c 1,10,-1
 265 628 l 1,11,-1
 192 301 l 2,8,9
278 882 m 1,12,-1
 196 882 l 1,13,-1
 272 1087 l 1,14,-1
 397 1087 l 1,15,-1
 278 882 l 1,12,-1
EndSplineSet
Validated: 33
EndChar

StartChar: Acircumflex
Encoding: 194 194 133
Width: 530
GlyphClass: 1
Flags: W
LayerCount: 2
Fore
SplineSet
10 -2 m 1,0,-1
 193 790 l 1,1,-1
 340 790 l 1,2,-1
 524 -2 l 1,3,-1
 408 -2 l 1,4,-1
 371 160 l 1,5,-1
 158 160 l 1,6,-1
 123 -2 l 1,7,-1
 10 -2 l 1,0,-1
192 301 m 2,8,9
 191 301 191 301 339 301 c 1,10,-1
 265 628 l 1,11,-1
 192 301 l 2,8,9
322 882 m 1,12,-1
 265 981 l 1,13,-1
 204 882 l 1,14,-1
 123 882 l 1,15,-1
 216 1087 l 1,16,-1
 313 1087 l 1,17,-1
 408 882 l 1,18,-1
 322 882 l 1,12,-1
EndSplineSet
Validated: 33
EndChar

StartChar: Atilde
Encoding: 195 195 134
Width: 530
GlyphClass: 1
Flags: W
LayerCount: 2
Fore
SplineSet
10 -2 m 1,0,-1
 193 790 l 1,1,-1
 340 790 l 1,2,-1
 524 -2 l 1,3,-1
 408 -2 l 1,4,-1
 371 160 l 1,5,-1
 158 160 l 1,6,-1
 123 -2 l 1,7,-1
 10 -2 l 1,0,-1
192 301 m 2,8,9
 191 301 191 301 339 301 c 1,10,-1
 265 628 l 1,11,-1
 192 301 l 2,8,9
427 1068 m 1,12,13
 422 980 422 980 398.5 932 c 128,-1,14
 375 884 375 884 322 884 c 0,15,16
 311 884 311 884 299.5 887.5 c 128,-1,17
 288 891 288 891 282 895.5 c 128,-1,18
 276 900 276 900 265.5 908.5 c 128,-1,19
 255 917 255 917 251 921.5 c 128,-1,20
 247 926 247 926 238 938 c 0,21,22
 228 951 228 951 225 953 c 0,23,24
 215 966 215 966 202 968 c 0,25,26
 175 968 175 968 173 894 c 1,27,-1
 101 894 l 1,28,29
 102 979 102 979 129 1027 c 128,-1,30
 156 1075 156 1075 204 1075 c 0,31,32
 239 1075 239 1075 278 1036 c 0,33,34
 293 1020 293 1020 304 1007.5 c 128,-1,35
 315 995 315 995 329 995 c 0,36,37
 356 995 356 995 357 1068 c 1,38,-1
 427 1068 l 1,12,13
EndSplineSet
Validated: 33
EndChar

StartChar: Adieresis
Encoding: 196 196 135
Width: 530
GlyphClass: 1
Flags: W
LayerCount: 2
Fore
SplineSet
10 -2 m 1,0,-1
 193 790 l 1,1,-1
 340 790 l 1,2,-1
 524 -2 l 1,3,-1
 408 -2 l 1,4,-1
 371 160 l 1,5,-1
 158 160 l 1,6,-1
 123 -2 l 1,7,-1
 10 -2 l 1,0,-1
192 301 m 2,8,9
 191 301 191 301 339 301 c 1,10,-1
 265 628 l 1,11,-1
 192 301 l 2,8,9
350 1028 m 0,12,13
 381 1028 381 1028 395 1011.5 c 128,-1,14
 409 995 409 995 409 954 c 128,-1,15
 409 913 409 913 395 896.5 c 128,-1,16
 381 880 381 880 351.5 880 c 128,-1,17
 322 880 322 880 309 897.5 c 128,-1,18
 296 915 296 915 296 953 c 0,19,20
 296 994 296 994 308 1011 c 128,-1,21
 320 1028 320 1028 350 1028 c 0,12,13
172 1028 m 0,22,23
 203 1028 203 1028 217 1011.5 c 128,-1,24
 231 995 231 995 231 954 c 128,-1,25
 231 913 231 913 217.5 896.5 c 128,-1,26
 204 880 204 880 173.5 880 c 128,-1,27
 143 880 143 880 129.5 897.5 c 128,-1,28
 116 915 116 915 116 953 c 0,29,30
 116 994 116 994 129 1011 c 128,-1,31
 142 1028 142 1028 172 1028 c 0,22,23
EndSplineSet
Validated: 33
EndChar

StartChar: Aring
Encoding: 197 197 136
Width: 530
GlyphClass: 1
Flags: W
LayerCount: 2
Fore
SplineSet
10 -2 m 1,0,-1
 193 790 l 1,1,-1
 340 790 l 1,2,-1
 524 -2 l 1,3,-1
 408 -2 l 1,4,-1
 371 160 l 1,5,-1
 158 160 l 1,6,-1
 123 -2 l 1,7,-1
 10 -2 l 1,0,-1
192 301 m 2,8,9
 191 301 191 301 339 301 c 1,10,-1
 265 628 l 1,11,-1
 192 301 l 2,8,9
265.5 1109 m 128,-1,13
 310 1109 310 1109 333.5 1075.5 c 128,-1,14
 357 1042 357 1042 357 980 c 0,15,16
 357 850 357 850 265 852 c 0,17,18
 221 852 221 852 196.5 884.5 c 128,-1,19
 172 917 172 917 172 979 c 128,-1,20
 172 1041 172 1041 196.5 1075 c 128,-1,12
 221 1109 221 1109 265.5 1109 c 128,-1,13
300 979.5 m 128,-1,22
 300 1031 300 1031 265 1031 c 0,23,24
 232 1031 232 1031 230.5 979.5 c 128,-1,25
 229 928 229 928 264.5 928 c 128,-1,21
 300 928 300 928 300 979.5 c 128,-1,22
EndSplineSet
Validated: 33
EndChar

StartChar: AE
Encoding: 198 198 137
Width: 721
GlyphClass: 1
Flags: W
LayerCount: 2
Fore
SplineSet
345 -2 m 1,0,-1
 345 206 l 1,1,-1
 181 206 l 2,2,3
 180 206 180 206 123 -2 c 1,4,-1
 7 -2 l 1,5,-1
 229 790 l 1,6,7
 228 790 228 790 684 790 c 1,8,-1
 684 648 l 1,9,-1
 458 648 l 1,10,-1
 458 476 l 1,11,-1
 644 476 l 1,12,-1
 644 332 l 1,13,-1
 458 332 l 1,14,-1
 458 148 l 1,15,16
 457 148 457 148 684 148 c 1,17,-1
 684 -2 l 1,18,-1
 345 -2 l 1,0,-1
345 648 m 1,19,-1
 302 648 l 1,20,-1
 218 347 l 1,21,-1
 345 347 l 1,22,-1
 345 648 l 1,19,-1
EndSplineSet
Validated: 33
EndChar

StartChar: Ccedilla
Encoding: 199 199 138
Width: 527
GlyphClass: 1
Flags: W
LayerCount: 2
Fore
SplineSet
339 -13 m 1,0,1
 365 -20 365 -20 381 -47.5 c 128,-1,2
 397 -75 397 -75 397 -118 c 0,3,4
 397 -228 397 -228 283 -227 c 0,5,6
 215 -227 215 -227 177 -200 c 1,7,-1
 204 -118 l 1,8,9
 245 -144 245 -144 282 -143 c 0,10,11
 322 -143 322 -143 322 -117 c 0,12,13
 322 -81 322 -81 249 -75 c 1,14,-1
 270 -15 l 1,15,16
 41 6 41 6 40 395 c 0,17,18
 40 808 40 808 291 806 c 0,19,20
 440 806 440 806 502 666 c 1,21,-1
 416 568 l 1,22,23
 393 620 393 620 366 642.5 c 128,-1,24
 339 665 339 665 293 665 c 0,25,26
 226 665 226 665 191 603 c 128,-1,27
 156 541 156 541 156 395 c 0,28,29
 156 263 156 263 187 195 c 128,-1,30
 218 127 218 127 296 127 c 0,31,32
 346 127 346 127 372 154 c 128,-1,33
 398 181 398 181 422 223 c 1,34,-1
 508 131 l 1,35,36
 450 5 450 5 339 -13 c 1,0,1
EndSplineSet
Validated: 33
EndChar

StartChar: Egrave
Encoding: 200 200 139
Width: 455
GlyphClass: 1
Flags: W
LayerCount: 2
Fore
SplineSet
59 -2 m 1,0,-1
 59 790 l 1,1,-1
 418 790 l 1,2,-1
 418 648 l 1,3,-1
 172 648 l 1,4,-1
 172 478 l 1,5,-1
 381 478 l 1,6,-1
 381 337 l 1,7,-1
 172 337 l 1,8,-1
 172 148 l 1,9,-1
 418 148 l 1,10,-1
 418 -2 l 1,11,-1
 59 -2 l 1,0,-1
226 882 m 1,12,-1
 106 1087 l 1,13,-1
 233 1087 l 1,14,-1
 308 882 l 1,15,-1
 226 882 l 1,12,-1
EndSplineSet
Validated: 1
EndChar

StartChar: Eacute
Encoding: 201 201 140
Width: 455
GlyphClass: 1
Flags: W
LayerCount: 2
Fore
SplineSet
59 -2 m 1,0,-1
 59 790 l 1,1,-1
 418 790 l 1,2,-1
 418 648 l 1,3,-1
 172 648 l 1,4,-1
 172 478 l 1,5,-1
 381 478 l 1,6,-1
 381 337 l 1,7,-1
 172 337 l 1,8,-1
 172 148 l 1,9,-1
 418 148 l 1,10,-1
 418 -2 l 1,11,-1
 59 -2 l 1,0,-1
251 882 m 1,12,-1
 169 882 l 1,13,-1
 246 1087 l 1,14,-1
 371 1087 l 1,15,-1
 251 882 l 1,12,-1
EndSplineSet
Validated: 1
EndChar

StartChar: Ecircumflex
Encoding: 202 202 141
Width: 455
GlyphClass: 1
Flags: W
LayerCount: 2
Fore
SplineSet
59 -2 m 1,0,-1
 59 790 l 1,1,-1
 418 790 l 1,2,-1
 418 648 l 1,3,-1
 172 648 l 1,4,-1
 172 478 l 1,5,-1
 381 478 l 1,6,-1
 381 337 l 1,7,-1
 172 337 l 1,8,-1
 172 148 l 1,9,-1
 418 148 l 1,10,-1
 418 -2 l 1,11,-1
 59 -2 l 1,0,-1
297 882 m 1,12,-1
 238 981 l 1,13,-1
 178 882 l 1,14,-1
 93 882 l 1,15,-1
 189 1087 l 1,16,-1
 286 1087 l 1,17,-1
 381 882 l 1,18,-1
 297 882 l 1,12,-1
EndSplineSet
Validated: 1
EndChar

StartChar: Edieresis
Encoding: 203 203 142
Width: 455
GlyphClass: 1
Flags: W
LayerCount: 2
Fore
SplineSet
59 -2 m 1,0,-1
 59 790 l 1,1,-1
 418 790 l 1,2,-1
 418 648 l 1,3,-1
 172 648 l 1,4,-1
 172 478 l 1,5,-1
 381 478 l 1,6,-1
 381 337 l 1,7,-1
 172 337 l 1,8,-1
 172 148 l 1,9,-1
 418 148 l 1,10,-1
 418 -2 l 1,11,-1
 59 -2 l 1,0,-1
325 1028 m 0,12,13
 356 1028 356 1028 369.5 1011.5 c 128,-1,14
 383 995 383 995 383 954 c 128,-1,15
 383 913 383 913 370 896.5 c 128,-1,16
 357 880 357 880 326.5 880 c 128,-1,17
 296 880 296 880 283 897.5 c 128,-1,18
 270 915 270 915 270 953 c 0,19,20
 270 994 270 994 282.5 1011 c 128,-1,21
 295 1028 295 1028 325 1028 c 0,12,13
146 1028 m 0,22,23
 177 1028 177 1028 190.5 1011.5 c 128,-1,24
 204 995 204 995 204 954 c 128,-1,25
 204 913 204 913 191 896.5 c 128,-1,26
 178 880 178 880 147 880 c 128,-1,27
 116 880 116 880 103 897.5 c 128,-1,28
 90 915 90 915 90 953 c 0,29,30
 90 994 90 994 103 1011 c 128,-1,31
 116 1028 116 1028 146 1028 c 0,22,23
EndSplineSet
Validated: 1
EndChar

StartChar: Igrave
Encoding: 204 204 143
Width: 345
GlyphClass: 1
Flags: W
LayerCount: 2
Fore
SplineSet
308 -2 m 1,0,1
 309 -2 309 -2 41 -2 c 1,2,-1
 41 124 l 1,3,-1
 119 124 l 1,4,-1
 119 666 l 1,5,6
 120 666 120 666 41 666 c 1,7,-1
 41 790 l 1,8,-1
 308 790 l 1,9,-1
 308 666 l 1,10,-1
 229 666 l 1,11,-1
 229 124 l 1,12,-1
 308 124 l 1,13,-1
 308 -2 l 1,0,1
151 882 m 1,14,-1
 31 1087 l 1,15,-1
 158 1087 l 2,16,17
 159 1087 159 1087 234 882 c 1,18,-1
 151 882 l 1,14,-1
EndSplineSet
Validated: 33
EndChar

StartChar: Iacute
Encoding: 205 205 144
Width: 345
GlyphClass: 1
Flags: W
LayerCount: 2
Fore
SplineSet
308 -2 m 1,0,1
 309 -2 309 -2 41 -2 c 1,2,-1
 41 124 l 1,3,-1
 119 124 l 1,4,-1
 119 666 l 1,5,6
 120 666 120 666 41 666 c 1,7,-1
 41 790 l 1,8,-1
 308 790 l 1,9,-1
 308 666 l 1,10,-1
 229 666 l 1,11,-1
 229 124 l 1,12,-1
 308 124 l 1,13,-1
 308 -2 l 1,0,1
190 882 m 1,14,-1
 109 882 l 1,15,-1
 183 1087 l 1,16,17
 182 1087 182 1087 310 1087 c 1,18,-1
 190 882 l 1,14,-1
EndSplineSet
Validated: 33
EndChar

StartChar: Icircumflex
Encoding: 206 206 145
Width: 345
GlyphClass: 1
Flags: W
LayerCount: 2
Fore
SplineSet
308 -2 m 1,0,1
 309 -2 309 -2 41 -2 c 1,2,-1
 41 124 l 1,3,-1
 119 124 l 1,4,-1
 119 666 l 1,5,6
 120 666 120 666 41 666 c 1,7,-1
 41 790 l 1,8,-1
 308 790 l 1,9,-1
 308 666 l 1,10,-1
 229 666 l 1,11,-1
 229 124 l 1,12,-1
 308 124 l 1,13,-1
 308 -2 l 1,0,1
233 882 m 1,14,-1
 173 981 l 1,15,-1
 114 882 l 1,16,-1
 31 882 l 1,17,-1
 124 1087 l 1,18,-1
 223 1087 l 1,19,-1
 317 882 l 1,20,-1
 233 882 l 1,14,-1
EndSplineSet
Validated: 33
EndChar

StartChar: Idieresis
Encoding: 207 207 146
Width: 345
GlyphClass: 1
Flags: W
LayerCount: 2
Fore
SplineSet
308 -2 m 1,0,1
 309 -2 309 -2 41 -2 c 1,2,-1
 41 124 l 1,3,-1
 119 124 l 1,4,-1
 119 666 l 1,5,6
 120 666 120 666 41 666 c 1,7,-1
 41 790 l 1,8,-1
 308 790 l 1,9,-1
 308 666 l 1,10,-1
 229 666 l 1,11,-1
 229 124 l 1,12,-1
 308 124 l 1,13,-1
 308 -2 l 1,0,1
262 1028 m 0,14,15
 293 1028 293 1028 307.5 1011.5 c 128,-1,16
 322 995 322 995 322 954 c 128,-1,17
 322 913 322 913 307.5 896.5 c 128,-1,18
 293 880 293 880 263 880 c 128,-1,19
 233 880 233 880 218.5 897.5 c 128,-1,20
 204 915 204 915 204 953 c 0,21,22
 204 994 204 994 218 1011 c 128,-1,23
 232 1028 232 1028 262 1028 c 0,14,15
87 1028 m 0,24,25
 118 1028 118 1028 130.5 1011.5 c 128,-1,26
 143 995 143 995 143 954 c 128,-1,27
 143 913 143 913 129 896.5 c 128,-1,28
 115 880 115 880 84.5 880 c 128,-1,29
 54 880 54 880 42 897.5 c 128,-1,30
 30 915 30 915 30 953 c 0,31,32
 30 994 30 994 43.5 1011 c 128,-1,33
 57 1028 57 1028 87 1028 c 0,24,25
EndSplineSet
Validated: 33
EndChar

StartChar: Eth
Encoding: 208 208 147
Width: 556
GlyphClass: 1
Flags: W
LayerCount: 2
Fore
SplineSet
521 395 m 0,0,1
 521 118 521 118 402 40 c 0,2,3
 343 -1 343 -1 234 -2 c 2,4,-1
 59 -2 l 1,5,-1
 59 331 l 1,6,-1
 1 331 l 1,7,-1
 1 461 l 1,8,-1
 59 461 l 1,9,-1
 59 790 l 1,10,11
 60 790 60 790 234 790 c 0,12,13
 337 790 337 790 398.5 751.5 c 128,-1,14
 460 713 460 713 491 624 c 0,15,16
 521 537 521 537 521 395 c 0,0,1
403 396 m 0,17,18
 403 494 403 494 389 545.5 c 128,-1,19
 375 597 375 597 335 620 c 0,20,21
 298 642 298 642 224 643 c 2,22,-1
 172 643 l 1,23,-1
 172 461 l 1,24,-1
 302 461 l 1,25,-1
 302 331 l 1,26,-1
 172 331 l 1,27,-1
 172 148 l 1,28,-1
 224 148 l 2,29,30
 293 148 293 148 331.5 167.5 c 128,-1,31
 370 187 370 187 389 244 c 0,32,33
 403 296 403 296 403 396 c 0,17,18
EndSplineSet
Validated: 1
EndChar

StartChar: Ntilde
Encoding: 209 209 148
Width: 559
GlyphClass: 1
Flags: W
LayerCount: 2
Fore
SplineSet
371 -2 m 1,0,-1
 169 565 l 1,1,-1
 169 -2 l 1,2,-1
 59 -2 l 1,3,-1
 59 790 l 1,4,-1
 204 790 l 1,5,-1
 393 256 l 1,6,-1
 393 790 l 1,7,-1
 505 790 l 1,8,-1
 505 -2 l 1,9,-1
 371 -2 l 1,0,-1
440 1046 m 1,10,11
 435 958 435 958 412 909 c 128,-1,12
 389 860 389 860 334 860 c 0,13,14
 323 860 323 860 312.5 864 c 128,-1,15
 302 868 302 868 294 871.5 c 128,-1,16
 286 875 286 875 277 884.5 c 128,-1,17
 268 894 268 894 264 898 c 128,-1,18
 260 902 260 902 250 914.5 c 128,-1,19
 240 927 240 927 238 930 c 0,20,21
 228 943 228 943 215 944 c 0,22,23
 188 944 188 944 188 870 c 1,24,-1
 113 870 l 1,25,26
 114 955 114 955 141 1003.5 c 128,-1,27
 168 1052 168 1052 218 1052 c 0,28,29
 253 1052 253 1052 291 1012 c 0,30,31
 304 996 304 996 316 984 c 128,-1,32
 328 972 328 972 340 972 c 0,33,34
 367 972 367 972 369 1046 c 1,35,-1
 440 1046 l 1,10,11
EndSplineSet
Validated: 1
EndChar

StartChar: Ograve
Encoding: 210 210 149
Width: 543
GlyphClass: 1
Flags: W
LayerCount: 2
Fore
SplineSet
271.5 806 m 128,-1,1
 510 806 510 806 510 395 c 0,2,3
 510 199 510 199 451.5 91 c 128,-1,4
 393 -17 393 -17 273 -17 c 0,5,6
 150 -17 150 -17 91.5 91 c 128,-1,7
 33 199 33 199 33 395 c 0,8,0
 33 806 33 806 271.5 806 c 128,-1,1
393 394.5 m 128,-1,10
 393 535 393 535 366 600 c 128,-1,11
 339 665 339 665 271.5 665 c 128,-1,12
 204 665 204 665 177 600 c 128,-1,13
 150 535 150 535 150 394.5 c 128,-1,14
 150 254 150 254 177.5 190.5 c 128,-1,15
 205 127 205 127 273 127 c 0,16,17
 339 127 339 127 366 190.5 c 128,-1,9
 393 254 393 254 393 394.5 c 128,-1,10
268 882 m 1,18,-1
 147 1087 l 2,19,20
 146 1087 146 1087 276 1087 c 1,21,-1
 349 882 l 1,22,-1
 268 882 l 1,18,-1
EndSplineSet
Validated: 33
EndChar

StartChar: Oacute
Encoding: 211 211 150
Width: 543
GlyphClass: 1
Flags: W
LayerCount: 2
Fore
SplineSet
271.5 806 m 128,-1,1
 510 806 510 806 510 395 c 0,2,3
 510 199 510 199 451.5 91 c 128,-1,4
 393 -17 393 -17 273 -17 c 0,5,6
 150 -17 150 -17 91.5 91 c 128,-1,7
 33 199 33 199 33 395 c 0,8,0
 33 806 33 806 271.5 806 c 128,-1,1
393 394.5 m 128,-1,10
 393 535 393 535 366 600 c 128,-1,11
 339 665 339 665 271.5 665 c 128,-1,12
 204 665 204 665 177 600 c 128,-1,13
 150 535 150 535 150 394.5 c 128,-1,14
 150 254 150 254 177.5 190.5 c 128,-1,15
 205 127 205 127 273 127 c 0,16,17
 339 127 339 127 366 190.5 c 128,-1,9
 393 254 393 254 393 394.5 c 128,-1,10
293 882 m 1,18,-1
 213 882 l 1,19,-1
 286 1087 l 1,20,-1
 416 1087 l 1,21,-1
 293 882 l 1,18,-1
EndSplineSet
Validated: 1
EndChar

StartChar: Ocircumflex
Encoding: 212 212 151
Width: 543
GlyphClass: 1
Flags: W
LayerCount: 2
Fore
SplineSet
271.5 806 m 128,-1,1
 510 806 510 806 510 395 c 0,2,3
 510 199 510 199 451.5 91 c 128,-1,4
 393 -17 393 -17 273 -17 c 0,5,6
 150 -17 150 -17 91.5 91 c 128,-1,7
 33 199 33 199 33 395 c 0,8,0
 33 806 33 806 271.5 806 c 128,-1,1
393 394.5 m 128,-1,10
 393 535 393 535 366 600 c 128,-1,11
 339 665 339 665 271.5 665 c 128,-1,12
 204 665 204 665 177 600 c 128,-1,13
 150 535 150 535 150 394.5 c 128,-1,14
 150 254 150 254 177.5 190.5 c 128,-1,15
 205 127 205 127 272 127 c 128,-1,16
 339 127 339 127 366 190.5 c 128,-1,9
 393 254 393 254 393 394.5 c 128,-1,10
334 882 m 1,17,-1
 277 981 l 1,18,19
 278 981 278 981 216 882 c 1,20,-1
 135 882 l 1,21,22
 136 882 136 882 228 1087 c 1,23,-1
 325 1087 l 1,24,-1
 418 882 l 1,25,-1
 334 882 l 1,17,-1
EndSplineSet
Validated: 37
EndChar

StartChar: Otilde
Encoding: 213 213 152
Width: 543
GlyphClass: 1
Flags: W
LayerCount: 2
Fore
SplineSet
271.5 806 m 128,-1,1
 510 806 510 806 510 395 c 0,2,3
 510 199 510 199 451.5 91 c 128,-1,4
 393 -17 393 -17 273 -17 c 0,5,6
 150 -17 150 -17 91.5 91 c 128,-1,7
 33 199 33 199 33 395 c 0,8,0
 33 806 33 806 271.5 806 c 128,-1,1
393 394.5 m 128,-1,10
 393 535 393 535 366 600 c 128,-1,11
 339 665 339 665 271.5 665 c 128,-1,12
 204 665 204 665 177 600 c 128,-1,13
 150 535 150 535 150 394.5 c 128,-1,14
 150 254 150 254 177.5 190.5 c 128,-1,15
 205 127 205 127 273 127 c 0,16,17
 339 127 339 127 366 190.5 c 128,-1,9
 393 254 393 254 393 394.5 c 128,-1,10
439 1068 m 1,18,19
 434 980 434 980 410.5 932 c 128,-1,20
 387 884 387 884 334 884 c 0,21,22
 323 884 323 884 311.5 887.5 c 128,-1,23
 300 891 300 891 293 895.5 c 128,-1,24
 286 900 286 900 276 908.5 c 128,-1,25
 266 917 266 917 262.5 921.5 c 128,-1,26
 259 926 259 926 249.5 938.5 c 128,-1,27
 240 951 240 951 236 953 c 0,28,29
 226 966 226 966 214 968 c 0,30,31
 187 968 187 968 187 894 c 1,32,-1
 113 894 l 1,33,34
 114 979 114 979 140.5 1027 c 128,-1,35
 167 1075 167 1075 216 1075 c 0,36,37
 251 1075 251 1075 289 1036 c 0,38,39
 304 1020 304 1020 315 1008 c 0,40,41
 324 995 324 995 339 995 c 0,42,43
 366 995 366 995 369 1068 c 1,44,-1
 439 1068 l 1,18,19
EndSplineSet
Validated: 1
EndChar

StartChar: Odieresis
Encoding: 214 214 153
Width: 543
GlyphClass: 1
Flags: W
LayerCount: 2
Fore
SplineSet
271.5 806 m 128,-1,1
 510 806 510 806 510 395 c 0,2,3
 510 199 510 199 451.5 91 c 128,-1,4
 393 -17 393 -17 273 -17 c 0,5,6
 150 -17 150 -17 91.5 91 c 128,-1,7
 33 199 33 199 33 395 c 0,8,0
 33 806 33 806 271.5 806 c 128,-1,1
393 394.5 m 128,-1,10
 393 535 393 535 366 600 c 128,-1,11
 339 665 339 665 271.5 665 c 128,-1,12
 204 665 204 665 177 600 c 128,-1,13
 150 535 150 535 150 394.5 c 128,-1,14
 150 254 150 254 177.5 190.5 c 128,-1,15
 205 127 205 127 273 127 c 0,16,17
 339 127 339 127 366 190.5 c 128,-1,9
 393 254 393 254 393 394.5 c 128,-1,10
369 1028 m 0,18,19
 400 1028 400 1028 412.5 1011.5 c 128,-1,20
 425 995 425 995 425 954 c 128,-1,21
 425 913 425 913 411 896.5 c 128,-1,22
 397 880 397 880 366.5 880 c 128,-1,23
 336 880 336 880 323 897.5 c 128,-1,24
 310 915 310 915 310 953 c 0,25,26
 310 994 310 994 324.5 1011 c 128,-1,27
 339 1028 339 1028 369 1028 c 0,18,19
190 1028 m 0,28,29
 221 1028 221 1028 234 1011.5 c 128,-1,30
 247 995 247 995 247 954 c 128,-1,31
 247 913 247 913 233.5 896.5 c 128,-1,32
 220 880 220 880 189 880 c 128,-1,33
 158 880 158 880 145.5 897.5 c 128,-1,34
 133 915 133 915 133 953 c 0,35,36
 133 994 133 994 146.5 1011 c 128,-1,37
 160 1028 160 1028 190 1028 c 0,28,29
EndSplineSet
Validated: 1
EndChar

StartChar: multiply
Encoding: 215 215 154
Width: 567
GlyphClass: 1
Flags: W
LayerCount: 2
Fore
SplineSet
460 -2 m 1,0,-1
 286 250 l 1,1,-1
 111 -2 l 1,2,-1
 53 82 l 1,3,-1
 228 332 l 1,4,-1
 53 581 l 1,5,-1
 111 665 l 2,6,7
 111 666 111 666 286 416 c 1,8,-1
 460 665 l 1,9,-1
 518 581 l 1,10,-1
 344 332 l 1,11,-1
 518 82 l 1,12,-1
 460 -2 l 1,0,-1
EndSplineSet
Validated: 33
EndChar

StartChar: Oslash
Encoding: 216 216 155
Width: 543
GlyphClass: 1
Flags: W
LayerCount: 2
Fore
SplineSet
510 395 m 0,0,1
 510 199 510 199 451.5 91 c 128,-1,2
 393 -17 393 -17 273 -17 c 0,3,4
 190 -17 190 -17 137 32 c 1,5,-1
 90 -65 l 1,6,-1
 10 -65 l 1,7,-1
 88 97 l 1,8,9
 35 200 35 200 33 395 c 0,10,11
 33 808 33 808 273 806 c 0,12,13
 353 806 353 806 405 759 c 1,14,-1
 450 850 l 1,15,-1
 529 850 l 1,16,-1
 454 697 l 1,17,18
 510 593 510 593 510 395 c 0,0,1
393 395 m 0,19,20
 393 484 393 484 383 545 c 0,21,22
 383 546 383 546 198 159 c 1,23,24
 225 128 225 128 273 127 c 0,25,26
 339 127 339 127 366 191 c 128,-1,27
 393 255 393 255 393 395 c 0,19,20
150 395 m 0,28,29
 150 306 150 306 161 249 c 1,30,-1
 345 634 l 1,31,32
 315 664 315 664 273 665 c 0,33,34
 207 665 207 665 178.5 600 c 128,-1,35
 150 535 150 535 150 395 c 0,28,29
EndSplineSet
Validated: 33
EndChar

StartChar: Ugrave
Encoding: 217 217 156
Width: 571
GlyphClass: 1
Flags: W
LayerCount: 2
Fore
SplineSet
287.5 125 m 128,-1,1
 355 125 355 125 379 175.5 c 128,-1,2
 403 226 403 226 403 338 c 2,3,-1
 403 790 l 1,4,-1
 515 790 l 1,5,-1
 515 330 l 2,6,7
 515 146 515 146 463.5 64 c 128,-1,8
 412 -18 412 -18 289 -18 c 128,-1,9
 166 -18 166 -18 112.5 63 c 128,-1,10
 59 144 59 144 59 330 c 2,11,-1
 59 790 l 1,12,-1
 172 790 l 1,13,-1
 172 341 l 2,14,15
 172 230 172 230 196 177.5 c 128,-1,0
 220 125 220 125 287.5 125 c 128,-1,1
276 882 m 1,16,-1
 158 1087 l 1,17,-1
 283 1087 l 1,18,-1
 357 882 l 1,19,-1
 276 882 l 1,16,-1
EndSplineSet
Validated: 1
EndChar

StartChar: Uacute
Encoding: 218 218 157
Width: 571
GlyphClass: 1
Flags: W
LayerCount: 2
Fore
SplineSet
287.5 125 m 128,-1,1
 355 125 355 125 379 175.5 c 128,-1,2
 403 226 403 226 403 338 c 2,3,-1
 403 790 l 1,4,-1
 515 790 l 1,5,-1
 515 330 l 2,6,7
 515 146 515 146 463.5 64 c 128,-1,8
 412 -18 412 -18 289 -18 c 128,-1,9
 166 -18 166 -18 112.5 63 c 128,-1,10
 59 144 59 144 59 330 c 2,11,-1
 59 790 l 1,12,-1
 172 790 l 1,13,-1
 172 341 l 2,14,15
 172 230 172 230 196 177.5 c 128,-1,0
 220 125 220 125 287.5 125 c 128,-1,1
302 882 m 1,16,-1
 220 882 l 1,17,-1
 297 1087 l 1,18,19
 296 1087 296 1087 422 1087 c 1,20,-1
 302 882 l 1,16,-1
EndSplineSet
Validated: 33
EndChar

StartChar: Ucircumflex
Encoding: 219 219 158
Width: 571
GlyphClass: 1
Flags: W
LayerCount: 2
Fore
SplineSet
287.5 125 m 128,-1,1
 355 125 355 125 379 175.5 c 128,-1,2
 403 226 403 226 403 338 c 2,3,-1
 403 790 l 1,4,-1
 515 790 l 1,5,-1
 515 330 l 2,6,7
 515 146 515 146 463.5 64 c 128,-1,8
 412 -18 412 -18 289 -18 c 128,-1,9
 166 -18 166 -18 112.5 63 c 128,-1,10
 59 144 59 144 59 330 c 2,11,-1
 59 790 l 1,12,-1
 172 790 l 1,13,-1
 172 341 l 2,14,15
 172 230 172 230 196 177.5 c 128,-1,0
 220 125 220 125 287.5 125 c 128,-1,1
346 882 m 1,16,-1
 288 981 l 1,17,-1
 228 882 l 1,18,-1
 146 882 l 1,19,-1
 240 1087 l 1,20,-1
 336 1087 l 1,21,-1
 431 882 l 1,22,-1
 346 882 l 1,16,-1
EndSplineSet
Validated: 1
EndChar

StartChar: Udieresis
Encoding: 220 220 159
Width: 571
GlyphClass: 1
Flags: W
LayerCount: 2
Fore
SplineSet
287.5 125 m 128,-1,1
 355 125 355 125 379 175.5 c 128,-1,2
 403 226 403 226 403 338 c 2,3,-1
 403 790 l 1,4,-1
 515 790 l 1,5,-1
 515 330 l 2,6,7
 515 146 515 146 463.5 64 c 128,-1,8
 412 -18 412 -18 289 -18 c 128,-1,9
 166 -18 166 -18 112.5 63 c 128,-1,10
 59 144 59 144 59 330 c 2,11,-1
 59 790 l 1,12,-1
 172 790 l 1,13,-1
 172 341 l 2,14,15
 172 230 172 230 196 177.5 c 128,-1,0
 220 125 220 125 287.5 125 c 128,-1,1
375 1028 m 0,16,17
 406 1028 406 1028 419 1011.5 c 128,-1,18
 432 995 432 995 432 954 c 128,-1,19
 432 913 432 913 417.5 896.5 c 128,-1,20
 403 880 403 880 374 880 c 128,-1,21
 345 880 345 880 331.5 897.5 c 128,-1,22
 318 915 318 915 318 953 c 0,23,24
 318 994 318 994 331.5 1011 c 128,-1,25
 345 1028 345 1028 375 1028 c 0,16,17
198 1028 m 0,26,27
 229 1028 229 1028 242 1011.5 c 128,-1,28
 255 995 255 995 255 954 c 128,-1,29
 255 913 255 913 241.5 896.5 c 128,-1,30
 228 880 228 880 198 880 c 128,-1,31
 168 880 168 880 154 897.5 c 128,-1,32
 140 915 140 915 140 953 c 0,33,34
 140 994 140 994 154 1011 c 128,-1,35
 168 1028 168 1028 198 1028 c 0,26,27
EndSplineSet
Validated: 1
EndChar

StartChar: Yacute
Encoding: 221 221 160
Width: 471
GlyphClass: 1
Flags: W
LayerCount: 2
Fore
SplineSet
293 301 m 1,0,-1
 293 -2 l 1,1,-1
 181 -2 l 1,2,-1
 181 299 l 1,3,-1
 5 790 l 1,4,-1
 131 790 l 1,5,-1
 240 461 l 1,6,-1
 348 790 l 1,7,-1
 469 790 l 1,8,-1
 293 301 l 1,0,-1
251 882 m 1,9,-1
 169 882 l 1,10,-1
 245 1087 l 1,11,-1
 370 1087 l 1,12,-1
 251 882 l 1,9,-1
EndSplineSet
Validated: 1
EndChar

StartChar: Thorn
Encoding: 222 222 161
Width: 490
GlyphClass: 1
Flags: W
LayerCount: 2
Fore
SplineSet
268 676 m 2,0,1
 464 676 464 676 464 410 c 0,2,3
 464 264 464 264 416.5 196.5 c 128,-1,4
 369 129 369 129 262 129 c 2,5,-1
 172 129 l 1,6,-1
 172 -2 l 1,7,-1
 59 -2 l 1,8,-1
 59 790 l 1,9,-1
 172 790 l 1,10,-1
 172 676 l 1,11,-1
 268 676 l 2,0,1
218 270 m 2,12,13
 295 270 295 270 321.5 295.5 c 128,-1,14
 348 321 348 321 348 409 c 0,15,16
 348 484 348 484 318.5 509.5 c 128,-1,17
 289 535 289 535 228 535 c 2,18,-1
 172 535 l 1,19,-1
 172 270 l 1,20,-1
 218 270 l 2,12,13
EndSplineSet
Validated: 1
EndChar

StartChar: germandbls
Encoding: 223 223 162
Width: 482
GlyphClass: 1
Flags: W
LayerCount: 2
Fore
SplineSet
246 743 m 0,0,1
 199 743 199 743 180 704.5 c 128,-1,2
 161 666 161 666 161 587 c 2,3,-1
 161 -2 l 1,4,-1
 58 -2 l 1,5,-1
 58 582 l 2,6,7
 58 868 58 868 247 868 c 0,8,9
 324 868 324 868 370 818.5 c 128,-1,10
 416 769 416 769 416 670 c 0,11,12
 416 543 416 543 345 498 c 1,13,14
 395 482 395 482 422.5 419.5 c 128,-1,15
 450 357 450 357 450 270 c 0,16,17
 450 127 450 127 412.5 54.5 c 128,-1,18
 375 -18 375 -18 286 -18 c 0,19,20
 249 -18 249 -18 210 -2 c 1,21,-1
 210 129 l 1,22,23
 243 111 243 111 272 111 c 0,24,25
 313 111 313 111 328 153 c 0,26,27
 343 196 343 196 342 275 c 0,28,29
 342 363 342 363 313 392 c 0,30,31
 287 422 287 422 216 420 c 1,32,-1
 216 549 l 1,33,34
 269 549 269 549 290.5 571 c 128,-1,35
 312 593 312 593 312 660 c 0,36,37
 312 743 312 743 246 743 c 0,0,1
EndSplineSet
Validated: 33
EndChar

StartChar: agrave
Encoding: 224 224 163
Width: 454
GlyphClass: 1
Flags: W
LayerCount: 2
Fore
SplineSet
216 615 m 0,0,1
 310 615 310 615 355.5 569.5 c 128,-1,2
 401 524 401 524 401 407 c 2,3,-1
 401 -2 l 1,4,-1
 306 -2 l 1,5,-1
 306 62 l 1,6,7
 245 -18 245 -18 173 -18 c 0,8,9
 109 -18 109 -18 71 31.5 c 128,-1,10
 33 81 33 81 33 169 c 0,11,12
 33 274 33 274 78 318 c 128,-1,13
 123 362 123 362 207 374 c 2,14,-1
 299 385 l 1,15,-1
 299 411 l 2,16,17
 299 463 299 463 277 481 c 128,-1,18
 255 499 255 499 215 499 c 0,19,20
 147 499 147 499 121 437 c 1,21,-1
 41 510 l 1,22,23
 84 615 84 615 216 615 c 0,0,1
140 170 m 0,24,25
 140 98 140 98 198 98 c 0,26,27
 216 98 216 98 244 115.5 c 128,-1,28
 272 133 272 133 299 163 c 1,29,-1
 299 278 l 1,30,-1
 245 271 l 2,31,32
 192 266 192 266 166 244.5 c 128,-1,33
 140 223 140 223 140 170 c 0,24,25
203 689 m 1,34,-1
 83 895 l 2,35,36
 82 895 82 895 207 895 c 1,37,-1
 285 689 l 1,38,-1
 203 689 l 1,34,-1
EndSplineSet
Validated: 33
EndChar

StartChar: aacute
Encoding: 225 225 164
Width: 454
GlyphClass: 1
Flags: W
LayerCount: 2
Fore
SplineSet
216 615 m 0,0,1
 310 615 310 615 355.5 569.5 c 128,-1,2
 401 524 401 524 401 407 c 2,3,-1
 401 -2 l 1,4,-1
 306 -2 l 1,5,-1
 306 62 l 1,6,7
 245 -18 245 -18 173 -18 c 0,8,9
 109 -18 109 -18 71 31.5 c 128,-1,10
 33 81 33 81 33 169 c 0,11,12
 33 274 33 274 78 318 c 128,-1,13
 123 362 123 362 207 374 c 2,14,-1
 299 385 l 1,15,-1
 299 411 l 2,16,17
 299 463 299 463 277 481 c 128,-1,18
 255 499 255 499 215 499 c 0,19,20
 147 499 147 499 121 437 c 1,21,-1
 41 510 l 1,22,23
 84 615 84 615 216 615 c 0,0,1
140 170 m 0,24,25
 140 98 140 98 198 98 c 0,26,27
 216 98 216 98 244 115.5 c 128,-1,28
 272 133 272 133 299 163 c 1,29,-1
 299 278 l 1,30,-1
 245 271 l 2,31,32
 192 266 192 266 166 244.5 c 128,-1,33
 140 223 140 223 140 170 c 0,24,25
228 689 m 1,34,-1
 146 689 l 1,35,-1
 223 895 l 1,36,-1
 348 895 l 1,37,-1
 228 689 l 1,34,-1
EndSplineSet
Validated: 1
EndChar

StartChar: acircumflex
Encoding: 226 226 165
Width: 454
GlyphClass: 1
Flags: W
LayerCount: 2
Fore
SplineSet
216 615 m 0,0,1
 310 615 310 615 355.5 569.5 c 128,-1,2
 401 524 401 524 401 407 c 2,3,-1
 401 -2 l 1,4,-1
 306 -2 l 1,5,-1
 306 62 l 1,6,7
 245 -18 245 -18 173 -18 c 0,8,9
 109 -18 109 -18 71 31.5 c 128,-1,10
 33 81 33 81 33 169 c 0,11,12
 33 274 33 274 78 318 c 128,-1,13
 123 362 123 362 207 374 c 2,14,-1
 299 385 l 1,15,-1
 299 411 l 2,16,17
 299 463 299 463 277 481 c 128,-1,18
 255 499 255 499 215 499 c 0,19,20
 147 499 147 499 121 437 c 1,21,-1
 41 510 l 1,22,23
 84 615 84 615 216 615 c 0,0,1
140 170 m 0,24,25
 140 98 140 98 198 98 c 0,26,27
 216 98 216 98 244 115.5 c 128,-1,28
 272 133 272 133 299 163 c 1,29,-1
 299 278 l 1,30,-1
 245 271 l 2,31,32
 192 266 192 266 166 244.5 c 128,-1,33
 140 223 140 223 140 170 c 0,24,25
279 689 m 1,34,35
 279 690 279 690 221 790 c 1,36,-1
 161 689 l 1,37,-1
 77 689 l 1,38,-1
 171 895 l 1,39,-1
 270 895 l 1,40,-1
 364 689 l 1,41,-1
 279 689 l 1,34,35
EndSplineSet
Validated: 1
EndChar

StartChar: atilde
Encoding: 227 227 166
Width: 454
GlyphClass: 1
Flags: W
LayerCount: 2
Fore
SplineSet
216 615 m 0,0,1
 310 615 310 615 355.5 569.5 c 128,-1,2
 401 524 401 524 401 407 c 2,3,-1
 401 -2 l 1,4,-1
 306 -2 l 1,5,-1
 306 62 l 1,6,7
 245 -18 245 -18 173 -18 c 0,8,9
 109 -18 109 -18 71 31.5 c 128,-1,10
 33 81 33 81 33 169 c 0,11,12
 33 274 33 274 78 318 c 128,-1,13
 123 362 123 362 207 374 c 2,14,-1
 299 385 l 1,15,-1
 299 411 l 2,16,17
 299 463 299 463 277 481 c 128,-1,18
 255 499 255 499 215 499 c 0,19,20
 147 499 147 499 121 437 c 1,21,-1
 41 510 l 1,22,23
 84 615 84 615 216 615 c 0,0,1
140 170 m 0,24,25
 140 98 140 98 198 98 c 0,26,27
 216 98 216 98 244 115.5 c 128,-1,28
 272 133 272 133 299 163 c 1,29,-1
 299 278 l 1,30,-1
 245 271 l 2,31,32
 192 266 192 266 166 244.5 c 128,-1,33
 140 223 140 223 140 170 c 0,24,25
386 875 m 1,34,35
 381 787 381 787 357.5 739.5 c 128,-1,36
 334 692 334 692 281 692 c 0,37,38
 270 692 270 692 258.5 695.5 c 128,-1,39
 247 699 247 699 240 702.5 c 128,-1,40
 233 706 233 706 224 715 c 128,-1,41
 215 724 215 724 209.5 729 c 128,-1,42
 204 734 204 734 195.5 746.5 c 128,-1,43
 187 759 187 759 183 761 c 0,44,45
 173 774 173 774 158 776 c 0,46,47
 131 776 131 776 133 702 c 1,48,-1
 59 702 l 1,49,50
 60 787 60 787 86.5 835.5 c 128,-1,51
 113 884 113 884 166 884 c 0,52,53
 201 884 201 884 238 844 c 0,54,55
 251 828 251 828 262 816 c 0,56,57
 272 803 272 803 286 803 c 0,58,59
 313 803 313 803 313 875 c 1,60,-1
 386 875 l 1,34,35
EndSplineSet
Validated: 33
EndChar

StartChar: adieresis
Encoding: 228 228 167
Width: 454
GlyphClass: 1
Flags: W
LayerCount: 2
Fore
SplineSet
216 615 m 0,0,1
 310 615 310 615 355.5 569.5 c 128,-1,2
 401 524 401 524 401 407 c 2,3,-1
 401 -2 l 1,4,-1
 306 -2 l 1,5,-1
 306 62 l 1,6,7
 245 -18 245 -18 173 -18 c 0,8,9
 109 -18 109 -18 71 31.5 c 128,-1,10
 33 81 33 81 33 169 c 0,11,12
 33 274 33 274 78 318 c 128,-1,13
 123 362 123 362 207 374 c 2,14,-1
 299 385 l 1,15,-1
 299 411 l 2,16,17
 299 463 299 463 277 481 c 128,-1,18
 255 499 255 499 215 499 c 0,19,20
 147 499 147 499 121 437 c 1,21,-1
 41 510 l 1,22,23
 84 615 84 615 216 615 c 0,0,1
140 170 m 0,24,25
 140 98 140 98 198 98 c 0,26,27
 216 98 216 98 244 115.5 c 128,-1,28
 272 133 272 133 299 163 c 1,29,-1
 299 278 l 1,30,-1
 245 271 l 2,31,32
 192 266 192 266 166 244.5 c 128,-1,33
 140 223 140 223 140 170 c 0,24,25
302 837 m 0,34,35
 333 837 333 837 346 820 c 128,-1,36
 359 803 359 803 359 762.5 c 128,-1,37
 359 722 359 722 346.5 705 c 128,-1,38
 334 688 334 688 303 688 c 128,-1,39
 272 688 272 688 258.5 705.5 c 128,-1,40
 245 723 245 723 245 761 c 0,41,42
 245 802 245 802 258.5 819.5 c 128,-1,43
 272 837 272 837 302 837 c 0,34,35
123 837 m 0,44,45
 154 837 154 837 167.5 820 c 128,-1,46
 181 803 181 803 181 762.5 c 128,-1,47
 181 722 181 722 168.5 705 c 128,-1,48
 156 688 156 688 124.5 688 c 128,-1,49
 93 688 93 688 79.5 705.5 c 128,-1,50
 66 723 66 723 66 761 c 0,51,52
 66 802 66 802 79.5 819.5 c 128,-1,53
 93 837 93 837 123 837 c 0,44,45
EndSplineSet
Validated: 1
EndChar

StartChar: aring
Encoding: 229 229 168
Width: 454
GlyphClass: 1
Flags: W
LayerCount: 2
Fore
SplineSet
216 615 m 0,0,1
 310 615 310 615 355.5 569.5 c 128,-1,2
 401 524 401 524 401 407 c 2,3,-1
 401 -2 l 1,4,-1
 306 -2 l 1,5,-1
 306 62 l 1,6,7
 245 -18 245 -18 173 -18 c 0,8,9
 109 -18 109 -18 71 31.5 c 128,-1,10
 33 81 33 81 33 169 c 0,11,12
 33 274 33 274 78 318 c 128,-1,13
 123 362 123 362 207 374 c 2,14,-1
 299 385 l 1,15,-1
 299 411 l 2,16,17
 299 463 299 463 277 481 c 128,-1,18
 255 499 255 499 215 499 c 0,19,20
 147 499 147 499 121 437 c 1,21,-1
 41 510 l 1,22,23
 84 615 84 615 216 615 c 0,0,1
140 170 m 0,24,25
 140 98 140 98 198 98 c 0,26,27
 216 98 216 98 244 115.5 c 128,-1,28
 272 133 272 133 299 163 c 1,29,-1
 299 278 l 1,30,-1
 245 271 l 2,31,32
 192 266 192 266 166 244.5 c 128,-1,33
 140 223 140 223 140 170 c 0,24,25
214.5 916 m 128,-1,35
 260 916 260 916 284 883 c 128,-1,36
 308 850 308 850 308 787 c 0,37,38
 308 657 308 657 216 659 c 0,39,40
 172 659 172 659 147.5 691.5 c 128,-1,41
 123 724 123 724 123 786.5 c 128,-1,42
 123 849 123 849 146 882.5 c 128,-1,34
 169 916 169 916 214.5 916 c 128,-1,35
251 786.5 m 128,-1,44
 251 838 251 838 216 838 c 0,45,46
 183 838 183 838 182 786.5 c 128,-1,47
 181 735 181 735 216 735 c 128,-1,43
 251 735 251 735 251 786.5 c 128,-1,44
EndSplineSet
Validated: 33
EndChar

StartChar: ae
Encoding: 230 230 169
Width: 712
GlyphClass: 1
Flags: W
LayerCount: 2
Fore
SplineSet
335 77 m 1,0,1
 298 31 298 31 260.5 6.5 c 128,-1,2
 223 -18 223 -18 172 -18 c 0,3,4
 108 -18 108 -18 70.5 32 c 128,-1,5
 33 82 33 82 33 172.5 c 128,-1,6
 33 263 33 263 77 313 c 0,7,8
 118 363 118 363 207 374 c 2,9,-1
 299 385 l 1,10,-1
 299 411 l 2,11,12
 299 461 299 461 276 478 c 1,13,14
 258 498 258 498 216 499 c 0,15,16
 147 499 147 499 121 437 c 1,17,-1
 41 510 l 1,18,19
 84 615 84 615 216 615 c 0,20,21
 317 615 317 615 359 546 c 1,22,23
 407 615 407 615 497 615 c 0,24,25
 585 615 585 615 631.5 541 c 128,-1,26
 678 467 678 467 678 332 c 2,27,-1
 678 261 l 1,28,-1
 401 261 l 1,29,30
 404 182 404 182 427 146.5 c 128,-1,31
 450 111 450 111 506 111 c 0,32,33
 570 111 570 111 598 163 c 1,34,-1
 674 85 l 1,35,36
 648 32 648 32 607.5 7 c 128,-1,37
 567 -18 567 -18 507 -18 c 0,38,39
 388 -18 388 -18 335 77 c 1,0,1
308 159 m 1,40,41
 304 175 304 175 301.5 217.5 c 128,-1,42
 299 260 299 260 299 278 c 1,43,-1
 245 271 l 2,44,45
 220 267 220 267 204 263 c 128,-1,46
 188 259 188 259 172.5 248 c 128,-1,47
 157 237 157 237 148.5 217 c 128,-1,48
 140 197 140 197 140 170 c 0,49,50
 140 98 140 98 194 98 c 0,51,52
 255 100 255 100 308 159 c 1,40,41
578 362 m 1,53,54
 578 498 578 498 493 499 c 0,55,56
 450 499 450 499 431 464.5 c 128,-1,57
 412 430 412 430 403 362 c 1,58,-1
 578 362 l 1,53,54
EndSplineSet
Validated: 1
EndChar

StartChar: ccedilla
Encoding: 231 231 170
Width: 419
GlyphClass: 1
Flags: W
LayerCount: 2
Fore
SplineSet
277 -15 m 1,0,1
 300 -24 300 -24 315 -51 c 128,-1,2
 330 -78 330 -78 330 -118 c 0,3,4
 330 -228 330 -228 216 -227 c 0,5,6
 148 -227 148 -227 111 -200 c 1,7,-1
 137 -118 l 1,8,9
 178 -144 178 -144 215 -143 c 0,10,11
 233 -143 233 -143 242 -137.5 c 128,-1,12
 251 -132 251 -132 251 -117 c 0,13,14
 251 -81 251 -81 181 -75 c 1,15,-1
 204 -14 l 1,16,17
 37 17 37 17 37 296 c 0,18,19
 37 447 37 447 87 531 c 128,-1,20
 137 615 137 615 240 615 c 0,21,22
 356 615 356 615 398 514 c 0,23,24
 399 514 399 514 322 435 c 1,25,26
 295 488 295 488 241 488 c 128,-1,27
 187 488 187 488 165 440 c 128,-1,28
 143 392 143 392 143 299 c 0,29,30
 143 204 143 204 165.5 157.5 c 128,-1,31
 188 111 188 111 245 111 c 0,32,33
 298 111 298 111 326 163 c 1,34,-1
 403 85 l 1,35,36
 364 -2 364 -2 277 -15 c 1,0,1
EndSplineSet
Validated: 33
EndChar

StartChar: egrave
Encoding: 232 232 171
Width: 455
GlyphClass: 1
Flags: W
LayerCount: 2
Fore
SplineSet
240 615 m 0,0,1
 330 615 330 615 375 543 c 0,2,3
 422 468 422 468 422 332 c 2,4,-1
 422 261 l 1,5,-1
 143 261 l 1,6,7
 146 183 146 183 169.5 147 c 128,-1,8
 193 111 193 111 247 111 c 0,9,10
 311 111 311 111 340 163 c 1,11,-1
 417 85 l 1,12,13
 390 31 390 31 350 6.5 c 128,-1,14
 310 -18 310 -18 241 -18 c 0,15,16
 37 -18 37 -18 37 295 c 0,17,18
 38 615 38 615 240 615 c 0,0,1
319 362 m 1,19,20
 319 498 319 498 236 499 c 0,21,22
 192 499 192 499 173 467 c 0,23,24
 152 435 152 435 146 362 c 1,25,-1
 319 362 l 1,19,20
218 689 m 1,26,-1
 100 895 l 2,27,28
 99 895 99 895 225 895 c 1,29,-1
 300 689 l 1,30,-1
 218 689 l 1,26,-1
EndSplineSet
Validated: 33
EndChar

StartChar: eacute
Encoding: 233 233 172
Width: 455
GlyphClass: 1
Flags: W
LayerCount: 2
Fore
SplineSet
240 615 m 0,0,1
 330 615 330 615 375 543 c 0,2,3
 422 468 422 468 422 332 c 2,4,-1
 422 261 l 1,5,-1
 143 261 l 1,6,7
 146 183 146 183 169.5 147 c 128,-1,8
 193 111 193 111 247 111 c 0,9,10
 311 111 311 111 340 163 c 1,11,-1
 417 85 l 1,12,13
 390 31 390 31 350 6.5 c 128,-1,14
 310 -18 310 -18 241 -18 c 0,15,16
 37 -18 37 -18 37 295 c 0,17,18
 38 615 38 615 240 615 c 0,0,1
319 362 m 1,19,20
 319 498 319 498 236 499 c 0,21,22
 192 499 192 499 173 467 c 0,23,24
 152 435 152 435 146 362 c 1,25,-1
 319 362 l 1,19,20
245 689 m 1,26,-1
 162 689 l 1,27,-1
 240 895 l 1,28,-1
 366 895 l 1,29,-1
 245 689 l 1,26,-1
EndSplineSet
Validated: 1
EndChar

StartChar: ecircumflex
Encoding: 234 234 173
Width: 455
GlyphClass: 1
Flags: W
LayerCount: 2
Fore
SplineSet
240 615 m 0,0,1
 330 615 330 615 375 543 c 0,2,3
 422 468 422 468 422 332 c 2,4,-1
 422 261 l 1,5,-1
 143 261 l 1,6,7
 146 183 146 183 169.5 147 c 128,-1,8
 193 111 193 111 247 111 c 0,9,10
 311 111 311 111 340 163 c 1,11,-1
 417 85 l 1,12,13
 390 31 390 31 350 6.5 c 128,-1,14
 310 -18 310 -18 241 -18 c 0,15,16
 37 -18 37 -18 37 295 c 0,17,18
 38 615 38 615 240 615 c 0,0,1
319 362 m 1,19,20
 319 498 319 498 236 499 c 0,21,22
 192 499 192 499 173 467 c 0,23,24
 152 435 152 435 146 362 c 1,25,-1
 319 362 l 1,19,20
293 689 m 1,26,27
 293 690 293 690 236 790 c 1,28,-1
 176 689 l 1,29,-1
 92 689 l 1,30,-1
 188 895 l 1,31,-1
 285 895 l 1,32,-1
 379 689 l 1,33,-1
 293 689 l 1,26,27
EndSplineSet
Validated: 1
EndChar

StartChar: edieresis
Encoding: 235 235 174
Width: 455
GlyphClass: 1
Flags: W
LayerCount: 2
Fore
SplineSet
240 615 m 0,0,1
 330 615 330 615 375 543 c 0,2,3
 422 468 422 468 422 332 c 2,4,-1
 422 261 l 1,5,-1
 143 261 l 1,6,7
 146 183 146 183 169.5 147 c 128,-1,8
 193 111 193 111 247 111 c 0,9,10
 311 111 311 111 340 163 c 1,11,-1
 417 85 l 1,12,13
 390 31 390 31 350 6.5 c 128,-1,14
 310 -18 310 -18 241 -18 c 0,15,16
 37 -18 37 -18 37 295 c 0,17,18
 38 615 38 615 240 615 c 0,0,1
319 362 m 1,19,20
 319 498 319 498 236 499 c 0,21,22
 192 499 192 499 173 467 c 0,23,24
 152 435 152 435 146 362 c 1,25,-1
 319 362 l 1,19,20
322 837 m 0,26,27
 353 837 353 837 367 820 c 128,-1,28
 381 803 381 803 381 762.5 c 128,-1,29
 381 722 381 722 366.5 705 c 128,-1,30
 352 688 352 688 321.5 688 c 128,-1,31
 291 688 291 688 278 705.5 c 128,-1,32
 265 723 265 723 265 761 c 0,33,34
 265 802 265 802 278.5 819.5 c 128,-1,35
 292 837 292 837 322 837 c 0,26,27
145 837 m 0,36,37
 176 837 176 837 189.5 820 c 128,-1,38
 203 803 203 803 203 762.5 c 128,-1,39
 203 722 203 722 188 705 c 128,-1,40
 173 688 173 688 143 688 c 128,-1,41
 113 688 113 688 100.5 705.5 c 128,-1,42
 88 723 88 723 88 761 c 0,43,44
 88 802 88 802 101.5 819.5 c 128,-1,45
 115 837 115 837 145 837 c 0,36,37
EndSplineSet
Validated: 1
EndChar

StartChar: igrave
Encoding: 236 236 175
Width: 216
GlyphClass: 1
Flags: W
LayerCount: 2
Fore
SplineSet
58 -2 m 1,0,-1
 58 599 l 1,1,-1
 161 599 l 1,2,-1
 161 -2 l 1,3,-1
 58 -2 l 1,0,-1
100 689 m 1,4,-1
 -21 895 l 1,5,-1
 105 895 l 1,6,-1
 181 689 l 1,7,-1
 100 689 l 1,4,-1
EndSplineSet
Validated: 1
EndChar

StartChar: iacute
Encoding: 237 237 176
Width: 216
GlyphClass: 1
Flags: W
LayerCount: 2
Fore
SplineSet
58 -2 m 1,0,-1
 58 599 l 1,1,-1
 161 599 l 1,2,-1
 161 -2 l 1,3,-1
 58 -2 l 1,0,-1
133 689 m 1,4,-1
 52 689 l 1,5,-1
 125 895 l 1,6,-1
 251 895 l 1,7,-1
 133 689 l 1,4,-1
EndSplineSet
Validated: 1
EndChar

StartChar: icircumflex
Encoding: 238 238 177
Width: 216
GlyphClass: 1
Flags: W
LayerCount: 2
Fore
SplineSet
58 -2 m 1,0,-1
 58 599 l 1,1,-1
 161 599 l 1,2,-1
 161 -2 l 1,3,-1
 58 -2 l 1,0,-1
169 689 m 1,4,5
 169 690 169 690 111 790 c 1,6,-1
 53 689 l 1,7,-1
 -31 689 l 1,8,-1
 63 895 l 1,9,10
 62 895 62 895 158 895 c 1,11,-1
 252 689 l 1,12,-1
 169 689 l 1,4,5
EndSplineSet
Validated: 33
EndChar

StartChar: idieresis
Encoding: 239 239 178
Width: 216
GlyphClass: 1
Flags: W
LayerCount: 2
Fore
SplineSet
58 -2 m 1,0,-1
 58 599 l 1,1,-1
 161 599 l 1,2,-1
 161 -2 l 1,3,-1
 58 -2 l 1,0,-1
198 837 m 0,4,5
 229 837 229 837 242 820 c 128,-1,6
 255 803 255 803 255 762.5 c 128,-1,7
 255 722 255 722 241.5 705 c 128,-1,8
 228 688 228 688 198 688 c 128,-1,9
 168 688 168 688 154 705.5 c 128,-1,10
 140 723 140 723 140 761 c 0,11,12
 140 802 140 802 154 819.5 c 128,-1,13
 168 837 168 837 198 837 c 0,4,5
20 837 m 0,14,15
 51 837 51 837 64 820 c 128,-1,16
 77 803 77 803 77 762.5 c 128,-1,17
 77 722 77 722 64.5 705 c 128,-1,18
 52 688 52 688 21 688 c 128,-1,19
 -10 688 -10 688 -23.5 705.5 c 128,-1,20
 -37 723 -37 723 -37 761 c 0,21,22
 -37 802 -37 802 -23.5 819.5 c 128,-1,23
 -10 837 -10 837 20 837 c 0,14,15
EndSplineSet
Validated: 1
EndChar

StartChar: eth
Encoding: 240 240 179
Width: 471
GlyphClass: 1
Flags: W
LayerCount: 2
Fore
SplineSet
310 753 m 1,0,1
 364 671 364 671 402 549 c 0,2,3
 439 429 439 429 439 299 c 0,4,5
 439 149 439 149 388.5 65.5 c 128,-1,6
 338 -18 338 -18 240 -18 c 0,7,8
 38 -18 38 -18 37 297 c 0,9,10
 37 386 37 386 59.5 455.5 c 128,-1,11
 82 525 82 525 123 562 c 0,12,13
 164 598 164 598 216 599 c 0,14,15
 234 599 234 599 256 587.5 c 128,-1,16
 278 576 278 576 292 560 c 1,17,18
 287 583 287 583 264 632.5 c 128,-1,19
 241 682 241 682 229 703 c 0,20,21
 228 703 228 703 140 649 c 1,22,-1
 113 735 l 1,23,-1
 184 779 l 1,24,25
 171 806 171 806 111 868 c 1,26,-1
 221 868 l 1,27,28
 241 850 241 850 261 824 c 1,29,-1
 334 868 l 1,30,-1
 362 782 l 1,31,-1
 310 753 l 1,0,1
238 111 m 128,-1,33
 289 111 289 111 312 159 c 0,34,35
 334 207 334 207 334 299 c 0,36,37
 334 471 334 471 238.5 471.5 c 128,-1,38
 143 472 143 472 143 297 c 0,39,40
 143 208 143 208 165 159.5 c 128,-1,32
 187 111 187 111 238 111 c 128,-1,33
EndSplineSet
Validated: 33
EndChar

StartChar: ntilde
Encoding: 241 241 180
Width: 482
GlyphClass: 1
Flags: W
LayerCount: 2
Fore
SplineSet
304 615 m 0,0,1
 372 615 372 615 401.5 562 c 128,-1,2
 431 509 431 509 431 400 c 2,3,-1
 431 -2 l 1,4,-1
 329 -2 l 1,5,-1
 329 330 l 2,6,7
 329 423 329 423 316.5 455 c 128,-1,8
 304 487 304 487 272 487 c 0,9,10
 226 487 226 487 161 400 c 1,11,-1
 161 -2 l 1,12,-1
 58 -2 l 1,13,-1
 58 599 l 1,14,-1
 161 599 l 1,15,-1
 161 521 l 1,16,17
 227 615 227 615 304 615 c 0,0,1
403 875 m 1,18,19
 398 787 398 787 376.5 739.5 c 128,-1,20
 355 692 355 692 299 692 c 0,21,22
 288 692 288 692 277 695.5 c 128,-1,23
 266 699 266 699 258.5 702.5 c 128,-1,24
 251 706 251 706 242 715 c 128,-1,25
 233 724 233 724 229 729 c 128,-1,26
 225 734 225 734 214.5 746.5 c 128,-1,27
 204 759 204 759 203 761 c 0,28,29
 193 774 193 774 179 776 c 0,30,31
 152 776 152 776 151 702 c 1,32,-1
 78 702 l 1,33,34
 79 787 79 787 106 835.5 c 128,-1,35
 133 884 133 884 183 884 c 0,36,37
 218 884 218 884 255 844 c 0,38,39
 270 828 270 828 281 815.5 c 128,-1,40
 292 803 292 803 306 803 c 0,41,42
 333 803 333 803 334 875 c 1,43,-1
 403 875 l 1,18,19
EndSplineSet
Validated: 1
EndChar

StartChar: ograve
Encoding: 242 242 181
Width: 471
GlyphClass: 1
Flags: W
LayerCount: 2
Fore
SplineSet
238 615 m 128,-1,1
 439 615 439 615 439 299 c 0,2,3
 439 -18 439 -18 240 -18 c 0,4,5
 38 -18 38 -18 37 299 c 0,6,0
 37 615 37 615 238 615 c 128,-1,1
240 111 m 128,-1,8
 293 111 293 111 313.5 158.5 c 128,-1,9
 334 206 334 206 334 299 c 0,10,11
 334 393 334 393 312.5 440.5 c 128,-1,12
 291 488 291 488 237.5 488 c 128,-1,13
 184 488 184 488 163.5 439 c 128,-1,14
 143 390 143 390 143 298 c 128,-1,15
 143 206 143 206 165 158.5 c 128,-1,7
 187 111 187 111 240 111 c 128,-1,8
228 689 m 1,16,-1
 109 895 l 1,17,-1
 234 895 l 1,18,-1
 310 689 l 1,19,-1
 228 689 l 1,16,-1
EndSplineSet
Validated: 1
EndChar

StartChar: oacute
Encoding: 243 243 182
Width: 471
GlyphClass: 1
Flags: W
LayerCount: 2
Fore
SplineSet
238 615 m 128,-1,1
 439 615 439 615 439 299 c 0,2,3
 439 -18 439 -18 240 -18 c 0,4,5
 38 -18 38 -18 37 299 c 0,6,0
 37 615 37 615 238 615 c 128,-1,1
240 111 m 128,-1,8
 293 111 293 111 313.5 158.5 c 128,-1,9
 334 206 334 206 334 299 c 0,10,11
 334 393 334 393 312.5 440.5 c 128,-1,12
 291 488 291 488 237.5 488 c 128,-1,13
 184 488 184 488 163.5 439 c 128,-1,14
 143 390 143 390 143 298 c 128,-1,15
 143 206 143 206 165 158.5 c 128,-1,7
 187 111 187 111 240 111 c 128,-1,8
251 689 m 1,16,-1
 169 689 l 1,17,-1
 247 895 l 1,18,19
 246 895 246 895 371 895 c 1,20,-1
 251 689 l 1,16,-1
EndSplineSet
Validated: 33
EndChar

StartChar: ocircumflex
Encoding: 244 244 183
Width: 471
GlyphClass: 1
Flags: W
LayerCount: 2
Fore
SplineSet
238 615 m 128,-1,1
 439 615 439 615 439 298.5 c 128,-1,2
 439 -18 439 -18 240 -18 c 0,3,4
 38 -18 38 -18 37.5 298.5 c 128,-1,0
 37 615 37 615 238 615 c 128,-1,1
240 111 m 128,-1,6
 293 111 293 111 313.5 158.5 c 128,-1,7
 334 206 334 206 334 299 c 0,8,9
 334 393 334 393 312.5 440.5 c 128,-1,10
 291 488 291 488 237.5 488 c 128,-1,11
 184 488 184 488 163.5 439 c 128,-1,12
 143 390 143 390 143 298 c 128,-1,13
 143 206 143 206 165 158.5 c 128,-1,5
 187 111 187 111 240 111 c 128,-1,6
299 689 m 1,14,15
 299 690 299 690 240 790 c 1,16,-1
 181 689 l 1,17,-1
 98 689 l 1,18,-1
 192 895 l 1,19,-1
 286 895 l 1,20,-1
 382 689 l 1,21,-1
 299 689 l 1,14,15
EndSplineSet
Validated: 33
EndChar

StartChar: otilde
Encoding: 245 245 184
Width: 471
GlyphClass: 1
Flags: W
LayerCount: 2
Fore
SplineSet
238 615 m 128,-1,1
 439 615 439 615 439 299 c 0,2,3
 439 -18 439 -18 240 -18 c 0,4,5
 38 -18 38 -18 37 299 c 0,6,0
 37 615 37 615 238 615 c 128,-1,1
240 111 m 128,-1,8
 293 111 293 111 313.5 158.5 c 128,-1,9
 334 206 334 206 334 299 c 0,10,11
 334 393 334 393 312.5 440.5 c 128,-1,12
 291 488 291 488 237.5 488 c 128,-1,13
 184 488 184 488 163.5 439 c 128,-1,14
 143 390 143 390 143 298 c 128,-1,15
 143 206 143 206 165 158.5 c 128,-1,7
 187 111 187 111 240 111 c 128,-1,8
403 875 m 1,16,17
 398 787 398 787 374 739.5 c 128,-1,18
 350 692 350 692 299 692 c 0,19,20
 288 692 288 692 275 695.5 c 128,-1,21
 262 699 262 699 256 702.5 c 128,-1,22
 250 706 250 706 239.5 715 c 128,-1,23
 229 724 229 724 226 729 c 128,-1,24
 223 734 223 734 213 746.5 c 128,-1,25
 203 759 203 759 200 761 c 0,26,27
 190 774 190 774 176 776 c 0,28,29
 149 776 149 776 147 702 c 1,30,-1
 77 702 l 1,31,32
 78 787 78 787 104.5 835.5 c 128,-1,33
 131 884 131 884 181 884 c 0,34,35
 216 884 216 884 252 844 c 0,36,37
 265 828 265 828 277 815.5 c 128,-1,38
 289 803 289 803 303 803 c 0,39,40
 330 803 330 803 330 875 c 1,41,-1
 403 875 l 1,16,17
EndSplineSet
Validated: 1
EndChar

StartChar: odieresis
Encoding: 246 246 185
Width: 471
GlyphClass: 1
Flags: W
LayerCount: 2
Fore
SplineSet
238 615 m 128,-1,1
 439 615 439 615 439 299 c 0,2,3
 439 -18 439 -18 240 -18 c 0,4,5
 38 -18 38 -18 37 299 c 0,6,0
 37 615 37 615 238 615 c 128,-1,1
240 111 m 128,-1,8
 293 111 293 111 313.5 158.5 c 128,-1,9
 334 206 334 206 334 299 c 0,10,11
 334 393 334 393 312.5 440.5 c 128,-1,12
 291 488 291 488 237.5 488 c 128,-1,13
 184 488 184 488 163.5 439 c 128,-1,14
 143 390 143 390 143 298 c 128,-1,15
 143 206 143 206 165 158.5 c 128,-1,7
 187 111 187 111 240 111 c 128,-1,8
326 837 m 0,16,17
 357 837 357 837 370 820 c 128,-1,18
 383 803 383 803 383 762.5 c 128,-1,19
 383 722 383 722 370 705 c 128,-1,20
 357 688 357 688 327 688 c 128,-1,21
 297 688 297 688 283.5 705.5 c 128,-1,22
 270 723 270 723 270 761 c 0,23,24
 270 802 270 802 283 819.5 c 128,-1,25
 296 837 296 837 326 837 c 0,16,17
147 837 m 0,26,27
 178 837 178 837 191 820 c 128,-1,28
 204 803 204 803 204 762.5 c 128,-1,29
 204 722 204 722 191.5 705 c 128,-1,30
 179 688 179 688 149 688 c 128,-1,31
 119 688 119 688 104.5 705.5 c 128,-1,32
 90 723 90 723 90 761 c 0,33,34
 90 802 90 802 103.5 819.5 c 128,-1,35
 117 837 117 837 147 837 c 0,26,27
EndSplineSet
Validated: 1
EndChar

StartChar: divide
Encoding: 247 247 186
Width: 567
GlyphClass: 1
Flags: W
LayerCount: 2
Fore
SplineSet
236 520 m 1,0,-1
 236 665 l 1,1,-1
 334 665 l 1,2,3
 334 664 334 664 334 520 c 1,4,-1
 236 520 l 1,0,-1
53 274 m 1,5,-1
 53 390 l 1,6,-1
 517 390 l 1,7,-1
 517 274 l 1,8,-1
 53 274 l 1,5,-1
236 1 m 1,9,-1
 236 144 l 1,10,-1
 334 144 l 1,11,-1
 334 1 l 1,12,-1
 236 1 l 1,9,-1
EndSplineSet
Validated: 1
EndChar

StartChar: oslash
Encoding: 248 248 187
Width: 471
GlyphClass: 1
Flags: W
LayerCount: 2
Fore
SplineSet
439 299 m 0,0,1
 439 -18 439 -18 240 -18 c 0,2,3
 183 -18 183 -18 139 8 c 1,4,-1
 115 -43 l 1,5,-1
 41 -43 l 1,6,-1
 88 58 l 1,7,8
 35 138 35 138 37 299 c 0,9,10
 37 617 37 617 240 615 c 0,11,12
 296 615 296 615 336 589 c 1,13,-1
 361 643 l 1,14,-1
 434 643 l 1,15,-1
 386 540 l 1,16,17
 439 457 439 457 439 299 c 0,0,1
240 488 m 0,18,19
 187 488 187 488 165 440 c 128,-1,20
 143 392 143 392 143 299 c 0,21,22
 143 240 143 240 151 192 c 1,23,-1
 283 474 l 1,24,25
 267 488 267 488 240 488 c 0,18,19
240 111 m 0,26,27
 293 111 293 111 313.5 158.5 c 128,-1,28
 334 206 334 206 334 299 c 0,29,30
 334 362 334 362 322 403 c 1,31,-1
 193 122 l 1,32,33
 214 111 214 111 240 111 c 0,26,27
EndSplineSet
Validated: 33
EndChar

StartChar: ugrave
Encoding: 249 249 188
Width: 482
GlyphClass: 1
Flags: W
LayerCount: 2
Fore
SplineSet
181 -18 m 0,0,1
 112 -18 112 -18 83 37 c 128,-1,2
 54 92 54 92 54 197 c 2,3,-1
 54 599 l 1,4,-1
 158 599 l 1,5,-1
 158 268 l 2,6,7
 158 233 158 233 158 218 c 128,-1,8
 158 203 158 203 162 177 c 128,-1,9
 166 151 166 151 171 140 c 128,-1,10
 176 129 176 129 187 120 c 128,-1,11
 198 111 198 111 215 111 c 0,12,13
 261 111 261 111 325 197 c 1,14,-1
 325 599 l 1,15,-1
 427 599 l 1,16,-1
 427 -2 l 1,17,-1
 325 -2 l 1,18,-1
 325 76 l 1,19,20
 300 36 300 36 261 9 c 128,-1,21
 222 -18 222 -18 181 -18 c 0,0,1
231 689 m 1,22,-1
 111 895 l 1,23,-1
 240 895 l 1,24,-1
 313 689 l 1,25,-1
 231 689 l 1,22,-1
EndSplineSet
Validated: 1
EndChar

StartChar: uacute
Encoding: 250 250 189
Width: 482
GlyphClass: 1
Flags: W
LayerCount: 2
Fore
SplineSet
181 -18 m 0,0,1
 112 -18 112 -18 83 37 c 128,-1,2
 54 92 54 92 54 197 c 2,3,-1
 54 599 l 1,4,-1
 158 599 l 1,5,-1
 158 268 l 2,6,7
 158 233 158 233 158 218 c 128,-1,8
 158 203 158 203 162 177 c 128,-1,9
 166 151 166 151 171 140 c 128,-1,10
 176 129 176 129 187 120 c 128,-1,11
 198 111 198 111 215 111 c 0,12,13
 261 111 261 111 325 197 c 1,14,-1
 325 599 l 1,15,-1
 427 599 l 1,16,-1
 427 -2 l 1,17,-1
 325 -2 l 1,18,-1
 325 76 l 1,19,20
 300 36 300 36 261 9 c 128,-1,21
 222 -18 222 -18 181 -18 c 0,0,1
257 689 m 1,22,-1
 176 689 l 1,23,24
 177 689 177 689 251 895 c 1,25,-1
 379 895 l 1,26,-1
 257 689 l 1,22,-1
EndSplineSet
Validated: 1
EndChar

StartChar: ucircumflex
Encoding: 251 251 190
Width: 482
GlyphClass: 1
Flags: W
LayerCount: 2
Fore
SplineSet
181 -18 m 0,0,1
 112 -18 112 -18 83 37 c 128,-1,2
 54 92 54 92 54 197 c 2,3,-1
 54 599 l 1,4,-1
 158 599 l 1,5,-1
 158 268 l 2,6,7
 158 233 158 233 158 218 c 128,-1,8
 158 203 158 203 162 177 c 128,-1,9
 166 151 166 151 171 140 c 128,-1,10
 176 129 176 129 187 120 c 128,-1,11
 198 111 198 111 215 111 c 0,12,13
 261 111 261 111 325 197 c 1,14,-1
 325 599 l 1,15,-1
 427 599 l 1,16,-1
 427 -2 l 1,17,-1
 325 -2 l 1,18,-1
 325 76 l 1,19,20
 300 36 300 36 261 9 c 128,-1,21
 222 -18 222 -18 181 -18 c 0,0,1
299 689 m 1,22,23
 299 690 299 690 240 790 c 1,24,25
 241 790 241 790 181 689 c 1,26,-1
 98 689 l 1,27,-1
 193 895 l 1,28,-1
 288 895 l 1,29,-1
 383 689 l 1,30,-1
 299 689 l 1,22,23
EndSplineSet
Validated: 33
EndChar

StartChar: udieresis
Encoding: 252 252 191
Width: 482
GlyphClass: 1
Flags: W
LayerCount: 2
Fore
SplineSet
181 -18 m 0,0,1
 112 -18 112 -18 83 37 c 128,-1,2
 54 92 54 92 54 197 c 2,3,-1
 54 599 l 1,4,-1
 158 599 l 1,5,-1
 158 268 l 2,6,7
 158 233 158 233 158 218 c 128,-1,8
 158 203 158 203 162 177 c 128,-1,9
 166 151 166 151 171 140 c 128,-1,10
 176 129 176 129 187 120 c 128,-1,11
 198 111 198 111 215 111 c 0,12,13
 261 111 261 111 325 197 c 1,14,-1
 325 599 l 1,15,-1
 427 599 l 1,16,-1
 427 -2 l 1,17,-1
 325 -2 l 1,18,-1
 325 76 l 1,19,20
 300 36 300 36 261 9 c 128,-1,21
 222 -18 222 -18 181 -18 c 0,0,1
326 837 m 0,22,23
 357 837 357 837 371 820 c 128,-1,24
 385 803 385 803 385 762.5 c 128,-1,25
 385 722 385 722 371 705 c 128,-1,26
 357 688 357 688 327 688 c 128,-1,27
 297 688 297 688 284 705.5 c 128,-1,28
 271 723 271 723 271 761 c 0,29,30
 271 802 271 802 283.5 819.5 c 128,-1,31
 296 837 296 837 326 837 c 0,22,23
147 837 m 0,32,33
 178 837 178 837 191.5 820 c 128,-1,34
 205 803 205 803 205 762.5 c 128,-1,35
 205 722 205 722 192 705 c 128,-1,36
 179 688 179 688 149.5 688 c 128,-1,37
 120 688 120 688 106 705.5 c 128,-1,38
 92 723 92 723 92 761 c 0,39,40
 92 802 92 802 104.5 819.5 c 128,-1,41
 117 837 117 837 147 837 c 0,32,33
EndSplineSet
Validated: 1
EndChar

StartChar: yacute
Encoding: 253 253 192
Width: 431
GlyphClass: 1
Flags: W
LayerCount: 2
Fore
SplineSet
15 -82 m 1,0,1
 48 -100 48 -100 77 -97 c 0,2,3
 100 -97 100 -97 114 -76 c 0,4,5
 132 -56 132 -56 151 4 c 2,6,-1
 162 41 l 1,7,-1
 10 599 l 1,8,-1
 119 599 l 2,9,10
 120 598 120 598 216 216 c 1,11,-1
 318 599 l 1,12,-1
 424 599 l 1,13,14
 424 598 424 598 243 -42 c 0,15,16
 221 -119 221 -119 200 -155 c 128,-1,17
 179 -191 179 -191 151.5 -209 c 128,-1,18
 124 -227 124 -227 82 -227 c 0,19,20
 36 -227 36 -227 -7 -208 c 1,21,-1
 15 -82 l 1,0,1
228 689 m 1,22,-1
 146 689 l 1,23,-1
 223 895 l 1,24,-1
 348 895 l 1,25,-1
 228 689 l 1,22,-1
EndSplineSet
Validated: 33
EndChar

StartChar: thorn
Encoding: 254 254 193
Width: 482
GlyphClass: 1
Flags: W
LayerCount: 2
Fore
SplineSet
286 615 m 0,0,1
 327 615 327 615 360 592.5 c 128,-1,2
 393 570 393 570 412 527.5 c 128,-1,3
 431 485 431 485 440.5 429.5 c 128,-1,4
 450 374 450 374 450 304 c 0,5,6
 450 209 450 209 429 134 c 128,-1,7
 408 59 408 59 371 20.5 c 128,-1,8
 334 -18 334 -18 279 -18 c 0,9,10
 210 -18 210 -18 161 45 c 1,11,-1
 161 -227 l 1,12,-1
 58 -227 l 1,13,-1
 58 850 l 1,14,-1
 161 850 l 1,15,-1
 161 546 l 1,16,17
 209 615 209 615 286 615 c 0,0,1
251 111 m 0,18,19
 295 111 295 111 319.5 166 c 128,-1,20
 344 221 344 221 344 301 c 0,21,22
 344 384 344 384 324 435.5 c 128,-1,23
 304 487 304 487 259 487 c 0,24,25
 233 487 233 487 206 469 c 128,-1,26
 179 451 179 451 161 428 c 1,27,-1
 161 165 l 1,28,29
 203 111 203 111 251 111 c 0,18,19
EndSplineSet
Validated: 1
EndChar

StartChar: ydieresis
Encoding: 255 255 194
Width: 431
GlyphClass: 1
Flags: W
LayerCount: 2
Fore
SplineSet
15 -82 m 1,0,1
 48 -100 48 -100 77 -97 c 0,2,3
 100 -97 100 -97 114 -76 c 0,4,5
 132 -56 132 -56 151 4 c 2,6,-1
 162 41 l 1,7,-1
 10 599 l 1,8,-1
 119 599 l 2,9,10
 120 598 120 598 216 216 c 1,11,-1
 318 599 l 1,12,-1
 424 599 l 1,13,14
 424 598 424 598 243 -42 c 0,15,16
 221 -119 221 -119 200 -155 c 128,-1,17
 179 -191 179 -191 151.5 -209 c 128,-1,18
 124 -227 124 -227 82 -227 c 0,19,20
 36 -227 36 -227 -7 -208 c 1,21,-1
 15 -82 l 1,0,1
306 837 m 0,22,23
 337 837 337 837 350.5 820 c 128,-1,24
 364 803 364 803 364 762.5 c 128,-1,25
 364 722 364 722 349.5 705 c 128,-1,26
 335 688 335 688 305.5 688 c 128,-1,27
 276 688 276 688 263 705.5 c 128,-1,28
 250 723 250 723 250 761 c 0,29,30
 250 802 250 802 263 819.5 c 128,-1,31
 276 837 276 837 306 837 c 0,22,23
127 837 m 0,32,33
 158 837 158 837 172.5 820 c 128,-1,34
 187 803 187 803 187 762.5 c 128,-1,35
 187 722 187 722 172.5 705 c 128,-1,36
 158 688 158 688 128 688 c 128,-1,37
 98 688 98 688 85 705.5 c 128,-1,38
 72 723 72 723 72 761 c 0,39,40
 72 802 72 802 84.5 819.5 c 128,-1,41
 97 837 97 837 127 837 c 0,32,33
EndSplineSet
Validated: 33
EndChar

StartChar: Amacron
Encoding: 256 256 195
Width: 530
GlyphClass: 1
Flags: W
LayerCount: 2
Fore
SplineSet
10 -2 m 1,0,-1
 193 790 l 1,1,-1
 340 790 l 1,2,-1
 524 -2 l 1,3,-1
 408 -2 l 1,4,-1
 371 160 l 1,5,-1
 158 160 l 1,6,-1
 123 -2 l 1,7,-1
 10 -2 l 1,0,-1
192 301 m 2,8,9
 191 301 191 301 339 301 c 1,10,-1
 265 628 l 1,11,-1
 192 301 l 2,8,9
137 908 m 1,12,-1
 137 1014 l 1,13,-1
 405 1014 l 1,14,-1
 405 908 l 1,15,-1
 137 908 l 1,12,-1
EndSplineSet
Validated: 33
EndChar

StartChar: amacron
Encoding: 257 257 196
Width: 454
GlyphClass: 1
Flags: W
LayerCount: 2
Fore
SplineSet
216 615 m 0,0,1
 310 615 310 615 355.5 569.5 c 128,-1,2
 401 524 401 524 401 407 c 2,3,-1
 401 -2 l 1,4,-1
 306 -2 l 1,5,-1
 306 62 l 1,6,7
 245 -18 245 -18 173 -18 c 0,8,9
 109 -18 109 -18 71 31.5 c 128,-1,10
 33 81 33 81 33 169 c 0,11,12
 33 274 33 274 78 318 c 128,-1,13
 123 362 123 362 207 374 c 2,14,-1
 299 385 l 1,15,-1
 299 411 l 2,16,17
 299 463 299 463 277 481 c 128,-1,18
 255 499 255 499 215 499 c 0,19,20
 147 499 147 499 121 437 c 1,21,-1
 41 510 l 1,22,23
 84 615 84 615 216 615 c 0,0,1
140 170 m 0,24,25
 140 98 140 98 198 98 c 0,26,27
 216 98 216 98 244 115.5 c 128,-1,28
 272 133 272 133 299 163 c 1,29,-1
 299 278 l 1,30,-1
 245 271 l 2,31,32
 192 266 192 266 166 244.5 c 128,-1,33
 140 223 140 223 140 170 c 0,24,25
88 717 m 1,34,-1
 88 823 l 1,35,-1
 357 823 l 1,36,-1
 357 717 l 1,37,-1
 88 717 l 1,34,-1
EndSplineSet
Validated: 1
EndChar

StartChar: Abreve
Encoding: 258 258 197
Width: 530
GlyphClass: 1
Flags: W
LayerCount: 2
Fore
SplineSet
10 -2 m 1,0,-1
 193 790 l 1,1,-1
 340 790 l 1,2,-1
 524 -2 l 1,3,-1
 408 -2 l 1,4,-1
 371 160 l 1,5,-1
 158 160 l 1,6,-1
 123 -2 l 1,7,-1
 10 -2 l 1,0,-1
192 301 m 2,8,9
 191 301 191 301 339 301 c 1,10,-1
 265 628 l 1,11,-1
 192 301 l 2,8,9
272 994 m 0,12,13
 325 994 325 994 339 1053 c 0,14,15
 340 1053 340 1053 416 1053 c 1,16,17
 416 999 416 999 397.5 958 c 128,-1,18
 379 917 379 917 346 894 c 0,19,20
 313 869 313 869 270.5 869 c 128,-1,21
 228 869 228 869 195 893.5 c 128,-1,22
 162 918 162 918 143.5 961 c 128,-1,23
 125 1004 125 1004 125 1053 c 1,24,-1
 203 1053 l 1,25,26
 216 994 216 994 272 994 c 0,12,13
EndSplineSet
Validated: 33
EndChar

StartChar: abreve
Encoding: 259 259 198
Width: 454
GlyphClass: 1
Flags: W
LayerCount: 2
Fore
SplineSet
216 615 m 0,0,1
 310 615 310 615 355.5 569.5 c 128,-1,2
 401 524 401 524 401 407 c 2,3,-1
 401 -2 l 1,4,-1
 306 -2 l 1,5,-1
 306 62 l 1,6,7
 245 -18 245 -18 173 -18 c 0,8,9
 109 -18 109 -18 71 31.5 c 128,-1,10
 33 81 33 81 33 169 c 0,11,12
 33 274 33 274 78 318 c 128,-1,13
 123 362 123 362 207 374 c 2,14,-1
 299 385 l 1,15,-1
 299 411 l 2,16,17
 299 463 299 463 277 481 c 128,-1,18
 255 499 255 499 215 499 c 0,19,20
 147 499 147 499 121 437 c 1,21,-1
 41 510 l 1,22,23
 84 615 84 615 216 615 c 0,0,1
140 170 m 0,24,25
 140 98 140 98 198 98 c 0,26,27
 216 98 216 98 244 115.5 c 128,-1,28
 272 133 272 133 299 163 c 1,29,-1
 299 278 l 1,30,-1
 245 271 l 2,31,32
 192 266 192 266 166 244.5 c 128,-1,33
 140 223 140 223 140 170 c 0,24,25
223 802 m 0,34,35
 277 802 277 802 289 862 c 1,36,-1
 366 862 l 1,37,38
 366 808 366 808 347 766 c 128,-1,39
 328 724 328 724 297 701 c 0,40,41
 265 676 265 676 222 676.5 c 128,-1,42
 179 677 179 677 146 702 c 128,-1,43
 113 727 113 727 95 769.5 c 128,-1,44
 77 812 77 812 77 862 c 1,45,-1
 151 862 l 1,46,47
 167 802 167 802 223 802 c 0,34,35
EndSplineSet
Validated: 33
EndChar

StartChar: Aogonek
Encoding: 260 260 199
Width: 530
GlyphClass: 1
Flags: W
LayerCount: 2
Fore
SplineSet
448 -118 m 0,0,1
 469 -118 469 -118 485 -98 c 1,2,-1
 526 -189 l 1,3,4
 474 -225 474 -225 428 -227 c 0,5,6
 387 -227 387 -227 364.5 -201 c 128,-1,7
 342 -175 342 -175 342 -122 c 0,8,9
 342 -43 342 -43 406 4 c 1,10,-1
 371 160 l 1,11,-1
 158 160 l 1,12,-1
 123 -2 l 1,13,-1
 10 -2 l 1,14,-1
 193 790 l 1,15,-1
 340 790 l 1,16,-1
 524 -2 l 1,17,18
 470 -20 470 -20 447 -38 c 128,-1,19
 424 -56 424 -56 424 -83 c 0,20,21
 425 -118 425 -118 448 -118 c 0,0,1
192 301 m 2,22,23
 191 301 191 301 339 301 c 1,24,-1
 265 628 l 1,25,-1
 192 301 l 2,22,23
EndSplineSet
Validated: 33
EndChar

StartChar: aogonek
Encoding: 261 261 200
Width: 454
GlyphClass: 1
Flags: W
LayerCount: 2
Fore
SplineSet
322 -118 m 0,0,1
 344 -118 344 -118 362 -98 c 1,2,-1
 401 -189 l 1,3,4
 349 -225 349 -225 304 -227 c 0,5,6
 263 -227 263 -227 239.5 -201 c 128,-1,7
 216 -175 216 -175 216 -122 c 0,8,9
 216 -78 216 -78 239 -42 c 128,-1,10
 262 -6 262 -6 306 18 c 1,11,-1
 306 62 l 1,12,13
 245 -18 245 -18 173 -18 c 0,14,15
 109 -18 109 -18 71 31.5 c 128,-1,16
 33 81 33 81 33 169 c 0,17,18
 33 223 33 223 45.5 261.5 c 128,-1,19
 58 300 58 300 83.5 323 c 128,-1,20
 109 346 109 346 137 356 c 0,21,22
 167 367 167 367 207 374 c 2,23,-1
 299 385 l 1,24,-1
 299 411 l 2,25,26
 299 463 299 463 277 481 c 128,-1,27
 255 499 255 499 215 499 c 0,28,29
 147 499 147 499 121 437 c 1,30,-1
 41 510 l 1,31,32
 63 563 63 563 108 589 c 128,-1,33
 153 615 153 615 216 615 c 0,34,35
 310 615 310 615 355.5 569.5 c 128,-1,36
 401 524 401 524 401 407 c 2,37,-1
 401 -2 l 1,38,39
 347 -20 347 -20 323 -38 c 128,-1,40
 299 -56 299 -56 299 -83 c 0,41,42
 299 -118 299 -118 322 -118 c 0,0,1
140 170 m 0,43,44
 140 98 140 98 198 98 c 0,45,46
 216 98 216 98 244 115.5 c 128,-1,47
 272 133 272 133 299 163 c 1,48,-1
 299 278 l 1,49,-1
 245 271 l 2,50,51
 220 267 220 267 204 263 c 128,-1,52
 188 259 188 259 172.5 248 c 128,-1,53
 157 237 157 237 148.5 218.5 c 128,-1,54
 140 200 140 200 140 170 c 0,43,44
EndSplineSet
Validated: 1
EndChar

StartChar: Cacute
Encoding: 262 262 201
Width: 527
GlyphClass: 1
Flags: W
LayerCount: 2
Fore
SplineSet
156 395 m 0,0,1
 156 263 156 263 187 195 c 128,-1,2
 218 127 218 127 296 127 c 0,3,4
 346 127 346 127 372 154 c 128,-1,5
 398 181 398 181 422 223 c 1,6,-1
 508 131 l 1,7,8
 475 56 475 56 423.5 19.5 c 128,-1,9
 372 -17 372 -17 297 -17 c 0,10,11
 40 -17 40 -17 40 394.5 c 128,-1,12
 40 806 40 806 291 806 c 0,13,14
 440 806 440 806 502 666 c 1,15,-1
 416 568 l 1,16,17
 393 620 393 620 366 642.5 c 128,-1,18
 339 665 339 665 293 665 c 0,19,20
 226 665 226 665 191 603 c 128,-1,21
 156 541 156 541 156 395 c 0,0,1
303 882 m 1,22,-1
 221 882 l 1,23,-1
 297 1087 l 1,24,-1
 423 1087 l 1,25,-1
 303 882 l 1,22,-1
EndSplineSet
Validated: 1
EndChar

StartChar: cacute
Encoding: 263 263 202
Width: 419
GlyphClass: 1
Flags: W
LayerCount: 2
Fore
SplineSet
245 111 m 0,0,1
 298 111 298 111 326 163 c 1,2,-1
 403 85 l 1,3,4
 355 -19 355 -19 241 -18 c 0,5,6
 37 -18 37 -18 37 296 c 0,7,8
 37 447 37 447 87 531 c 128,-1,9
 137 615 137 615 240 615 c 0,10,11
 356 615 356 615 398 514 c 0,12,13
 399 514 399 514 322 435 c 1,14,15
 295 488 295 488 241 488 c 128,-1,16
 187 488 187 488 165 440 c 128,-1,17
 143 392 143 392 143 299 c 0,18,19
 143 204 143 204 165.5 157.5 c 128,-1,20
 188 111 188 111 245 111 c 0,0,1
251 689 m 1,21,-1
 169 689 l 1,22,-1
 246 895 l 1,23,-1
 371 895 l 1,24,-1
 251 689 l 1,21,-1
EndSplineSet
Validated: 33
EndChar

StartChar: Ccircumflex
Encoding: 264 264 203
Width: 527
GlyphClass: 1
Flags: W
LayerCount: 2
Fore
SplineSet
156 395 m 0,0,1
 156 263 156 263 187 195 c 128,-1,2
 218 127 218 127 296 127 c 0,3,4
 346 127 346 127 372 154 c 128,-1,5
 398 181 398 181 422 223 c 1,6,-1
 508 131 l 1,7,8
 475 56 475 56 423.5 19.5 c 128,-1,9
 372 -17 372 -17 297 -17 c 0,10,11
 40 -17 40 -17 40 394.5 c 128,-1,12
 40 806 40 806 291 806 c 0,13,14
 440 806 440 806 502 666 c 1,15,-1
 416 568 l 1,16,17
 393 620 393 620 366 642.5 c 128,-1,18
 339 665 339 665 293 665 c 0,19,20
 226 665 226 665 191 603 c 128,-1,21
 156 541 156 541 156 395 c 0,0,1
357 882 m 1,22,-1
 299 981 l 1,23,-1
 238 882 l 1,24,-1
 156 882 l 1,25,-1
 249 1087 l 2,26,27
 250 1087 250 1087 345 1087 c 1,28,-1
 439 882 l 1,29,-1
 357 882 l 1,22,-1
EndSplineSet
Validated: 1
EndChar

StartChar: ccircumflex
Encoding: 265 265 204
Width: 419
GlyphClass: 1
Flags: W
LayerCount: 2
Fore
SplineSet
245 111 m 0,0,1
 298 111 298 111 326 163 c 1,2,-1
 403 85 l 1,3,4
 355 -19 355 -19 241 -18 c 0,5,6
 37 -18 37 -18 37 296 c 0,7,8
 37 447 37 447 87 531 c 128,-1,9
 137 615 137 615 240 615 c 0,10,11
 356 615 356 615 398 514 c 0,12,13
 399 514 399 514 322 435 c 1,14,15
 295 488 295 488 241 488 c 128,-1,16
 187 488 187 488 165 440 c 128,-1,17
 143 392 143 392 143 299 c 0,18,19
 143 204 143 204 165.5 157.5 c 128,-1,20
 188 111 188 111 245 111 c 0,0,1
289 689 m 1,21,22
 289 690 289 690 233 790 c 1,23,-1
 172 689 l 1,24,-1
 88 689 l 1,25,-1
 183 895 l 1,26,-1
 281 895 l 1,27,-1
 375 689 l 1,28,-1
 289 689 l 1,21,22
EndSplineSet
Validated: 33
EndChar

StartChar: Cdotaccent
Encoding: 266 266 205
Width: 527
GlyphClass: 1
Flags: W
LayerCount: 2
Fore
SplineSet
156 395 m 0,0,1
 156 263 156 263 187 195 c 128,-1,2
 218 127 218 127 296 127 c 0,3,4
 346 127 346 127 372 154 c 128,-1,5
 398 181 398 181 422 223 c 1,6,-1
 508 131 l 1,7,8
 475 56 475 56 423.5 19.5 c 128,-1,9
 372 -17 372 -17 297 -17 c 0,10,11
 40 -17 40 -17 40 394.5 c 128,-1,12
 40 806 40 806 291 806 c 0,13,14
 440 806 440 806 502 666 c 1,15,-1
 416 568 l 1,16,17
 393 620 393 620 366 642.5 c 128,-1,18
 339 665 339 665 293 665 c 0,19,20
 226 665 226 665 191 603 c 128,-1,21
 156 541 156 541 156 395 c 0,0,1
273 1028 m 0,22,23
 304 1028 304 1028 318.5 1011.5 c 128,-1,24
 333 995 333 995 333 954 c 128,-1,25
 333 913 333 913 318 896.5 c 128,-1,26
 303 880 303 880 272 880 c 128,-1,27
 241 880 241 880 228.5 897.5 c 128,-1,28
 216 915 216 915 216 953 c 0,29,30
 216 994 216 994 229.5 1011 c 128,-1,31
 243 1028 243 1028 273 1028 c 0,22,23
EndSplineSet
Validated: 1
EndChar

StartChar: cdotaccent
Encoding: 267 267 206
Width: 419
GlyphClass: 1
Flags: W
LayerCount: 2
Fore
SplineSet
245 111 m 0,0,1
 298 111 298 111 326 163 c 1,2,-1
 403 85 l 1,3,4
 355 -19 355 -19 241 -18 c 0,5,6
 37 -18 37 -18 37 296 c 0,7,8
 37 447 37 447 87 531 c 128,-1,9
 137 615 137 615 240 615 c 0,10,11
 356 615 356 615 398 514 c 0,12,13
 399 514 399 514 322 435 c 1,14,15
 295 488 295 488 241 488 c 128,-1,16
 187 488 187 488 165 440 c 128,-1,17
 143 392 143 392 143 299 c 0,18,19
 143 204 143 204 165.5 157.5 c 128,-1,20
 188 111 188 111 245 111 c 0,0,1
223 837 m 0,21,22
 254 837 254 837 266.5 820 c 128,-1,23
 279 803 279 803 279 762.5 c 128,-1,24
 279 722 279 722 265 705 c 128,-1,25
 251 688 251 688 222 688 c 128,-1,26
 193 688 193 688 179.5 705.5 c 128,-1,27
 166 723 166 723 166 761 c 0,28,29
 166 802 166 802 179.5 819.5 c 128,-1,30
 193 837 193 837 223 837 c 0,21,22
EndSplineSet
Validated: 33
EndChar

StartChar: Ccaron
Encoding: 268 268 207
Width: 527
GlyphClass: 1
Flags: W
LayerCount: 2
Fore
SplineSet
156 395 m 0,0,1
 156 263 156 263 187 195 c 128,-1,2
 218 127 218 127 296 127 c 0,3,4
 346 127 346 127 372 154 c 128,-1,5
 398 181 398 181 422 223 c 1,6,-1
 508 131 l 1,7,8
 475 56 475 56 423.5 19.5 c 128,-1,9
 372 -17 372 -17 297 -17 c 0,10,11
 40 -17 40 -17 40 394.5 c 128,-1,12
 40 806 40 806 291 806 c 0,13,14
 440 806 440 806 502 666 c 1,15,-1
 416 568 l 1,16,17
 393 620 393 620 366 642.5 c 128,-1,18
 339 665 339 665 293 665 c 0,19,20
 226 665 226 665 191 603 c 128,-1,21
 156 541 156 541 156 395 c 0,0,1
338 882 m 1,22,-1
 240 882 l 2,23,24
 239 882 239 882 146 1087 c 1,25,-1
 229 1087 l 1,26,27
 229 1086 229 1086 288 987 c 1,28,-1
 348 1087 l 1,29,-1
 432 1087 l 1,30,-1
 338 882 l 1,22,-1
EndSplineSet
Validated: 1
EndChar

StartChar: ccaron
Encoding: 269 269 208
Width: 419
GlyphClass: 1
Flags: W
LayerCount: 2
Fore
SplineSet
245 111 m 0,0,1
 298 111 298 111 326 163 c 1,2,-1
 403 85 l 1,3,4
 355 -19 355 -19 241 -18 c 0,5,6
 37 -18 37 -18 37 296 c 0,7,8
 37 447 37 447 87 531 c 128,-1,9
 137 615 137 615 240 615 c 0,10,11
 356 615 356 615 398 514 c 0,12,13
 399 514 399 514 322 435 c 1,14,15
 295 488 295 488 241 488 c 128,-1,16
 187 488 187 488 165 440 c 128,-1,17
 143 392 143 392 143 299 c 0,18,19
 143 204 143 204 165.5 157.5 c 128,-1,20
 188 111 188 111 245 111 c 0,0,1
272 689 m 1,21,-1
 172 689 l 1,22,-1
 79 895 l 1,23,-1
 164 895 l 1,24,-1
 223 796 l 1,25,-1
 282 895 l 1,26,-1
 366 895 l 1,27,-1
 272 689 l 1,21,-1
EndSplineSet
Validated: 33
EndChar

StartChar: Dcaron
Encoding: 270 270 209
Width: 522
GlyphClass: 1
Flags: W
LayerCount: 2
Fore
SplineSet
223 790 m 2,0,1
 366 790 366 790 428 696.5 c 128,-1,2
 490 603 490 603 490 395 c 0,3,4
 490 258 490 258 464 169 c 0,5,6
 437 81 437 81 381 40 c 128,-1,7
 325 -1 325 -1 224 -2 c 2,8,-1
 54 -2 l 1,9,-1
 54 790 l 1,10,-1
 223 790 l 2,0,1
374 396 m 0,11,12
 374 494 374 494 361 546 c 128,-1,13
 348 598 348 598 310 622 c 0,14,15
 277 643 277 643 213 643 c 1,16,17
 214 643 214 643 169 643 c 1,18,-1
 169 148 l 1,19,-1
 213 148 l 2,20,21
 277 148 277 148 311 167.5 c 128,-1,22
 345 187 345 187 360 243 c 0,23,24
 374 295 374 295 374 396 c 0,11,12
286 882 m 1,25,-1
 190 882 l 1,26,-1
 94 1087 l 1,27,-1
 179 1087 l 1,28,29
 179 1086 179 1086 238 987 c 1,30,-1
 299 1087 l 1,31,-1
 381 1087 l 1,32,-1
 286 882 l 1,25,-1
EndSplineSet
Validated: 37
EndChar

StartChar: dcaron
Encoding: 271 271 210
Width: 535
GlyphClass: 1
Flags: W
LayerCount: 2
Fore
SplineSet
522 644 m 1,0,-1
 459 644 l 1,1,-1
 481 850 l 1,2,-1
 589 850 l 1,3,-1
 522 644 l 1,0,-1
214 615 m 0,4,5
 245 615 245 615 276 597 c 128,-1,6
 307 579 307 579 325 555 c 1,7,-1
 325 850 l 1,8,-1
 427 850 l 1,9,-1
 427 -2 l 1,10,11
 426 -2 426 -2 334 -2 c 1,12,-1
 334 58 l 1,13,14
 271 -19 271 -19 200 -18 c 0,15,16
 117 -18 117 -18 77 67.5 c 128,-1,17
 37 153 37 153 37 295 c 0,18,19
 37 441 37 441 81.5 528 c 128,-1,20
 126 615 126 615 214 615 c 0,4,5
228 111 m 0,21,22
 254 111 254 111 280.5 129.5 c 128,-1,23
 307 148 307 148 325 170 c 1,24,-1
 325 432 l 1,25,26
 284 485 284 485 235 487 c 0,27,28
 191 487 191 487 167 432.5 c 128,-1,29
 143 378 143 378 143 297 c 0,30,31
 141 111 141 111 228 111 c 0,21,22
EndSplineSet
Validated: 33
EndChar

StartChar: Dcroat
Encoding: 272 272 211
Width: 556
GlyphClass: 1
Flags: W
LayerCount: 2
Fore
SplineSet
521 395 m 0,0,1
 521 118 521 118 402 40 c 0,2,3
 343 -1 343 -1 234 -2 c 2,4,-1
 59 -2 l 1,5,-1
 59 331 l 1,6,-1
 1 331 l 1,7,-1
 1 461 l 1,8,-1
 59 461 l 1,9,-1
 59 790 l 1,10,11
 60 790 60 790 234 790 c 0,12,13
 337 790 337 790 398.5 751.5 c 128,-1,14
 460 713 460 713 491 624 c 0,15,16
 521 537 521 537 521 395 c 0,0,1
403 396 m 0,17,18
 403 494 403 494 389 545.5 c 128,-1,19
 375 597 375 597 335 619 c 0,20,21
 298 642 298 642 224 643 c 2,22,-1
 172 643 l 1,23,-1
 172 461 l 1,24,-1
 302 461 l 1,25,-1
 302 331 l 1,26,-1
 172 331 l 1,27,-1
 172 148 l 1,28,-1
 224 148 l 2,29,30
 293 148 293 148 331.5 167.5 c 128,-1,31
 370 187 370 187 389 244 c 0,32,33
 403 296 403 296 403 396 c 0,17,18
EndSplineSet
Validated: 1
EndChar

StartChar: dcroat
Encoding: 273 273 212
Width: 482
GlyphClass: 1
Flags: W
LayerCount: 2
Fore
SplineSet
214 615 m 0,0,1
 245 615 245 615 276 597 c 128,-1,2
 307 579 307 579 325 555 c 0,3,4
 325 554 325 554 325 683 c 1,5,-1
 215 683 l 1,6,-1
 215 790 l 1,7,-1
 325 790 l 1,8,-1
 325 850 l 1,9,-1
 427 850 l 1,10,-1
 427 790 l 1,11,-1
 482 790 l 1,12,-1
 482 683 l 1,13,-1
 427 683 l 1,14,-1
 427 -2 l 1,15,16
 426 -2 426 -2 334 -2 c 1,17,-1
 334 58 l 1,18,19
 271 -19 271 -19 200 -18 c 0,20,21
 117 -18 117 -18 77 67.5 c 128,-1,22
 37 153 37 153 37 295 c 0,23,24
 37 441 37 441 81.5 528 c 128,-1,25
 126 615 126 615 214 615 c 0,0,1
228 111 m 0,26,27
 254 111 254 111 280.5 129.5 c 128,-1,28
 307 148 307 148 325 170 c 1,29,-1
 325 432 l 1,30,31
 284 485 284 485 235 487 c 0,32,33
 191 487 191 487 167 432.5 c 128,-1,34
 143 378 143 378 143 297 c 0,35,36
 141 111 141 111 228 111 c 0,26,27
EndSplineSet
Validated: 37
EndChar

StartChar: Emacron
Encoding: 274 274 213
Width: 455
GlyphClass: 1
Flags: W
LayerCount: 2
Fore
SplineSet
59 -2 m 1,0,-1
 59 790 l 1,1,-1
 418 790 l 1,2,-1
 418 648 l 1,3,-1
 172 648 l 1,4,-1
 172 478 l 1,5,-1
 381 478 l 1,6,-1
 381 337 l 1,7,-1
 172 337 l 1,8,-1
 172 148 l 1,9,-1
 418 148 l 1,10,-1
 418 -2 l 1,11,-1
 59 -2 l 1,0,-1
100 908 m 1,12,-1
 100 1014 l 1,13,-1
 369 1014 l 1,14,-1
 369 908 l 1,15,-1
 100 908 l 1,12,-1
EndSplineSet
Validated: 1
EndChar

StartChar: emacron
Encoding: 275 275 214
Width: 455
GlyphClass: 1
Flags: W
LayerCount: 2
Fore
SplineSet
240 615 m 0,0,1
 330 615 330 615 375 543 c 0,2,3
 422 468 422 468 422 332 c 2,4,-1
 422 261 l 1,5,-1
 143 261 l 1,6,7
 146 183 146 183 169.5 147 c 128,-1,8
 193 111 193 111 247 111 c 0,9,10
 311 111 311 111 340 163 c 1,11,-1
 417 85 l 1,12,13
 390 31 390 31 350 6.5 c 128,-1,14
 310 -18 310 -18 241 -18 c 0,15,16
 37 -18 37 -18 37 295 c 0,17,18
 38 615 38 615 240 615 c 0,0,1
319 362 m 1,19,20
 319 498 319 498 236 499 c 0,21,22
 192 499 192 499 173 467 c 0,23,24
 152 435 152 435 146 362 c 1,25,-1
 319 362 l 1,19,20
101 717 m 1,26,-1
 101 823 l 1,27,-1
 369 823 l 1,28,-1
 369 717 l 1,29,-1
 101 717 l 1,26,-1
EndSplineSet
Validated: 1
EndChar

StartChar: Ebreve
Encoding: 276 276 215
Width: 455
GlyphClass: 1
Flags: W
LayerCount: 2
Fore
SplineSet
59 -2 m 1,0,-1
 59 790 l 1,1,-1
 418 790 l 1,2,-1
 418 648 l 1,3,-1
 172 648 l 1,4,-1
 172 478 l 1,5,-1
 381 478 l 1,6,-1
 381 337 l 1,7,-1
 172 337 l 1,8,-1
 172 148 l 1,9,-1
 418 148 l 1,10,-1
 418 -2 l 1,11,-1
 59 -2 l 1,0,-1
251 994 m 128,-1,13
 305 994 305 994 319 1053 c 1,14,-1
 393 1053 l 1,15,16
 393 999 393 999 375 958 c 128,-1,17
 357 917 357 917 326 894 c 0,18,19
 294 869 294 869 250.5 869 c 128,-1,20
 207 869 207 869 175 893.5 c 128,-1,21
 143 918 143 918 124.5 961 c 128,-1,22
 106 1004 106 1004 106 1053 c 1,23,-1
 181 1053 l 1,24,12
 197 994 197 994 251 994 c 128,-1,13
EndSplineSet
Validated: 1
EndChar

StartChar: ebreve
Encoding: 277 277 216
Width: 455
GlyphClass: 1
Flags: W
LayerCount: 2
Fore
SplineSet
240 615 m 0,0,1
 330 615 330 615 375 543 c 0,2,3
 422 468 422 468 422 332 c 2,4,-1
 422 261 l 1,5,-1
 143 261 l 1,6,7
 146 183 146 183 169.5 147 c 128,-1,8
 193 111 193 111 247 111 c 0,9,10
 311 111 311 111 340 163 c 1,11,-1
 417 85 l 1,12,13
 390 31 390 31 350 6.5 c 128,-1,14
 310 -18 310 -18 241 -18 c 0,15,16
 37 -18 37 -18 37 295 c 0,17,18
 38 615 38 615 240 615 c 0,0,1
319 362 m 1,19,20
 319 498 319 498 236 499 c 0,21,22
 192 499 192 499 173 467 c 0,23,24
 152 435 152 435 146 362 c 1,25,-1
 319 362 l 1,19,20
235 802 m 0,26,27
 289 802 289 802 303 862 c 1,28,-1
 379 862 l 1,29,30
 379 808 379 808 359.5 766 c 128,-1,31
 340 724 340 724 310 701 c 0,32,33
 278 676 278 676 235.5 676.5 c 128,-1,34
 193 677 193 677 159 702 c 128,-1,35
 125 727 125 727 107 769.5 c 128,-1,36
 89 812 89 812 89 862 c 1,37,-1
 166 862 l 1,38,39
 179 802 179 802 235 802 c 0,26,27
EndSplineSet
Validated: 33
EndChar

StartChar: Edotaccent
Encoding: 278 278 217
Width: 455
GlyphClass: 1
Flags: W
LayerCount: 2
Fore
SplineSet
59 -2 m 1,0,-1
 59 790 l 1,1,-1
 418 790 l 1,2,-1
 418 648 l 1,3,-1
 172 648 l 1,4,-1
 172 478 l 1,5,-1
 381 478 l 1,6,-1
 381 337 l 1,7,-1
 172 337 l 1,8,-1
 172 148 l 1,9,-1
 418 148 l 1,10,-1
 418 -2 l 1,11,-1
 59 -2 l 1,0,-1
240 1028 m 0,12,13
 271 1028 271 1028 284 1011.5 c 128,-1,14
 297 995 297 995 297 954 c 128,-1,15
 297 913 297 913 283.5 896.5 c 128,-1,16
 270 880 270 880 238.5 880 c 128,-1,17
 207 880 207 880 194 897.5 c 128,-1,18
 181 915 181 915 181 953 c 0,19,20
 181 994 181 994 195.5 1011 c 128,-1,21
 210 1028 210 1028 240 1028 c 0,12,13
EndSplineSet
Validated: 1
EndChar

StartChar: edotaccent
Encoding: 279 279 218
Width: 455
GlyphClass: 1
Flags: W
LayerCount: 2
Fore
SplineSet
240 615 m 0,0,1
 330 615 330 615 375 543 c 0,2,3
 422 468 422 468 422 332 c 2,4,-1
 422 261 l 1,5,-1
 143 261 l 1,6,7
 146 183 146 183 169.5 147 c 128,-1,8
 193 111 193 111 247 111 c 0,9,10
 311 111 311 111 340 163 c 1,11,-1
 417 85 l 1,12,13
 390 31 390 31 350 6.5 c 128,-1,14
 310 -18 310 -18 241 -18 c 0,15,16
 37 -18 37 -18 37 295 c 0,17,18
 38 615 38 615 240 615 c 0,0,1
319 362 m 1,19,20
 319 498 319 498 236 499 c 0,21,22
 192 499 192 499 173 467 c 0,23,24
 152 435 152 435 146 362 c 1,25,-1
 319 362 l 1,19,20
235 837 m 0,26,27
 266 837 266 837 279.5 820 c 128,-1,28
 293 803 293 803 293 762.5 c 128,-1,29
 293 722 293 722 279 705 c 128,-1,30
 265 688 265 688 234.5 688 c 128,-1,31
 204 688 204 688 191.5 705.5 c 128,-1,32
 179 723 179 723 179 761 c 0,33,34
 179 802 179 802 192 819.5 c 128,-1,35
 205 837 205 837 235 837 c 0,26,27
EndSplineSet
Validated: 1
EndChar

StartChar: Eogonek
Encoding: 280 280 219
Width: 455
GlyphClass: 1
Flags: W
LayerCount: 2
Fore
SplineSet
342 -118 m 0,0,1
 364 -118 364 -118 381 -98 c 1,2,-1
 418 -189 l 1,3,4
 365 -225 365 -225 322 -227 c 0,5,6
 281 -227 281 -227 258.5 -201 c 128,-1,7
 236 -175 236 -175 236 -122 c 0,8,9
 236 -45 236 -45 297 -2 c 1,10,-1
 59 -2 l 1,11,-1
 59 790 l 1,12,-1
 418 790 l 1,13,-1
 418 648 l 1,14,-1
 172 648 l 1,15,-1
 172 478 l 1,16,-1
 381 478 l 1,17,-1
 381 337 l 1,18,-1
 172 337 l 1,19,-1
 172 148 l 1,20,-1
 418 148 l 1,21,-1
 418 -2 l 1,22,23
 364 -20 364 -20 341 -38 c 128,-1,24
 318 -56 318 -56 318 -83 c 0,25,26
 319 -118 319 -118 342 -118 c 0,0,1
EndSplineSet
Validated: 1
EndChar

StartChar: eogonek
Encoding: 281 281 220
Width: 455
GlyphClass: 1
Flags: W
LayerCount: 2
Fore
SplineSet
240 615 m 0,0,1
 330 615 330 615 375 543 c 0,2,3
 422 468 422 468 422 332 c 2,4,-1
 422 261 l 1,5,-1
 143 261 l 1,6,7
 146 183 146 183 169.5 147 c 128,-1,8
 193 111 193 111 247 111 c 0,9,10
 311 111 311 111 340 163 c 1,11,-1
 417 85 l 1,12,13
 402 55 402 55 386 36 c 0,14,15
 355 1 355 1 338.5 -26.5 c 128,-1,16
 322 -54 322 -54 322 -83 c 0,17,18
 322 -118 322 -118 345 -118 c 0,19,20
 367 -118 367 -118 383 -98 c 0,21,22
 384 -98 384 -98 422 -189 c 1,23,24
 369 -225 369 -225 326 -227 c 0,25,26
 285 -227 285 -227 262.5 -201 c 128,-1,27
 240 -175 240 -175 240 -123 c 128,-1,28
 240 -71 240 -71 265 -18 c 1,29,-1
 250 -18 l 2,30,31
 141 -18 141 -18 89 59.5 c 128,-1,32
 37 137 37 137 37 295 c 0,33,34
 38 615 38 615 240 615 c 0,0,1
319 362 m 1,35,36
 319 498 319 498 236 499 c 0,37,38
 192 499 192 499 173 467 c 0,39,40
 152 435 152 435 146 362 c 1,41,-1
 319 362 l 1,35,36
EndSplineSet
Validated: 1
EndChar

StartChar: Ecaron
Encoding: 282 282 221
Width: 455
GlyphClass: 1
Flags: W
LayerCount: 2
Fore
SplineSet
59 -2 m 1,0,-1
 59 790 l 1,1,-1
 418 790 l 1,2,-1
 418 648 l 1,3,-1
 172 648 l 1,4,-1
 172 478 l 1,5,-1
 381 478 l 1,6,-1
 381 337 l 1,7,-1
 172 337 l 1,8,-1
 172 148 l 1,9,-1
 418 148 l 1,10,-1
 418 -2 l 1,11,-1
 59 -2 l 1,0,-1
286 882 m 1,12,-1
 190 882 l 1,13,-1
 95 1087 l 1,14,-1
 181 1087 l 1,15,16
 181 1086 181 1086 240 987 c 1,17,-1
 299 1087 l 1,18,-1
 381 1087 l 1,19,-1
 286 882 l 1,12,-1
EndSplineSet
Validated: 1
EndChar

StartChar: ecaron
Encoding: 283 283 222
Width: 455
GlyphClass: 1
Flags: W
LayerCount: 2
Fore
SplineSet
240 615 m 0,0,1
 330 615 330 615 375 543 c 0,2,3
 422 468 422 468 422 332 c 2,4,-1
 422 261 l 1,5,-1
 143 261 l 1,6,7
 146 183 146 183 169.5 147 c 128,-1,8
 193 111 193 111 247 111 c 0,9,10
 311 111 311 111 340 163 c 1,11,-1
 417 85 l 1,12,13
 390 31 390 31 350 6.5 c 128,-1,14
 310 -18 310 -18 241 -18 c 0,15,16
 37 -18 37 -18 37 295 c 0,17,18
 38 615 38 615 240 615 c 0,0,1
319 362 m 1,19,20
 319 498 319 498 236 499 c 0,21,22
 192 499 192 499 173 467 c 0,23,24
 152 435 152 435 146 362 c 1,25,-1
 319 362 l 1,19,20
286 689 m 1,26,-1
 188 689 l 1,27,-1
 93 895 l 1,28,-1
 178 895 l 1,29,-1
 236 796 l 1,30,-1
 297 895 l 1,31,-1
 381 895 l 1,32,-1
 286 689 l 1,26,-1
EndSplineSet
Validated: 1
EndChar

StartChar: Gcircumflex
Encoding: 284 284 223
Width: 559
GlyphClass: 1
Flags: W
LayerCount: 2
Fore
SplineSet
299 -17 m 0,0,1
 164 -17 164 -17 102 83.5 c 128,-1,2
 40 184 40 184 40 388 c 0,3,4
 40 806 40 806 297 806 c 0,5,6
 454 806 454 806 512 666 c 1,7,-1
 427 568 l 1,8,9
 406 616 406 616 375.5 640.5 c 128,-1,10
 345 665 345 665 299 665 c 0,11,12
 222 665 222 665 189 593 c 128,-1,13
 156 521 156 521 156 388 c 0,14,15
 156 256 156 256 187 191.5 c 128,-1,16
 218 127 218 127 297 127 c 0,17,18
 353 127 353 127 398 159 c 1,19,-1
 398 281 l 1,20,21
 397 281 397 281 289 281 c 1,22,-1
 289 424 l 1,23,-1
 512 424 l 1,24,-1
 512 75 l 1,25,26
 475 34 475 34 417.5 8.5 c 128,-1,27
 360 -17 360 -17 299 -17 c 0,0,1
357 882 m 1,28,-1
 299 981 l 1,29,-1
 238 882 l 1,30,-1
 156 882 l 1,31,-1
 249 1087 l 2,32,33
 250 1087 250 1087 345 1087 c 1,34,-1
 439 882 l 1,35,-1
 357 882 l 1,28,-1
EndSplineSet
Validated: 1
EndChar

StartChar: gcircumflex
Encoding: 285 285 224
Width: 482
GlyphClass: 1
Flags: W
LayerCount: 2
Fore
SplineSet
215 615 m 0,0,1
 248 615 248 615 281 594 c 128,-1,2
 314 573 314 573 335 543 c 1,3,-1
 349 599 l 1,4,-1
 427 599 l 1,5,-1
 427 12 l 2,6,7
 427 -118 427 -118 372.5 -172.5 c 128,-1,8
 318 -227 318 -227 213 -227 c 0,9,10
 120 -227 120 -227 47 -175 c 1,11,-1
 77 -54 l 1,12,13
 141 -97 141 -97 213 -97 c 0,14,15
 272 -97 272 -97 299 -74 c 0,16,17
 325 -49 325 -49 325 18 c 2,18,-1
 325 66 l 1,19,20
 273 0 273 0 202 -2 c 0,21,22
 120 -2 120 -2 78.5 82.5 c 128,-1,23
 37 167 37 167 37 305 c 0,24,25
 37 398 37 398 57.5 469.5 c 128,-1,26
 78 541 78 541 118.5 578 c 128,-1,27
 159 615 159 615 215 615 c 0,0,1
233 487 m 0,28,29
 192 487 192 487 167.5 433 c 128,-1,30
 143 379 143 379 143 307 c 0,31,32
 143 217 143 217 166.5 173 c 128,-1,33
 190 129 190 129 226 129 c 0,34,35
 278 129 278 129 325 187 c 1,36,-1
 325 432 l 1,37,38
 285 487 285 487 233 487 c 0,28,29
299 689 m 1,39,40
 299 690 299 690 240 790 c 1,41,-1
 181 689 l 1,42,-1
 98 689 l 1,43,-1
 192 895 l 1,44,-1
 286 895 l 1,45,-1
 382 689 l 1,46,-1
 299 689 l 1,39,40
EndSplineSet
Validated: 1
EndChar

StartChar: Gbreve
Encoding: 286 286 225
Width: 559
GlyphClass: 1
Flags: W
LayerCount: 2
Fore
SplineSet
299 -17 m 0,0,1
 164 -17 164 -17 102 83.5 c 128,-1,2
 40 184 40 184 40 388 c 0,3,4
 40 806 40 806 297 806 c 0,5,6
 454 806 454 806 512 666 c 1,7,-1
 427 568 l 1,8,9
 406 616 406 616 375.5 640.5 c 128,-1,10
 345 665 345 665 299 665 c 0,11,12
 222 665 222 665 189 593 c 128,-1,13
 156 521 156 521 156 388 c 0,14,15
 156 256 156 256 187 191.5 c 128,-1,16
 218 127 218 127 297 127 c 0,17,18
 353 127 353 127 398 159 c 1,19,-1
 398 281 l 1,20,21
 397 281 397 281 289 281 c 1,22,-1
 289 424 l 1,23,-1
 512 424 l 1,24,-1
 512 75 l 1,25,26
 475 34 475 34 417.5 8.5 c 128,-1,27
 360 -17 360 -17 299 -17 c 0,0,1
293 994 m 0,28,29
 347 994 347 994 361 1053 c 1,30,-1
 439 1053 l 1,31,32
 439 999 439 999 420 958 c 128,-1,33
 401 917 401 917 369 894 c 0,34,35
 337 869 337 869 294 869 c 128,-1,36
 251 869 251 869 217.5 893.5 c 128,-1,37
 184 918 184 918 165.5 961 c 128,-1,38
 147 1004 147 1004 147 1053 c 1,39,-1
 225 1053 l 1,40,41
 237 994 237 994 293 994 c 0,28,29
EndSplineSet
Validated: 1
EndChar

StartChar: gbreve
Encoding: 287 287 226
Width: 482
GlyphClass: 1
Flags: W
LayerCount: 2
Fore
SplineSet
215 615 m 0,0,1
 248 615 248 615 281 594 c 128,-1,2
 314 573 314 573 335 543 c 1,3,-1
 349 599 l 1,4,-1
 427 599 l 1,5,-1
 427 12 l 2,6,7
 427 -118 427 -118 372.5 -172.5 c 128,-1,8
 318 -227 318 -227 213 -227 c 0,9,10
 120 -227 120 -227 47 -175 c 1,11,-1
 77 -54 l 1,12,13
 141 -97 141 -97 213 -97 c 0,14,15
 272 -97 272 -97 299 -74 c 0,16,17
 325 -49 325 -49 325 18 c 2,18,-1
 325 66 l 1,19,20
 273 0 273 0 202 -2 c 0,21,22
 120 -2 120 -2 78.5 82.5 c 128,-1,23
 37 167 37 167 37 305 c 0,24,25
 37 398 37 398 57.5 469.5 c 128,-1,26
 78 541 78 541 118.5 578 c 128,-1,27
 159 615 159 615 215 615 c 0,0,1
233 487 m 0,28,29
 192 487 192 487 167.5 433 c 128,-1,30
 143 379 143 379 143 307 c 0,31,32
 143 217 143 217 166.5 173 c 128,-1,33
 190 129 190 129 226 129 c 0,34,35
 278 129 278 129 325 187 c 1,36,-1
 325 432 l 1,37,38
 285 487 285 487 233 487 c 0,28,29
236.5 802 m 128,-1,40
 292 802 292 802 306 862 c 0,41,42
 307 862 307 862 381 862 c 1,43,44
 381 808 381 808 362.5 766 c 128,-1,45
 344 724 344 724 312 701 c 0,46,47
 279 676 279 676 236 676.5 c 128,-1,48
 193 677 193 677 161.5 702 c 128,-1,49
 130 727 130 727 111 769.5 c 128,-1,50
 92 812 92 812 92 862 c 1,51,52
 93 862 93 862 169 862 c 1,53,39
 181 802 181 802 236.5 802 c 128,-1,40
EndSplineSet
Validated: 33
EndChar

StartChar: Gdotaccent
Encoding: 288 288 227
Width: 559
GlyphClass: 1
Flags: W
LayerCount: 2
Fore
SplineSet
299 -17 m 0,0,1
 164 -17 164 -17 102 83.5 c 128,-1,2
 40 184 40 184 40 388 c 0,3,4
 40 806 40 806 297 806 c 0,5,6
 454 806 454 806 512 666 c 1,7,-1
 427 568 l 1,8,9
 406 616 406 616 375.5 640.5 c 128,-1,10
 345 665 345 665 299 665 c 0,11,12
 222 665 222 665 189 593 c 128,-1,13
 156 521 156 521 156 388 c 0,14,15
 156 256 156 256 187 191.5 c 128,-1,16
 218 127 218 127 297 127 c 0,17,18
 353 127 353 127 398 159 c 1,19,-1
 398 281 l 1,20,21
 397 281 397 281 289 281 c 1,22,-1
 289 424 l 1,23,-1
 512 424 l 1,24,-1
 512 75 l 1,25,26
 475 34 475 34 417.5 8.5 c 128,-1,27
 360 -17 360 -17 299 -17 c 0,0,1
289 1028 m 0,28,29
 320 1028 320 1028 334 1011.5 c 128,-1,30
 348 995 348 995 348 954 c 128,-1,31
 348 913 348 913 335 896.5 c 128,-1,32
 322 880 322 880 291.5 880 c 128,-1,33
 261 880 261 880 247.5 897.5 c 128,-1,34
 234 915 234 915 234 953 c 0,35,36
 234 994 234 994 246.5 1011 c 128,-1,37
 259 1028 259 1028 289 1028 c 0,28,29
EndSplineSet
Validated: 1
EndChar

StartChar: gdotaccent
Encoding: 289 289 228
Width: 482
GlyphClass: 1
Flags: W
LayerCount: 2
Fore
SplineSet
215 615 m 0,0,1
 248 615 248 615 281 594 c 128,-1,2
 314 573 314 573 335 543 c 1,3,-1
 349 599 l 1,4,-1
 427 599 l 1,5,-1
 427 12 l 2,6,7
 427 -118 427 -118 372.5 -172.5 c 128,-1,8
 318 -227 318 -227 213 -227 c 0,9,10
 120 -227 120 -227 47 -175 c 1,11,-1
 77 -54 l 1,12,13
 141 -97 141 -97 213 -97 c 0,14,15
 272 -97 272 -97 299 -74 c 0,16,17
 325 -49 325 -49 325 18 c 2,18,-1
 325 66 l 1,19,20
 273 0 273 0 202 -2 c 0,21,22
 120 -2 120 -2 78.5 82.5 c 128,-1,23
 37 167 37 167 37 305 c 0,24,25
 37 398 37 398 57.5 469.5 c 128,-1,26
 78 541 78 541 118.5 578 c 128,-1,27
 159 615 159 615 215 615 c 0,0,1
233 487 m 0,28,29
 192 487 192 487 167.5 433 c 128,-1,30
 143 379 143 379 143 307 c 0,31,32
 143 217 143 217 166.5 173 c 128,-1,33
 190 129 190 129 226 129 c 0,34,35
 278 129 278 129 325 187 c 1,36,-1
 325 432 l 1,37,38
 285 487 285 487 233 487 c 0,28,29
229 837 m 0,39,40
 260 837 260 837 273 820 c 128,-1,41
 286 803 286 803 286 762.5 c 128,-1,42
 286 722 286 722 273.5 705 c 128,-1,43
 261 688 261 688 230.5 688 c 128,-1,44
 200 688 200 688 186 705.5 c 128,-1,45
 172 723 172 723 172 761 c 0,46,47
 172 802 172 802 185.5 819.5 c 128,-1,48
 199 837 199 837 229 837 c 0,39,40
EndSplineSet
Validated: 1
EndChar

StartChar: Gcommaaccent
Encoding: 290 290 229
Width: 559
GlyphClass: 1
Flags: W
LayerCount: 2
Fore
SplineSet
299 -17 m 0,0,1
 164 -17 164 -17 102 83.5 c 128,-1,2
 40 184 40 184 40 388 c 0,3,4
 40 806 40 806 297 806 c 0,5,6
 454 806 454 806 512 666 c 1,7,-1
 427 568 l 1,8,9
 406 616 406 616 375.5 640.5 c 128,-1,10
 345 665 345 665 299 665 c 0,11,12
 222 665 222 665 189 593 c 128,-1,13
 156 521 156 521 156 388 c 0,14,15
 156 256 156 256 187 191.5 c 128,-1,16
 218 127 218 127 297 127 c 0,17,18
 353 127 353 127 398 159 c 1,19,-1
 398 281 l 1,20,21
 397 281 397 281 289 281 c 1,22,-1
 289 424 l 1,23,-1
 512 424 l 1,24,-1
 512 75 l 1,25,26
 475 34 475 34 417.5 8.5 c 128,-1,27
 360 -17 360 -17 299 -17 c 0,0,1
240 -133 m 0,28,29
 240 -85 240 -85 256.5 -63.5 c 128,-1,30
 273 -42 273 -42 308 -42 c 0,31,32
 372 -42 372 -42 371 -145 c 0,33,34
 371 -245 371 -245 324 -322 c 0,35,36
 323 -322 323 -322 257 -322 c 1,37,38
 287 -270 287 -270 291 -223 c 1,39,40
 240 -218 240 -218 240 -133 c 0,28,29
EndSplineSet
Validated: 33
EndChar

StartChar: gcommaaccent
Encoding: 291 291 230
Width: 482
GlyphClass: 1
Flags: W
LayerCount: 2
Fore
SplineSet
215 615 m 0,0,1
 248 615 248 615 281 594 c 128,-1,2
 314 573 314 573 335 543 c 1,3,-1
 349 599 l 1,4,-1
 427 599 l 1,5,-1
 427 12 l 2,6,7
 427 -118 427 -118 372.5 -172.5 c 128,-1,8
 318 -227 318 -227 213 -227 c 0,9,10
 120 -227 120 -227 47 -175 c 1,11,-1
 77 -54 l 1,12,13
 141 -97 141 -97 213 -97 c 0,14,15
 272 -97 272 -97 299 -74 c 0,16,17
 325 -49 325 -49 325 18 c 2,18,-1
 325 66 l 1,19,20
 273 0 273 0 202 -2 c 0,21,22
 120 -2 120 -2 78.5 82.5 c 128,-1,23
 37 167 37 167 37 305 c 0,24,25
 37 398 37 398 57.5 469.5 c 128,-1,26
 78 541 78 541 118.5 578 c 128,-1,27
 159 615 159 615 215 615 c 0,0,1
233 487 m 0,28,29
 192 487 192 487 167.5 433 c 128,-1,30
 143 379 143 379 143 307 c 0,31,32
 143 217 143 217 166.5 173 c 128,-1,33
 190 129 190 129 226 129 c 0,34,35
 278 129 278 129 325 187 c 1,36,-1
 325 432 l 1,37,38
 285 487 285 487 233 487 c 0,28,29
297 756 m 0,39,40
 297 708 297 708 281 687 c 128,-1,41
 265 666 265 666 229 666 c 0,42,43
 165 666 165 666 167 769 c 0,44,45
 167 867 167 867 215 945 c 1,46,-1
 279 945 l 1,47,48
 249 893 249 893 247 845 c 1,49,50
 297 841 297 841 297 756 c 0,39,40
EndSplineSet
Validated: 33
EndChar

StartChar: Hcircumflex
Encoding: 292 292 231
Width: 559
GlyphClass: 1
Flags: W
LayerCount: 2
Fore
SplineSet
392 -2 m 1,0,-1
 392 335 l 1,1,-1
 172 335 l 1,2,-1
 172 -2 l 1,3,-1
 59 -2 l 1,4,-1
 59 790 l 1,5,-1
 172 790 l 1,6,-1
 172 484 l 1,7,-1
 392 484 l 1,8,-1
 392 790 l 1,9,-1
 503 790 l 1,10,-1
 503 -2 l 1,11,-1
 392 -2 l 1,0,-1
344 882 m 1,12,-1
 286 981 l 1,13,-1
 225 882 l 1,14,-1
 142 882 l 1,15,-1
 236 1087 l 1,16,-1
 334 1087 l 1,17,-1
 427 882 l 1,18,-1
 344 882 l 1,12,-1
EndSplineSet
Validated: 1
EndChar

StartChar: hcircumflex
Encoding: 293 293 232
Width: 482
GlyphClass: 1
Flags: W
LayerCount: 2
Fore
SplineSet
304 615 m 0,0,1
 372 615 372 615 401.5 560.5 c 128,-1,2
 431 506 431 506 431 400 c 2,3,-1
 431 -2 l 1,4,-1
 329 -2 l 1,5,-1
 329 330 l 2,6,7
 329 424 329 424 316.5 455.5 c 128,-1,8
 304 487 304 487 272 487 c 0,9,10
 226 487 226 487 161 400 c 1,11,-1
 161 -2 l 1,12,-1
 58 -2 l 1,13,-1
 58 850 l 1,14,-1
 161 850 l 1,15,-1
 161 521 l 1,16,17
 227 615 227 615 304 615 c 0,0,1
312 882 m 1,18,-1
 252 981 l 1,19,-1
 193 882 l 1,20,-1
 111 882 l 1,21,22
 112 882 112 882 204 1087 c 1,23,-1
 302 1087 l 1,24,-1
 396 882 l 1,25,-1
 312 882 l 1,18,-1
EndSplineSet
Validated: 1
EndChar

StartChar: Hbar
Encoding: 294 294 233
Width: 559
GlyphClass: 1
Flags: W
LayerCount: 2
Fore
SplineSet
392 -2 m 1,0,-1
 392 335 l 1,1,-1
 172 335 l 1,2,-1
 172 -2 l 1,3,-1
 59 -2 l 1,4,-1
 59 566 l 1,5,6
 60 566 60 566 5 566 c 1,7,-1
 5 683 l 1,8,-1
 59 683 l 1,9,-1
 59 790 l 1,10,-1
 172 790 l 1,11,-1
 172 683 l 1,12,-1
 392 683 l 1,13,-1
 392 790 l 1,14,-1
 503 790 l 1,15,-1
 503 683 l 1,16,-1
 559 683 l 1,17,-1
 559 566 l 1,18,-1
 503 566 l 1,19,-1
 503 -2 l 1,20,-1
 392 -2 l 1,0,-1
392 484 m 1,21,-1
 392 566 l 1,22,-1
 172 566 l 1,23,-1
 172 484 l 1,24,-1
 392 484 l 1,21,-1
EndSplineSet
Validated: 33
EndChar

StartChar: hbar
Encoding: 295 295 234
Width: 482
GlyphClass: 1
Flags: W
LayerCount: 2
Fore
SplineSet
304 615 m 0,0,1
 372 615 372 615 401.5 560.5 c 128,-1,2
 431 506 431 506 431 400 c 2,3,-1
 431 -2 l 1,4,-1
 329 -2 l 1,5,-1
 329 330 l 2,6,7
 329 424 329 424 316.5 455.5 c 128,-1,8
 304 487 304 487 272 487 c 0,9,10
 226 487 226 487 161 400 c 1,11,-1
 161 -2 l 1,12,-1
 58 -2 l 1,13,-1
 58 683 l 1,14,-1
 1 683 l 1,15,-1
 1 790 l 1,16,-1
 58 790 l 1,17,-1
 58 850 l 1,18,-1
 161 850 l 1,19,-1
 161 790 l 1,20,-1
 270 790 l 1,21,-1
 270 683 l 1,22,-1
 161 683 l 1,23,-1
 161 521 l 1,24,25
 227 615 227 615 304 615 c 0,0,1
EndSplineSet
Validated: 1
EndChar

StartChar: Itilde
Encoding: 296 296 235
Width: 345
GlyphClass: 1
Flags: W
LayerCount: 2
Fore
SplineSet
308 -2 m 1,0,1
 309 -2 309 -2 41 -2 c 1,2,-1
 41 124 l 1,3,-1
 119 124 l 1,4,-1
 119 666 l 1,5,6
 120 666 120 666 41 666 c 1,7,-1
 41 790 l 1,8,-1
 308 790 l 1,9,-1
 308 666 l 1,10,-1
 229 666 l 1,11,-1
 229 124 l 1,12,-1
 308 124 l 1,13,-1
 308 -2 l 1,0,1
340 1068 m 1,14,15
 335 980 335 980 310.5 932 c 128,-1,16
 286 884 286 884 235 884 c 0,17,18
 224 884 224 884 213 887.5 c 128,-1,19
 202 891 202 891 195 895.5 c 128,-1,20
 188 900 188 900 178.5 908.5 c 128,-1,21
 169 917 169 917 163.5 921.5 c 128,-1,22
 158 926 158 926 149 938.5 c 128,-1,23
 140 951 140 951 137 953 c 0,24,25
 127 966 127 966 113 968 c 0,26,27
 86 968 86 968 88 894 c 1,28,-1
 15 894 l 1,29,30
 16 979 16 979 41 1027 c 0,31,32
 68 1077 68 1077 120 1075 c 0,33,34
 155 1075 155 1075 193 1036 c 0,35,36
 206 1020 206 1020 217 1007.5 c 128,-1,37
 228 995 228 995 240 995 c 0,38,39
 267 995 267 995 268 1068 c 1,40,-1
 340 1068 l 1,14,15
EndSplineSet
Validated: 33
EndChar

StartChar: itilde
Encoding: 297 297 236
Width: 216
GlyphClass: 1
Flags: W
LayerCount: 2
Fore
SplineSet
58 -2 m 1,0,-1
 58 599 l 1,1,-1
 161 599 l 1,2,-1
 161 -2 l 1,3,-1
 58 -2 l 1,0,-1
272 875 m 1,4,5
 267 787 267 787 243.5 739.5 c 128,-1,6
 220 692 220 692 167 692 c 0,7,8
 156 692 156 692 144.5 695.5 c 128,-1,9
 133 699 133 699 126 702.5 c 128,-1,10
 119 706 119 706 109.5 715 c 128,-1,11
 100 724 100 724 95 729 c 128,-1,12
 90 734 90 734 81 746.5 c 128,-1,13
 72 759 72 759 68 761 c 0,14,15
 58 774 58 774 44 776 c 0,16,17
 18 776 18 776 18 702 c 1,18,-1
 -54 702 l 1,19,20
 -53 787 -53 787 -27 835.5 c 128,-1,21
 -1 884 -1 884 52 884 c 0,22,23
 87 884 87 884 123 844 c 0,24,25
 136 828 136 828 147 815.5 c 128,-1,26
 158 803 158 803 171 803 c 0,27,28
 198 803 198 803 199 875 c 1,29,-1
 272 875 l 1,4,5
EndSplineSet
Validated: 1
EndChar

StartChar: Imacron
Encoding: 298 298 237
Width: 345
GlyphClass: 1
Flags: W
LayerCount: 2
Fore
SplineSet
308 -2 m 1,0,1
 309 -2 309 -2 41 -2 c 1,2,-1
 41 124 l 1,3,-1
 119 124 l 1,4,-1
 119 666 l 1,5,6
 120 666 120 666 41 666 c 1,7,-1
 41 790 l 1,8,-1
 308 790 l 1,9,-1
 308 666 l 1,10,-1
 229 666 l 1,11,-1
 229 124 l 1,12,-1
 308 124 l 1,13,-1
 308 -2 l 1,0,1
41 908 m 1,14,-1
 41 1014 l 1,15,-1
 310 1014 l 1,16,-1
 310 908 l 1,17,-1
 41 908 l 1,14,-1
EndSplineSet
Validated: 33
EndChar

StartChar: imacron
Encoding: 299 299 238
Width: 216
GlyphClass: 1
Flags: W
LayerCount: 2
Fore
SplineSet
58 -2 m 1,0,-1
 58 599 l 1,1,-1
 161 599 l 1,2,-1
 161 -2 l 1,3,-1
 58 -2 l 1,0,-1
-23 717 m 1,4,-1
 -23 823 l 1,5,-1
 245 823 l 1,6,-1
 245 717 l 1,7,-1
 -23 717 l 1,4,-1
EndSplineSet
Validated: 1
EndChar

StartChar: Ibreve
Encoding: 300 300 239
Width: 345
GlyphClass: 1
Flags: W
LayerCount: 2
Fore
SplineSet
308 -2 m 1,0,1
 309 -2 309 -2 41 -2 c 1,2,-1
 41 124 l 1,3,-1
 119 124 l 1,4,-1
 119 666 l 1,5,6
 120 666 120 666 41 666 c 1,7,-1
 41 790 l 1,8,-1
 308 790 l 1,9,-1
 308 666 l 1,10,-1
 229 666 l 1,11,-1
 229 124 l 1,12,-1
 308 124 l 1,13,-1
 308 -2 l 1,0,1
177 994 m 0,14,15
 231 994 231 994 245 1053 c 1,16,-1
 322 1053 l 1,17,18
 322 999 322 999 302.5 958 c 128,-1,19
 283 917 283 917 251 894 c 0,20,21
 218 869 218 869 176.5 869 c 128,-1,22
 135 869 135 869 101 893.5 c 128,-1,23
 67 918 67 918 49 961 c 128,-1,24
 31 1004 31 1004 31 1053 c 1,25,-1
 109 1053 l 1,26,27
 121 994 121 994 177 994 c 0,14,15
EndSplineSet
Validated: 33
EndChar

StartChar: ibreve
Encoding: 301 301 240
Width: 216
GlyphClass: 1
Flags: W
LayerCount: 2
Fore
SplineSet
58 -2 m 1,0,-1
 58 599 l 1,1,-1
 161 599 l 1,2,-1
 161 -2 l 1,3,-1
 58 -2 l 1,0,-1
110 802 m 0,4,5
 164 802 164 802 177 862 c 1,6,-1
 251 862 l 1,7,8
 251 808 251 808 233 766 c 128,-1,9
 215 724 215 724 183 701 c 0,10,11
 151 676 151 676 107.5 676.5 c 128,-1,12
 64 677 64 677 32 702 c 128,-1,13
 0 727 0 727 -18 769.5 c 128,-1,14
 -36 812 -36 812 -36 862 c 1,15,-1
 41 862 l 1,16,17
 54 802 54 802 110 802 c 0,4,5
EndSplineSet
Validated: 33
EndChar

StartChar: Iogonek
Encoding: 302 302 241
Width: 345
GlyphClass: 1
Flags: W
LayerCount: 2
Fore
SplineSet
229 -118 m 0,0,1
 251 -118 251 -118 271 -98 c 1,2,-1
 308 -189 l 1,3,4
 256 -225 256 -225 213 -227 c 0,5,6
 172 -227 172 -227 147.5 -201 c 128,-1,7
 123 -175 123 -175 123 -122 c 0,8,9
 123 -45 123 -45 184 -2 c 1,10,-1
 41 -2 l 1,11,-1
 41 124 l 1,12,-1
 119 124 l 1,13,-1
 119 666 l 1,14,15
 120 666 120 666 41 666 c 1,16,-1
 41 790 l 1,17,-1
 308 790 l 1,18,-1
 308 666 l 1,19,-1
 229 666 l 1,20,-1
 229 124 l 1,21,-1
 308 124 l 1,22,-1
 308 -2 l 1,23,24
 254 -20 254 -20 229 -38 c 128,-1,25
 204 -56 204 -56 204 -83 c 0,26,27
 206 -118 206 -118 229 -118 c 0,0,1
EndSplineSet
Validated: 33
EndChar

StartChar: iogonek
Encoding: 303 303 242
Width: 216
GlyphClass: 1
Flags: W
LayerCount: 2
Fore
SplineSet
82 -227 m 0,0,1
 41 -227 41 -227 18 -201 c 128,-1,2
 -5 -175 -5 -175 -5 -122 c 0,3,4
 -5 -45 -5 -45 58 2 c 1,5,-1
 58 599 l 1,6,-1
 161 599 l 1,7,-1
 161 -2 l 1,8,9
 120 -15 120 -15 98.5 -35.5 c 128,-1,10
 77 -56 77 -56 77 -83 c 0,11,12
 77 -118 77 -118 100 -118 c 0,13,14
 122 -118 122 -118 140 -98 c 1,15,-1
 178 -189 l 1,16,17
 126 -227 126 -227 82 -227 c 0,0,1
110 837 m 0,18,19
 141 837 141 837 154.5 820 c 128,-1,20
 168 803 168 803 168 761 c 0,21,22
 168 720 168 720 153.5 704 c 128,-1,23
 139 688 139 688 110 688 c 0,24,25
 80 688 80 688 66.5 705.5 c 128,-1,26
 53 723 53 723 53 761 c 0,27,28
 53 802 53 802 66.5 819.5 c 128,-1,29
 80 837 80 837 110 837 c 0,18,19
EndSplineSet
Validated: 1
EndChar

StartChar: Idotaccent
Encoding: 304 304 243
Width: 345
GlyphClass: 1
Flags: W
LayerCount: 2
Fore
SplineSet
308 -2 m 1,0,1
 309 -2 309 -2 41 -2 c 1,2,-1
 41 124 l 1,3,-1
 119 124 l 1,4,-1
 119 666 l 1,5,6
 120 666 120 666 41 666 c 1,7,-1
 41 790 l 1,8,-1
 308 790 l 1,9,-1
 308 666 l 1,10,-1
 229 666 l 1,11,-1
 229 124 l 1,12,-1
 308 124 l 1,13,-1
 308 -2 l 1,0,1
171 1028 m 0,14,15
 202 1028 202 1028 215.5 1011.5 c 128,-1,16
 229 995 229 995 229 954 c 128,-1,17
 229 913 229 913 216 896.5 c 128,-1,18
 203 880 203 880 172.5 880 c 128,-1,19
 142 880 142 880 128.5 897.5 c 128,-1,20
 115 915 115 915 115 953 c 0,21,22
 115 994 115 994 128 1011 c 128,-1,23
 141 1028 141 1028 171 1028 c 0,14,15
EndSplineSet
Validated: 33
EndChar

StartChar: dotlessi
Encoding: 305 305 244
Width: 216
GlyphClass: 1
Flags: W
LayerCount: 2
Fore
SplineSet
58 -2 m 1,0,-1
 58 599 l 1,1,-1
 161 599 l 1,2,-1
 161 -2 l 1,3,-1
 58 -2 l 1,0,-1
EndSplineSet
Validated: 1
EndChar

StartChar: IJ
Encoding: 306 306 245
Width: 689
GlyphClass: 1
Flags: W
LayerCount: 2
Fore
SplineSet
308 -2 m 1,0,1
 309 -2 309 -2 41 -2 c 1,2,-1
 41 124 l 1,3,-1
 119 124 l 1,4,-1
 119 666 l 1,5,6
 120 666 120 666 41 666 c 1,7,-1
 41 790 l 1,8,-1
 308 790 l 1,9,-1
 308 666 l 1,10,-1
 229 666 l 1,11,-1
 229 124 l 1,12,-1
 308 124 l 1,13,-1
 308 -2 l 1,0,1
369 158 m 1,14,15
 380 151 380 151 409.5 138 c 128,-1,16
 439 125 439 125 450 125 c 0,17,18
 480 125 480 125 494 134.5 c 128,-1,19
 508 144 508 144 513 175 c 0,20,21
 518 205 518 205 521 259 c 2,22,-1
 521 790 l 1,23,-1
 631 790 l 1,24,-1
 631 216 l 2,25,26
 631 91 631 91 587 36.5 c 128,-1,27
 543 -18 543 -18 450 -18 c 0,28,29
 427 -18 427 -18 388.5 -8 c 128,-1,30
 350 2 350 2 334 13 c 1,31,-1
 369 158 l 1,14,15
EndSplineSet
Validated: 33
EndChar

StartChar: ij
Encoding: 307 307 246
Width: 441
GlyphClass: 1
Flags: W
LayerCount: 2
Fore
SplineSet
110 837 m 0,0,1
 141 837 141 837 154.5 820 c 128,-1,2
 168 803 168 803 168 762.5 c 128,-1,3
 168 722 168 722 153.5 705 c 128,-1,4
 139 688 139 688 108.5 688 c 128,-1,5
 78 688 78 688 65.5 705.5 c 128,-1,6
 53 723 53 723 53 761 c 0,7,8
 53 802 53 802 66.5 819.5 c 128,-1,9
 80 837 80 837 110 837 c 0,0,1
58 -2 m 1,10,-1
 58 599 l 1,11,-1
 161 599 l 1,12,-1
 161 -2 l 1,13,-1
 58 -2 l 1,10,-1
334 837 m 0,14,15
 365 837 365 837 378.5 820 c 128,-1,16
 392 803 392 803 392 762.5 c 128,-1,17
 392 722 392 722 379 705 c 128,-1,18
 366 688 366 688 335 688 c 128,-1,19
 304 688 304 688 290.5 705.5 c 128,-1,20
 277 723 277 723 277 761 c 0,21,22
 277 802 277 802 290.5 819.5 c 128,-1,23
 304 837 304 837 334 837 c 0,14,15
386 -26 m 2,24,25
 386 -135 386 -135 352.5 -181 c 128,-1,26
 319 -227 319 -227 243 -227 c 0,27,28
 225 -227 225 -227 196.5 -221 c 128,-1,29
 168 -215 168 -215 156 -208 c 1,30,-1
 177 -82 l 1,31,32
 207 -100 207 -100 238.5 -98.5 c 128,-1,33
 270 -97 270 -97 276.5 -69.5 c 128,-1,34
 283 -42 283 -42 283 21 c 2,35,-1
 283 599 l 1,36,-1
 386 599 l 1,37,-1
 386 -26 l 2,24,25
EndSplineSet
Validated: 33
EndChar

StartChar: Jcircumflex
Encoding: 308 308 247
Width: 366
GlyphClass: 1
Flags: W
LayerCount: 2
Fore
SplineSet
41 158 m 1,0,1
 52 151 52 151 82.5 138 c 128,-1,2
 113 125 113 125 127 125 c 0,3,4
 157 125 157 125 170 134.5 c 128,-1,5
 183 144 183 144 190 175 c 0,6,7
 195 205 195 205 194 259 c 2,8,-1
 194 790 l 1,9,-1
 308 790 l 1,10,-1
 308 216 l 2,11,12
 308 91 308 91 264 36.5 c 128,-1,13
 220 -18 220 -18 124 -18 c 0,14,15
 101 -18 101 -18 64 -8 c 128,-1,16
 27 2 27 2 7 13 c 1,17,-1
 41 158 l 1,0,1
312 882 m 1,18,-1
 252 981 l 1,19,-1
 193 882 l 1,20,-1
 111 882 l 1,21,22
 112 882 112 882 204 1087 c 1,23,-1
 302 1087 l 1,24,-1
 396 882 l 1,25,-1
 312 882 l 1,18,-1
EndSplineSet
Validated: 33
EndChar

StartChar: jcircumflex
Encoding: 309 309 248
Width: 220
GlyphClass: 1
Flags: W
LayerCount: 2
Fore
SplineSet
168 -26 m 2,0,1
 168 -135 168 -135 134 -181 c 128,-1,2
 100 -227 100 -227 23 -227 c 0,3,4
 5 -227 5 -227 -24 -221 c 128,-1,5
 -53 -215 -53 -215 -64 -208 c 1,6,-1
 -41 -82 l 1,7,8
 -11 -100 -11 -100 19.5 -98.5 c 128,-1,9
 50 -97 50 -97 57 -69.5 c 128,-1,10
 64 -42 64 -42 64 21 c 2,11,-1
 64 599 l 1,12,-1
 168 599 l 1,13,-1
 168 -26 l 2,0,1
172 689 m 1,14,15
 172 690 172 690 115 790 c 1,16,-1
 56 689 l 1,17,-1
 -30 689 l 1,18,-1
 66 895 l 1,19,-1
 164 895 l 1,20,-1
 257 689 l 1,21,-1
 172 689 l 1,14,15
EndSplineSet
Validated: 33
EndChar

StartChar: Kcommaaccent
Encoding: 310 310 249
Width: 509
GlyphClass: 1
Flags: W
LayerCount: 2
Fore
SplineSet
359 -2 m 1,0,-1
 204 330 l 1,1,-1
 172 275 l 1,2,-1
 172 -2 l 1,3,-1
 59 -2 l 1,4,-1
 59 790 l 1,5,-1
 172 790 l 1,6,-1
 172 481 l 1,7,-1
 355 790 l 1,8,-1
 485 790 l 1,9,-1
 279 450 l 1,10,-1
 501 -2 l 1,11,-1
 359 -2 l 1,0,-1
184 -133 m 0,12,13
 184 -85 184 -85 200 -63.5 c 128,-1,14
 216 -42 216 -42 251 -42 c 0,15,16
 315 -42 315 -42 314 -145 c 0,17,18
 314 -245 314 -245 266 -322 c 1,19,-1
 202 -322 l 1,20,21
 232 -270 232 -270 234 -223 c 1,22,23
 184 -218 184 -218 184 -133 c 0,12,13
EndSplineSet
Validated: 33
EndChar

StartChar: kcommaaccent
Encoding: 311 311 250
Width: 435
GlyphClass: 1
Flags: W
LayerCount: 2
Fore
SplineSet
313 -2 m 1,0,-1
 202 248 l 1,1,-1
 161 186 l 1,2,-1
 161 -2 l 1,3,-1
 58 -2 l 1,4,-1
 58 850 l 1,5,-1
 161 850 l 1,6,-1
 161 363 l 1,7,-1
 302 599 l 1,8,-1
 422 599 l 1,9,-1
 262 347 l 1,10,-1
 429 -2 l 1,11,-1
 313 -2 l 1,0,-1
149 -133 m 0,12,13
 149 -85 149 -85 165 -63.5 c 128,-1,14
 181 -42 181 -42 216 -42 c 0,15,16
 280 -42 280 -42 279 -145 c 0,17,18
 279 -245 279 -245 233 -322 c 1,19,-1
 167 -322 l 1,20,21
 197 -270 197 -270 200 -223 c 1,22,23
 149 -218 149 -218 149 -133 c 0,12,13
EndSplineSet
Validated: 33
EndChar

StartChar: kgreenlandic
Encoding: 312 312 251
Width: 435
GlyphClass: 1
Flags: W
LayerCount: 2
Fore
SplineSet
313 -2 m 1,0,-1
 202 248 l 1,1,-1
 161 186 l 1,2,-1
 161 -2 l 1,3,-1
 58 -2 l 1,4,-1
 58 599 l 1,5,-1
 161 599 l 1,6,-1
 161 363 l 1,7,-1
 283 566 l 2,8,9
 313 616 313 616 348 615 c 0,10,11
 371 615 371 615 418 599 c 1,12,-1
 393 488 l 1,13,14
 375 497 375 497 366 497 c 128,-1,15
 357 497 357 497 348 481 c 2,16,-1
 262 347 l 1,17,-1
 429 -2 l 1,18,-1
 313 -2 l 1,0,-1
EndSplineSet
Validated: 33
EndChar

StartChar: Lacute
Encoding: 313 313 252
Width: 410
GlyphClass: 1
Flags: W
LayerCount: 2
Fore
SplineSet
59 -2 m 1,0,-1
 59 790 l 1,1,-1
 172 790 l 1,2,-1
 172 148 l 1,3,-1
 403 148 l 1,4,-1
 403 -2 l 1,5,-1
 59 -2 l 1,0,-1
223 882 m 2,6,7
 222 882 222 882 140 882 c 1,8,-1
 216 1087 l 1,9,-1
 344 1087 l 1,10,-1
 223 882 l 2,6,7
EndSplineSet
Validated: 1
EndChar

StartChar: lacute
Encoding: 314 314 253
Width: 216
GlyphClass: 1
Flags: W
LayerCount: 2
Fore
SplineSet
58 87 m 2,0,-1
 58 850 l 1,1,-1
 161 850 l 1,2,-1
 161 87 l 2,3,4
 161 62 161 62 172.5 53.5 c 128,-1,5
 184 45 184 45 220 39 c 1,6,-1
 157 -76 l 1,7,8
 104 -76 104 -76 81.5 -38.5 c 128,-1,9
 59 -1 59 -1 58 87 c 2,0,-1
123 884 m 1,10,-1
 41 884 l 1,11,-1
 116 1088 l 1,12,-1
 243 1088 l 1,13,-1
 123 884 l 1,10,-1
EndSplineSet
Validated: 1
EndChar

StartChar: Lcommaaccent
Encoding: 315 315 254
Width: 410
GlyphClass: 1
Flags: W
LayerCount: 2
Fore
SplineSet
59 -2 m 1,0,-1
 59 790 l 1,1,-1
 172 790 l 1,2,-1
 172 148 l 1,3,-1
 403 148 l 1,4,-1
 403 -2 l 1,5,-1
 59 -2 l 1,0,-1
166 -133 m 0,6,7
 166 -85 166 -85 181 -63.5 c 128,-1,8
 196 -42 196 -42 231 -42 c 0,9,10
 295 -42 295 -42 297 -145 c 0,11,12
 297 -245 297 -245 249 -322 c 1,13,14
 250 -322 250 -322 181 -322 c 1,15,16
 211 -270 211 -270 216 -223 c 1,17,18
 166 -218 166 -218 166 -133 c 0,6,7
EndSplineSet
Validated: 37
EndChar

StartChar: lcommaaccent
Encoding: 316 316 255
Width: 216
GlyphClass: 1
Flags: W
LayerCount: 2
Fore
SplineSet
58 87 m 2,0,-1
 58 850 l 1,1,-1
 161 850 l 1,2,-1
 161 87 l 2,3,4
 161 62 161 62 172.5 53.5 c 128,-1,5
 184 45 184 45 220 39 c 1,6,-1
 157 -76 l 1,7,8
 104 -76 104 -76 81.5 -38.5 c 128,-1,9
 59 -1 59 -1 58 87 c 2,0,-1
47 -133 m 0,10,11
 47 -85 47 -85 62 -63.5 c 128,-1,12
 77 -42 77 -42 113 -42 c 0,13,14
 177 -42 177 -42 177 -145 c 0,15,16
 177 -245 177 -245 131 -322 c 1,17,-1
 64 -322 l 1,18,19
 94 -270 94 -270 98 -223 c 1,20,21
 47 -218 47 -218 47 -133 c 0,10,11
EndSplineSet
Validated: 5
EndChar

StartChar: Lcaron
Encoding: 317 317 256
Width: 410
GlyphClass: 1
Flags: W
LayerCount: 2
Fore
SplineSet
59 -2 m 1,0,-1
 59 790 l 1,1,-1
 172 790 l 1,2,-1
 172 148 l 1,3,-1
 403 148 l 1,4,-1
 403 -2 l 1,5,-1
 59 -2 l 1,0,-1
270 586 m 1,6,-1
 204 586 l 1,7,-1
 228 791 l 1,8,-1
 335 791 l 1,9,-1
 270 586 l 1,6,-1
EndSplineSet
Validated: 1
EndChar

StartChar: lcaron
Encoding: 318 318 257
Width: 267
GlyphClass: 1
Flags: W
LayerCount: 2
Fore
SplineSet
58 87 m 2,0,-1
 58 850 l 1,1,-1
 161 850 l 1,2,-1
 161 87 l 2,3,4
 161 62 161 62 172.5 53.5 c 128,-1,5
 184 45 184 45 220 39 c 1,6,-1
 157 -76 l 1,7,8
 104 -76 104 -76 81.5 -38.5 c 128,-1,9
 59 -1 59 -1 58 87 c 2,0,-1
252 644 m 1,10,-1
 190 644 l 1,11,-1
 213 850 l 1,12,-1
 322 850 l 1,13,-1
 252 644 l 1,10,-1
EndSplineSet
Validated: 1
EndChar

StartChar: Ldot
Encoding: 319 319 258
Width: 410
GlyphClass: 1
Flags: W
LayerCount: 2
Fore
SplineSet
59 -2 m 1,0,-1
 59 790 l 1,1,-1
 172 790 l 1,2,-1
 172 148 l 1,3,-1
 403 148 l 1,4,-1
 403 -2 l 1,5,-1
 59 -2 l 1,0,-1
322 509 m 0,6,7
 353 509 353 509 367 492.5 c 128,-1,8
 381 476 381 476 381 435 c 128,-1,9
 381 394 381 394 366.5 377 c 128,-1,10
 352 360 352 360 321.5 360 c 128,-1,11
 291 360 291 360 278 377.5 c 128,-1,12
 265 395 265 395 265 435 c 0,13,14
 265 476 265 476 278.5 492.5 c 128,-1,15
 292 509 292 509 322 509 c 0,6,7
EndSplineSet
Validated: 1
EndChar

StartChar: ldot
Encoding: 320 320 259
Width: 328
GlyphClass: 1
Flags: W
LayerCount: 2
Fore
SplineSet
58 87 m 2,0,-1
 58 850 l 1,1,-1
 161 850 l 1,2,-1
 161 87 l 2,3,4
 161 62 161 62 172.5 53.5 c 128,-1,5
 184 45 184 45 220 39 c 1,6,-1
 157 -76 l 1,7,8
 104 -76 104 -76 81.5 -38.5 c 128,-1,9
 59 -1 59 -1 58 87 c 2,0,-1
276 509 m 0,10,11
 307 509 307 509 320.5 492.5 c 128,-1,12
 334 476 334 476 334 435 c 128,-1,13
 334 394 334 394 320 377 c 128,-1,14
 306 360 306 360 275.5 360 c 128,-1,15
 245 360 245 360 231.5 377.5 c 128,-1,16
 218 395 218 395 218 435 c 0,17,18
 218 476 218 476 232 492.5 c 128,-1,19
 246 509 246 509 276 509 c 0,10,11
EndSplineSet
Validated: 1
EndChar

StartChar: Lslash
Encoding: 321 321 260
Width: 410
GlyphClass: 1
Flags: W
LayerCount: 2
Fore
SplineSet
59 -2 m 1,0,-1
 59 285 l 1,1,2
 60 285 60 285 5 222 c 1,3,-1
 5 377 l 1,4,-1
 59 440 l 1,5,-1
 59 790 l 1,6,-1
 172 790 l 1,7,-1
 172 552 l 1,8,9
 171 552 171 552 262 653 c 1,10,-1
 262 499 l 1,11,-1
 172 399 l 1,12,-1
 172 148 l 1,13,-1
 403 148 l 1,14,-1
 403 -2 l 1,15,-1
 59 -2 l 1,0,-1
EndSplineSet
Validated: 37
EndChar

StartChar: lslash
Encoding: 322 322 261
Width: 216
GlyphClass: 1
Flags: W
LayerCount: 2
Fore
SplineSet
161 420 m 1,0,-1
 161 -2 l 1,1,-1
 58 -2 l 1,2,-1
 58 284 l 1,3,-1
 5 206 l 1,4,-1
 5 338 l 1,5,-1
 58 416 l 1,6,-1
 58 850 l 1,7,-1
 161 850 l 1,8,-1
 161 553 l 1,9,-1
 216 631 l 1,10,-1
 216 499 l 1,11,-1
 161 420 l 1,0,-1
EndSplineSet
Validated: 1
EndChar

StartChar: Nacute
Encoding: 323 323 262
Width: 559
GlyphClass: 1
Flags: W
LayerCount: 2
Fore
SplineSet
371 -2 m 1,0,-1
 169 565 l 1,1,-1
 169 -2 l 1,2,-1
 59 -2 l 1,3,-1
 59 790 l 1,4,-1
 204 790 l 1,5,-1
 393 256 l 1,6,-1
 393 790 l 1,7,-1
 505 790 l 1,8,-1
 505 -2 l 1,9,-1
 371 -2 l 1,0,-1
289 882 m 1,10,-1
 207 882 l 1,11,-1
 285 1087 l 1,12,-1
 412 1087 l 1,13,-1
 289 882 l 1,10,-1
EndSplineSet
Validated: 1
EndChar

StartChar: nacute
Encoding: 324 324 263
Width: 482
GlyphClass: 1
Flags: W
LayerCount: 2
Fore
SplineSet
304 615 m 0,0,1
 372 615 372 615 401.5 562 c 128,-1,2
 431 509 431 509 431 400 c 2,3,-1
 431 -2 l 1,4,-1
 329 -2 l 1,5,-1
 329 330 l 2,6,7
 329 423 329 423 316.5 455 c 128,-1,8
 304 487 304 487 272 487 c 0,9,10
 226 487 226 487 161 400 c 1,11,-1
 161 -2 l 1,12,-1
 58 -2 l 1,13,-1
 58 599 l 1,14,-1
 161 599 l 1,15,-1
 161 521 l 1,16,17
 227 615 227 615 304 615 c 0,0,1
262 689 m 1,18,-1
 181 689 l 1,19,-1
 257 895 l 1,20,-1
 383 895 l 1,21,-1
 262 689 l 1,18,-1
EndSplineSet
Validated: 1
EndChar

StartChar: Ncommaaccent
Encoding: 325 325 264
Width: 559
GlyphClass: 1
Flags: W
LayerCount: 2
Fore
SplineSet
371 -2 m 1,0,-1
 169 565 l 1,1,-1
 169 -2 l 1,2,-1
 59 -2 l 1,3,-1
 59 790 l 1,4,-1
 204 790 l 1,5,-1
 393 256 l 1,6,-1
 393 790 l 1,7,-1
 505 790 l 1,8,-1
 505 -2 l 1,9,-1
 371 -2 l 1,0,-1
225 -133 m 0,10,11
 225 -85 225 -85 240.5 -63.5 c 128,-1,12
 256 -42 256 -42 291 -42 c 0,13,14
 355 -42 355 -42 357 -145 c 0,15,16
 357 -245 357 -245 308 -322 c 0,17,18
 307 -322 307 -322 240 -322 c 1,19,20
 270 -270 270 -270 276 -223 c 1,21,22
 226 -218 226 -218 225 -133 c 0,10,11
EndSplineSet
Validated: 1
EndChar

StartChar: ncommaaccent
Encoding: 326 326 265
Width: 482
GlyphClass: 1
Flags: W
LayerCount: 2
Fore
SplineSet
304 615 m 0,0,1
 372 615 372 615 401.5 562 c 128,-1,2
 431 509 431 509 431 400 c 2,3,-1
 431 -2 l 1,4,-1
 329 -2 l 1,5,-1
 329 330 l 2,6,7
 329 423 329 423 316.5 455 c 128,-1,8
 304 487 304 487 272 487 c 0,9,10
 226 487 226 487 161 400 c 1,11,-1
 161 -2 l 1,12,-1
 58 -2 l 1,13,-1
 58 599 l 1,14,-1
 161 599 l 1,15,-1
 161 521 l 1,16,17
 227 615 227 615 304 615 c 0,0,1
172 -133 m 0,18,19
 172 -85 172 -85 188 -63.5 c 128,-1,20
 204 -42 204 -42 240 -42 c 0,21,22
 304 -42 304 -42 303 -145 c 0,23,24
 303 -245 303 -245 255 -322 c 1,25,-1
 190 -322 l 1,26,27
 220 -270 220 -270 223 -223 c 1,28,29
 172 -218 172 -218 172 -133 c 0,18,19
EndSplineSet
Validated: 33
EndChar

StartChar: Ncaron
Encoding: 327 327 266
Width: 559
GlyphClass: 1
Flags: W
LayerCount: 2
Fore
SplineSet
371 -2 m 1,0,-1
 169 565 l 1,1,-1
 169 -2 l 1,2,-1
 59 -2 l 1,3,-1
 59 790 l 1,4,-1
 204 790 l 1,5,-1
 393 256 l 1,6,-1
 393 790 l 1,7,-1
 505 790 l 1,8,-1
 505 -2 l 1,9,-1
 371 -2 l 1,0,-1
330 882 m 1,10,-1
 233 882 l 1,11,-1
 137 1087 l 1,12,-1
 223 1087 l 1,13,14
 223 1086 223 1086 281 987 c 1,15,-1
 340 1087 l 1,16,-1
 425 1087 l 1,17,-1
 330 882 l 1,10,-1
EndSplineSet
Validated: 1
EndChar

StartChar: ncaron
Encoding: 328 328 267
Width: 482
GlyphClass: 1
Flags: W
LayerCount: 2
Fore
SplineSet
304 615 m 0,0,1
 372 615 372 615 401.5 562 c 128,-1,2
 431 509 431 509 431 400 c 2,3,-1
 431 -2 l 1,4,-1
 329 -2 l 1,5,-1
 329 330 l 2,6,7
 329 423 329 423 316.5 455 c 128,-1,8
 304 487 304 487 272 487 c 0,9,10
 226 487 226 487 161 400 c 1,11,-1
 161 -2 l 1,12,-1
 58 -2 l 1,13,-1
 58 599 l 1,14,-1
 161 599 l 1,15,-1
 161 521 l 1,16,17
 227 615 227 615 304 615 c 0,0,1
299 689 m 1,18,-1
 202 689 l 1,19,-1
 109 895 l 1,20,-1
 193 895 l 1,21,-1
 251 796 l 1,22,23
 250 796 250 796 310 895 c 1,24,-1
 392 895 l 1,25,-1
 299 689 l 1,18,-1
EndSplineSet
Validated: 37
EndChar

StartChar: napostrophe
Encoding: 329 329 268
Width: 576
GlyphClass: 1
Flags: W
LayerCount: 2
Fore
SplineSet
397 615 m 0,0,1
 465 615 465 615 495.5 562 c 128,-1,2
 526 509 526 509 526 400 c 2,3,-1
 526 -2 l 1,4,-1
 423 -2 l 1,5,-1
 423 330 l 2,6,7
 423 423 423 423 410.5 455 c 128,-1,8
 398 487 398 487 367 487 c 0,9,10
 321 487 321 487 255 400 c 1,11,-1
 255 -2 l 1,12,-1
 151 -2 l 1,13,-1
 151 599 l 1,14,-1
 255 599 l 1,15,-1
 255 521 l 1,16,17
 320 615 320 615 397 615 c 0,0,1
-7 716 m 0,18,19
 -7 764 -7 764 8 785 c 128,-1,20
 23 806 23 806 58 806 c 0,21,22
 122 806 122 806 123 703 c 0,23,24
 123 639 123 639 106.5 574.5 c 128,-1,25
 90 510 90 510 68 466 c 1,26,-1
 -7 466 l 1,27,28
 18 516 18 516 29.5 560 c 128,-1,29
 41 604 41 604 41 626 c 1,30,31
 -7 631 -7 631 -7 716 c 0,18,19
EndSplineSet
Validated: 1
EndChar

StartChar: Eng
Encoding: 330 330 269
Width: 559
GlyphClass: 1
Flags: W
LayerCount: 2
Fore
SplineSet
505 -26 m 2,0,1
 505 -135 505 -135 472 -181 c 128,-1,2
 439 -227 439 -227 361 -227 c 0,3,4
 343 -227 343 -227 314 -221 c 128,-1,5
 285 -215 285 -215 273 -208 c 1,6,-1
 296 -82 l 1,7,8
 326 -100 326 -100 357 -97 c 0,9,10
 387 -97 387 -97 394 -75.5 c 128,-1,11
 401 -54 401 -54 402 -2 c 1,12,-1
 169 565 l 1,13,-1
 169 -2 l 1,14,-1
 59 -2 l 1,15,-1
 59 790 l 1,16,-1
 204 790 l 1,17,-1
 393 297 l 1,18,-1
 393 790 l 1,19,-1
 505 790 l 1,20,-1
 505 -26 l 2,0,1
EndSplineSet
Validated: 33
EndChar

StartChar: eng
Encoding: 331 331 270
Width: 482
GlyphClass: 1
Flags: W
LayerCount: 2
Fore
SplineSet
431 -26 m 2,0,1
 431 -135 431 -135 398.5 -181 c 128,-1,2
 366 -227 366 -227 286 -227 c 0,3,4
 268 -227 268 -227 240.5 -221 c 128,-1,5
 213 -215 213 -215 200 -208 c 1,6,-1
 223 -82 l 1,7,8
 253 -100 253 -100 283 -98.5 c 128,-1,9
 313 -97 313 -97 321 -69.5 c 128,-1,10
 329 -42 329 -42 329 21 c 2,11,-1
 329 330 l 2,12,13
 329 423 329 423 316.5 455 c 128,-1,14
 304 487 304 487 272 487 c 0,15,16
 226 487 226 487 161 400 c 1,17,-1
 161 -2 l 1,18,-1
 58 -2 l 1,19,-1
 58 599 l 1,20,-1
 161 599 l 1,21,-1
 161 521 l 1,22,23
 227 615 227 615 304 615 c 0,24,25
 372 615 372 615 401.5 562 c 128,-1,26
 431 509 431 509 431 400 c 2,27,-1
 431 -26 l 2,0,1
EndSplineSet
Validated: 33
EndChar

StartChar: Omacron
Encoding: 332 332 271
Width: 543
GlyphClass: 1
Flags: W
LayerCount: 2
Fore
SplineSet
271.5 806 m 128,-1,1
 510 806 510 806 510 395 c 0,2,3
 510 199 510 199 451.5 91 c 128,-1,4
 393 -17 393 -17 273 -17 c 0,5,6
 150 -17 150 -17 91.5 91 c 128,-1,7
 33 199 33 199 33 395 c 0,8,0
 33 806 33 806 271.5 806 c 128,-1,1
393 394.5 m 128,-1,10
 393 535 393 535 366 600 c 128,-1,11
 339 665 339 665 271.5 665 c 128,-1,12
 204 665 204 665 177 600 c 128,-1,13
 150 535 150 535 150 394.5 c 128,-1,14
 150 254 150 254 177.5 190.5 c 128,-1,15
 205 127 205 127 273 127 c 0,16,17
 339 127 339 127 366 190.5 c 128,-1,9
 393 254 393 254 393 394.5 c 128,-1,10
143 908 m 1,18,-1
 143 1014 l 1,19,-1
 412 1014 l 1,20,-1
 412 908 l 1,21,-1
 143 908 l 1,18,-1
EndSplineSet
Validated: 1
EndChar

StartChar: omacron
Encoding: 333 333 272
Width: 471
GlyphClass: 1
Flags: W
LayerCount: 2
Fore
SplineSet
238 615 m 128,-1,1
 439 615 439 615 439 299 c 0,2,3
 439 -18 439 -18 240 -18 c 0,4,5
 38 -18 38 -18 37 299 c 0,6,0
 37 615 37 615 238 615 c 128,-1,1
240 111 m 128,-1,8
 293 111 293 111 313.5 158.5 c 128,-1,9
 334 206 334 206 334 299 c 0,10,11
 334 393 334 393 312.5 440.5 c 128,-1,12
 291 488 291 488 237.5 488 c 128,-1,13
 184 488 184 488 163.5 439 c 128,-1,14
 143 390 143 390 143 298 c 128,-1,15
 143 206 143 206 165 158.5 c 128,-1,7
 187 111 187 111 240 111 c 128,-1,8
101 717 m 1,16,-1
 101 823 l 1,17,-1
 369 823 l 1,18,-1
 369 717 l 1,19,-1
 101 717 l 1,16,-1
EndSplineSet
Validated: 1
EndChar

StartChar: Obreve
Encoding: 334 334 273
Width: 543
GlyphClass: 1
Flags: W
LayerCount: 2
Fore
SplineSet
271.5 806 m 128,-1,1
 510 806 510 806 510 395 c 0,2,3
 510 199 510 199 451.5 91 c 128,-1,4
 393 -17 393 -17 273 -17 c 0,5,6
 150 -17 150 -17 91.5 91 c 128,-1,7
 33 199 33 199 33 395 c 0,8,0
 33 806 33 806 271.5 806 c 128,-1,1
393 394.5 m 128,-1,10
 393 535 393 535 366 600 c 128,-1,11
 339 665 339 665 271.5 665 c 128,-1,12
 204 665 204 665 177 600 c 128,-1,13
 150 535 150 535 150 394.5 c 128,-1,14
 150 254 150 254 177.5 190.5 c 128,-1,15
 205 127 205 127 273 127 c 0,16,17
 339 127 339 127 366 190.5 c 128,-1,9
 393 254 393 254 393 394.5 c 128,-1,10
276 994 m 0,18,19
 330 994 330 994 344 1053 c 1,20,-1
 417 1053 l 1,21,22
 417 999 417 999 399 958 c 128,-1,23
 381 917 381 917 348 894 c 0,24,25
 316 869 316 869 272.5 869 c 128,-1,26
 229 869 229 869 197.5 893.5 c 128,-1,27
 166 918 166 918 148.5 961 c 128,-1,28
 131 1004 131 1004 131 1053 c 1,29,-1
 204 1053 l 1,30,31
 220 994 220 994 276 994 c 0,18,19
EndSplineSet
Validated: 1
EndChar

StartChar: obreve
Encoding: 335 335 274
Width: 471
GlyphClass: 1
Flags: W
LayerCount: 2
Fore
SplineSet
238 615 m 128,-1,1
 439 615 439 615 439 299 c 0,2,3
 439 -18 439 -18 240 -18 c 0,4,5
 38 -18 38 -18 37 299 c 0,6,0
 37 615 37 615 238 615 c 128,-1,1
240 111 m 128,-1,8
 293 111 293 111 313.5 158.5 c 128,-1,9
 334 206 334 206 334 299 c 0,10,11
 334 393 334 393 312.5 440.5 c 128,-1,12
 291 488 291 488 237.5 488 c 128,-1,13
 184 488 184 488 163.5 439 c 128,-1,14
 143 390 143 390 143 298 c 128,-1,15
 143 206 143 206 165 158.5 c 128,-1,7
 187 111 187 111 240 111 c 128,-1,8
240 802 m 0,16,17
 293 802 293 802 307 862 c 1,18,-1
 382 862 l 1,19,20
 382 808 382 808 363.5 766 c 128,-1,21
 345 724 345 724 314 701 c 0,22,23
 281 676 281 676 237.5 676.5 c 128,-1,24
 194 677 194 677 162.5 702 c 128,-1,25
 131 727 131 727 112 769.5 c 128,-1,26
 93 812 93 812 93 862 c 1,27,-1
 169 862 l 1,28,29
 183 802 183 802 240 802 c 0,16,17
EndSplineSet
Validated: 33
EndChar

StartChar: Ohungarumlaut
Encoding: 336 336 275
Width: 543
GlyphClass: 1
Flags: W
LayerCount: 2
Fore
SplineSet
271.5 806 m 128,-1,1
 510 806 510 806 510 395 c 0,2,3
 510 199 510 199 451.5 91 c 128,-1,4
 393 -17 393 -17 273 -17 c 0,5,6
 150 -17 150 -17 91.5 91 c 128,-1,7
 33 199 33 199 33 395 c 0,8,0
 33 806 33 806 271.5 806 c 128,-1,1
393 394.5 m 128,-1,10
 393 535 393 535 366 600 c 128,-1,11
 339 665 339 665 271.5 665 c 128,-1,12
 204 665 204 665 177 600 c 128,-1,13
 150 535 150 535 150 394.5 c 128,-1,14
 150 254 150 254 177.5 190.5 c 128,-1,15
 205 127 205 127 273 127 c 0,16,17
 339 127 339 127 366 190.5 c 128,-1,9
 393 254 393 254 393 394.5 c 128,-1,10
386 882 m 1,18,-1
 304 882 l 1,19,-1
 381 1087 l 1,20,-1
 507 1087 l 1,21,-1
 386 882 l 1,18,-1
220 882 m 1,22,-1
 137 882 l 1,23,-1
 215 1087 l 1,24,25
 214 1087 214 1087 339 1087 c 1,26,-1
 220 882 l 1,22,-1
EndSplineSet
Validated: 33
EndChar

StartChar: ohungarumlaut
Encoding: 337 337 276
Width: 471
GlyphClass: 1
Flags: W
LayerCount: 2
Fore
SplineSet
238 615 m 128,-1,1
 439 615 439 615 439 298.5 c 128,-1,2
 439 -18 439 -18 240 -18 c 0,3,4
 38 -18 38 -18 37.5 298.5 c 128,-1,0
 37 615 37 615 238 615 c 128,-1,1
240 111 m 128,-1,6
 293 111 293 111 313.5 158.5 c 128,-1,7
 334 206 334 206 334 299 c 0,8,9
 334 393 334 393 312.5 440.5 c 128,-1,10
 291 488 291 488 237.5 488 c 128,-1,11
 184 488 184 488 163.5 439 c 128,-1,12
 143 390 143 390 143 298 c 128,-1,13
 143 206 143 206 165 158.5 c 128,-1,5
 187 111 187 111 240 111 c 128,-1,6
355 689 m 1,14,-1
 272 689 l 1,15,-1
 346 895 l 1,16,17
 345 895 345 895 474 895 c 1,18,-1
 355 689 l 1,14,-1
188 689 m 1,19,-1
 105 689 l 1,20,21
 106 689 106 689 181 895 c 1,22,23
 180 895 180 895 307 895 c 1,24,-1
 188 689 l 1,19,-1
EndSplineSet
Validated: 33
EndChar

StartChar: OE
Encoding: 338 338 277
Width: 763
GlyphClass: 1
Flags: W
LayerCount: 2
Fore
SplineSet
40 395 m 0,0,1
 40 588 40 588 99 697 c 128,-1,2
 158 806 158 806 283 806 c 0,3,4
 331 806 331 806 381 790 c 1,5,-1
 728 790 l 1,6,-1
 728 648 l 1,7,-1
 501 648 l 1,8,-1
 501 476 l 1,9,-1
 685 476 l 1,10,-1
 685 332 l 1,11,-1
 501 332 l 1,12,-1
 501 148 l 1,13,-1
 728 148 l 1,14,-1
 728 -2 l 1,15,-1
 383 -2 l 1,16,17
 342 -20 342 -20 283 -17 c 0,18,19
 160 -17 160 -17 100 92 c 128,-1,20
 40 201 40 201 40 395 c 0,0,1
291 127 m 0,21,22
 322 127 322 127 344 134.5 c 128,-1,23
 366 142 366 142 386 163 c 1,24,-1
 386 626 l 1,25,26
 345 663 345 663 291 665 c 0,27,28
 214 665 214 665 185 598 c 128,-1,29
 156 531 156 531 156 395 c 0,30,31
 156 255 156 255 185 191 c 128,-1,32
 214 127 214 127 291 127 c 0,21,22
EndSplineSet
Validated: 33
EndChar

StartChar: oe
Encoding: 339 339 278
Width: 747
GlyphClass: 1
Flags: W
LayerCount: 2
Fore
SplineSet
533 615 m 0,0,1
 621 615 621 615 667 541 c 128,-1,2
 713 467 713 467 713 332 c 2,3,-1
 713 261 l 1,4,-1
 435 261 l 1,5,6
 438 183 438 183 461.5 147 c 128,-1,7
 485 111 485 111 539 111 c 0,8,9
 603 111 603 111 633 163 c 1,10,-1
 709 85 l 1,11,12
 683 32 683 32 644 7 c 128,-1,13
 605 -18 605 -18 542 -18 c 0,14,15
 437 -18 437 -18 385 70 c 1,16,17
 329 -18 329 -18 240 -18 c 0,18,19
 38 -18 38 -18 37 299 c 0,20,21
 37 452 37 452 86 533.5 c 128,-1,22
 135 615 135 615 234 615 c 0,23,24
 332 615 332 615 385 531 c 1,25,26
 438 615 438 615 533 615 c 0,0,1
612 362 m 1,27,28
 613 498 613 498 529 499 c 0,29,30
 485 499 485 499 465 466 c 0,31,32
 444 434 444 434 439 362 c 1,33,-1
 612 362 l 1,27,28
240 111 m 128,-1,35
 293 111 293 111 313.5 158.5 c 128,-1,36
 334 206 334 206 334 299 c 0,37,38
 334 394 334 394 312.5 441 c 128,-1,39
 291 488 291 488 240 488 c 0,40,41
 187 488 187 488 165 439 c 128,-1,42
 143 390 143 390 143 298 c 128,-1,43
 143 206 143 206 165 158.5 c 128,-1,34
 187 111 187 111 240 111 c 128,-1,35
EndSplineSet
Validated: 33
EndChar

